<mxfile host="app.diagrams.net" agent="Mozilla/5.0 (Windows NT 10.0; Win64; x64) AppleWebKit/537.36 (KHTML, like Gecko) Chrome/133.0.0.0 Safari/537.36" version="26.0.16">
  <diagram name="Page-1" id="MWNvGVvK23HuwWg47em4">
    <mxGraphModel dx="1050" dy="522" grid="1" gridSize="10" guides="1" tooltips="1" connect="1" arrows="1" fold="1" page="1" pageScale="1" pageWidth="827" pageHeight="1169" math="0" shadow="0">
      <root>
        <mxCell id="0" />
        <mxCell id="1" parent="0" />
        <mxCell id="S3AjZwHqo7CkDDV8pgAv-5" value="AIWeerFileDashboard" style="swimlane;fontStyle=0;childLayout=stackLayout;horizontal=1;startSize=26;fillColor=#d5e8d4;horizontalStack=0;resizeParent=1;resizeParentMax=0;resizeLast=0;collapsible=1;marginBottom=0;whiteSpace=wrap;html=1;strokeColor=#82b366;" parent="1" vertex="1">
          <mxGeometry x="573" y="60" width="140" height="104" as="geometry" />
        </mxCell>
        <mxCell id="S3AjZwHqo7CkDDV8pgAv-6" value="Datac" style="text;fillColor=none;align=left;verticalAlign=top;spacingLeft=4;spacingRight=4;overflow=hidden;rotatable=0;points=[[0,0.5],[1,0.5]];portConstraint=eastwest;whiteSpace=wrap;html=1;gradientColor=none;strokeColor=none;gradientDirection=west;fontStyle=2;fontColor=light-dark(#cac4c4, #ededed);" parent="S3AjZwHqo7CkDDV8pgAv-5" vertex="1">
          <mxGeometry y="26" width="140" height="26" as="geometry" />
        </mxCell>
        <mxCell id="S3AjZwHqo7CkDDV8pgAv-7" value="Weather data" style="text;strokeColor=none;fillColor=none;align=left;verticalAlign=top;spacingLeft=4;spacingRight=4;overflow=hidden;rotatable=0;points=[[0,0.5],[1,0.5]];portConstraint=eastwest;whiteSpace=wrap;html=1;fontColor=light-dark(#c6c3c3, #ededed);fontStyle=2" parent="S3AjZwHqo7CkDDV8pgAv-5" vertex="1">
          <mxGeometry y="52" width="140" height="26" as="geometry" />
        </mxCell>
        <mxCell id="S3AjZwHqo7CkDDV8pgAv-8" value="App" style="text;strokeColor=none;fillColor=none;align=left;verticalAlign=top;spacingLeft=4;spacingRight=4;overflow=hidden;rotatable=0;points=[[0,0.5],[1,0.5]];portConstraint=eastwest;whiteSpace=wrap;html=1;" parent="S3AjZwHqo7CkDDV8pgAv-5" vertex="1">
          <mxGeometry y="78" width="140" height="26" as="geometry" />
        </mxCell>
        <mxCell id="S3AjZwHqo7CkDDV8pgAv-13" value="AIWeerFile_functions" style="swimlane;fontStyle=0;childLayout=stackLayout;horizontal=1;startSize=26;fillColor=none;horizontalStack=0;resizeParent=1;resizeParentMax=0;resizeLast=0;collapsible=1;marginBottom=0;whiteSpace=wrap;html=1;" parent="1" vertex="1">
          <mxGeometry x="527" y="430" width="230" height="312" as="geometry" />
        </mxCell>
        <mxCell id="S3AjZwHqo7CkDDV8pgAv-14" value="Call_AIWeerFileAPI()" style="text;strokeColor=#314354;fillColor=#647687;align=left;verticalAlign=top;spacingLeft=4;spacingRight=4;overflow=hidden;rotatable=0;points=[[0,0.5],[1,0.5]];portConstraint=eastwest;whiteSpace=wrap;html=1;fontColor=#ffffff;" parent="S3AjZwHqo7CkDDV8pgAv-13" vertex="1">
          <mxGeometry y="26" width="230" height="26" as="geometry" />
        </mxCell>
        <mxCell id="S3AjZwHqo7CkDDV8pgAv-42" value="getHPrange()" style="text;strokeColor=#b85450;fillColor=#f8cecc;align=left;verticalAlign=top;spacingLeft=4;spacingRight=4;overflow=hidden;rotatable=0;points=[[0,0.5],[1,0.5]];portConstraint=eastwest;whiteSpace=wrap;html=1;" parent="S3AjZwHqo7CkDDV8pgAv-13" vertex="1">
          <mxGeometry y="52" width="230" height="26" as="geometry" />
        </mxCell>
        <mxCell id="S3AjZwHqo7CkDDV8pgAv-107" value="update_sql_database()" style="text;strokeColor=#6c8ebf;fillColor=#dae8fc;align=left;verticalAlign=top;spacingLeft=4;spacingRight=4;overflow=hidden;rotatable=0;points=[[0,0.5],[1,0.5]];portConstraint=eastwest;whiteSpace=wrap;html=1;" parent="S3AjZwHqo7CkDDV8pgAv-13" vertex="1">
          <mxGeometry y="78" width="230" height="26" as="geometry" />
        </mxCell>
        <mxCell id="S3AjZwHqo7CkDDV8pgAv-108" value="update_pickle_with_sql_database_data()" style="text;strokeColor=#6c8ebf;fillColor=#dae8fc;align=left;verticalAlign=top;spacingLeft=4;spacingRight=4;overflow=hidden;rotatable=0;points=[[0,0.5],[1,0.5]];portConstraint=eastwest;whiteSpace=wrap;html=1;" parent="S3AjZwHqo7CkDDV8pgAv-13" vertex="1">
          <mxGeometry y="104" width="230" height="26" as="geometry" />
        </mxCell>
        <mxCell id="S3AjZwHqo7CkDDV8pgAv-15" value="Collect_and_clean_AIweerfiledata()" style="text;strokeColor=#d6b656;fillColor=#fff2cc;align=left;verticalAlign=top;spacingLeft=4;spacingRight=4;overflow=hidden;rotatable=0;points=[[0,0.5],[1,0.5]];portConstraint=eastwest;whiteSpace=wrap;html=1;" parent="S3AjZwHqo7CkDDV8pgAv-13" vertex="1">
          <mxGeometry y="130" width="230" height="26" as="geometry" />
        </mxCell>
        <mxCell id="S3AjZwHqo7CkDDV8pgAv-38" value="__get_lat_lon()" style="text;strokeColor=#d6b656;fillColor=#fff2cc;align=left;verticalAlign=top;spacingLeft=4;spacingRight=4;overflow=hidden;rotatable=0;points=[[0,0.5],[1,0.5]];portConstraint=eastwest;whiteSpace=wrap;html=1;" parent="S3AjZwHqo7CkDDV8pgAv-13" vertex="1">
          <mxGeometry y="156" width="230" height="26" as="geometry" />
        </mxCell>
        <mxCell id="S3AjZwHqo7CkDDV8pgAv-39" value="__get_lat_lon_per_city()" style="text;strokeColor=#d6b656;fillColor=#fff2cc;align=left;verticalAlign=top;spacingLeft=4;spacingRight=4;overflow=hidden;rotatable=0;points=[[0,0.5],[1,0.5]];portConstraint=eastwest;whiteSpace=wrap;html=1;" parent="S3AjZwHqo7CkDDV8pgAv-13" vertex="1">
          <mxGeometry y="182" width="230" height="26" as="geometry" />
        </mxCell>
        <mxCell id="S3AjZwHqo7CkDDV8pgAv-40" value="__get_weather_from_api()" style="text;strokeColor=#d6b656;fillColor=#fff2cc;align=left;verticalAlign=top;spacingLeft=4;spacingRight=4;overflow=hidden;rotatable=0;points=[[0,0.5],[1,0.5]];portConstraint=eastwest;whiteSpace=wrap;html=1;" parent="S3AjZwHqo7CkDDV8pgAv-13" vertex="1">
          <mxGeometry y="208" width="230" height="26" as="geometry" />
        </mxCell>
        <mxCell id="S3AjZwHqo7CkDDV8pgAv-41" value="__get_weather_per_city()" style="text;strokeColor=#d6b656;fillColor=#fff2cc;align=left;verticalAlign=top;spacingLeft=4;spacingRight=4;overflow=hidden;rotatable=0;points=[[0,0.5],[1,0.5]];portConstraint=eastwest;whiteSpace=wrap;html=1;" parent="S3AjZwHqo7CkDDV8pgAv-13" vertex="1">
          <mxGeometry y="234" width="230" height="26" as="geometry" />
        </mxCell>
        <mxCell id="S3AjZwHqo7CkDDV8pgAv-16" value="__cache_temp_data()" style="text;strokeColor=#d6b656;fillColor=#fff2cc;align=left;verticalAlign=top;spacingLeft=4;spacingRight=4;overflow=hidden;rotatable=0;points=[[0,0.5],[1,0.5]];portConstraint=eastwest;whiteSpace=wrap;html=1;" parent="S3AjZwHqo7CkDDV8pgAv-13" vertex="1">
          <mxGeometry y="260" width="230" height="26" as="geometry" />
        </mxCell>
        <mxCell id="S3AjZwHqo7CkDDV8pgAv-106" value="__import_python_sql_class()" style="text;strokeColor=#6c8ebf;fillColor=#dae8fc;align=left;verticalAlign=top;spacingLeft=4;spacingRight=4;overflow=hidden;rotatable=0;points=[[0,0.5],[1,0.5]];portConstraint=eastwest;whiteSpace=wrap;html=1;" parent="S3AjZwHqo7CkDDV8pgAv-13" vertex="1">
          <mxGeometry y="286" width="230" height="26" as="geometry" />
        </mxCell>
        <mxCell id="S3AjZwHqo7CkDDV8pgAv-127" style="edgeStyle=orthogonalEdgeStyle;rounded=0;orthogonalLoop=1;jettySize=auto;html=1;exitX=1.017;exitY=0.098;exitDx=0;exitDy=0;entryX=0;entryY=0.5;entryDx=0;entryDy=0;exitPerimeter=0;" parent="1" source="S3AjZwHqo7CkDDV8pgAv-17" target="S3AjZwHqo7CkDDV8pgAv-125" edge="1">
          <mxGeometry relative="1" as="geometry" />
        </mxCell>
        <mxCell id="S3AjZwHqo7CkDDV8pgAv-17" value="callbacks" style="swimlane;fontStyle=0;childLayout=stackLayout;horizontal=1;startSize=26;fillColor=none;horizontalStack=0;resizeParent=1;resizeParentMax=0;resizeLast=0;collapsible=1;marginBottom=0;whiteSpace=wrap;html=1;" parent="1" vertex="1">
          <mxGeometry x="773" y="200" width="140" height="156" as="geometry" />
        </mxCell>
        <mxCell id="S3AjZwHqo7CkDDV8pgAv-18" value="main()" style="text;strokeColor=#82b366;fillColor=#d5e8d4;align=left;verticalAlign=top;spacingLeft=4;spacingRight=4;overflow=hidden;rotatable=0;points=[[0,0.5],[1,0.5]];portConstraint=eastwest;whiteSpace=wrap;html=1;" parent="S3AjZwHqo7CkDDV8pgAv-17" vertex="1">
          <mxGeometry y="26" width="140" height="26" as="geometry" />
        </mxCell>
        <mxCell id="S3AjZwHqo7CkDDV8pgAv-19" value="AIWeerFile()" style="text;strokeColor=#82b366;fillColor=#d5e8d4;align=left;verticalAlign=top;spacingLeft=4;spacingRight=4;overflow=hidden;rotatable=0;points=[[0,0.5],[1,0.5]];portConstraint=eastwest;whiteSpace=wrap;html=1;" parent="S3AjZwHqo7CkDDV8pgAv-17" vertex="1">
          <mxGeometry y="52" width="140" height="26" as="geometry" />
        </mxCell>
        <mxCell id="S3AjZwHqo7CkDDV8pgAv-32" value="update_data()" style="text;strokeColor=#6c8ebf;fillColor=#dae8fc;align=left;verticalAlign=top;spacingLeft=4;spacingRight=4;overflow=hidden;rotatable=0;points=[[0,0.5],[1,0.5]];portConstraint=eastwest;whiteSpace=wrap;html=1;" parent="S3AjZwHqo7CkDDV8pgAv-17" vertex="1">
          <mxGeometry y="78" width="140" height="26" as="geometry" />
        </mxCell>
        <mxCell id="S3AjZwHqo7CkDDV8pgAv-33" value="traffic()" style="text;strokeColor=#b85450;fillColor=#f8cecc;align=left;verticalAlign=top;spacingLeft=4;spacingRight=4;overflow=hidden;rotatable=0;points=[[0,0.5],[1,0.5]];portConstraint=eastwest;whiteSpace=wrap;html=1;" parent="S3AjZwHqo7CkDDV8pgAv-17" vertex="1">
          <mxGeometry y="104" width="140" height="26" as="geometry" />
        </mxCell>
        <mxCell id="S3AjZwHqo7CkDDV8pgAv-20" value="weather()" style="text;strokeColor=#b85450;fillColor=#f8cecc;align=left;verticalAlign=top;spacingLeft=4;spacingRight=4;overflow=hidden;rotatable=0;points=[[0,0.5],[1,0.5]];portConstraint=eastwest;whiteSpace=wrap;html=1;" parent="S3AjZwHqo7CkDDV8pgAv-17" vertex="1">
          <mxGeometry y="130" width="140" height="26" as="geometry" />
        </mxCell>
        <mxCell id="S3AjZwHqo7CkDDV8pgAv-30" style="edgeStyle=orthogonalEdgeStyle;rounded=0;orthogonalLoop=1;jettySize=auto;html=1;exitX=0.998;exitY=0.09;exitDx=0;exitDy=0;entryX=0.286;entryY=-0.001;entryDx=0;entryDy=0;entryPerimeter=0;exitPerimeter=0;" parent="1" source="S3AjZwHqo7CkDDV8pgAv-21" target="S3AjZwHqo7CkDDV8pgAv-13" edge="1">
          <mxGeometry relative="1" as="geometry">
            <mxPoint x="583" y="410" as="targetPoint" />
            <Array as="points">
              <mxPoint x="610" y="214" />
              <mxPoint x="610" y="430" />
            </Array>
          </mxGeometry>
        </mxCell>
        <mxCell id="S3AjZwHqo7CkDDV8pgAv-126" style="edgeStyle=orthogonalEdgeStyle;rounded=0;orthogonalLoop=1;jettySize=auto;html=1;exitX=0.007;exitY=0.098;exitDx=0;exitDy=0;entryX=1;entryY=0.5;entryDx=0;entryDy=0;exitPerimeter=0;" parent="1" source="S3AjZwHqo7CkDDV8pgAv-21" target="S3AjZwHqo7CkDDV8pgAv-111" edge="1">
          <mxGeometry relative="1" as="geometry" />
        </mxCell>
        <mxCell id="S3AjZwHqo7CkDDV8pgAv-21" value="app_layout" style="swimlane;fontStyle=0;childLayout=stackLayout;horizontal=1;startSize=26;fillColor=none;horizontalStack=0;resizeParent=1;resizeParentMax=0;resizeLast=0;collapsible=1;marginBottom=0;whiteSpace=wrap;html=1;" parent="1" vertex="1">
          <mxGeometry x="413" y="200" width="140" height="156" as="geometry" />
        </mxCell>
        <mxCell id="S3AjZwHqo7CkDDV8pgAv-22" value="main()" style="text;strokeColor=#82b366;fillColor=#d5e8d4;align=left;verticalAlign=top;spacingLeft=4;spacingRight=4;overflow=hidden;rotatable=0;points=[[0,0.5],[1,0.5]];portConstraint=eastwest;whiteSpace=wrap;html=1;" parent="S3AjZwHqo7CkDDV8pgAv-21" vertex="1">
          <mxGeometry y="26" width="140" height="26" as="geometry" />
        </mxCell>
        <mxCell id="S3AjZwHqo7CkDDV8pgAv-23" value="AIWeerFile_tab()" style="text;strokeColor=#82b366;fillColor=#d5e8d4;align=left;verticalAlign=top;spacingLeft=4;spacingRight=4;overflow=hidden;rotatable=0;points=[[0,0.5],[1,0.5]];portConstraint=eastwest;whiteSpace=wrap;html=1;" parent="S3AjZwHqo7CkDDV8pgAv-21" vertex="1">
          <mxGeometry y="52" width="140" height="26" as="geometry" />
        </mxCell>
        <mxCell id="S3AjZwHqo7CkDDV8pgAv-27" value="update_data_tab()" style="text;strokeColor=#6c8ebf;fillColor=#dae8fc;align=left;verticalAlign=top;spacingLeft=4;spacingRight=4;overflow=hidden;rotatable=0;points=[[0,0.5],[1,0.5]];portConstraint=eastwest;whiteSpace=wrap;html=1;" parent="S3AjZwHqo7CkDDV8pgAv-21" vertex="1">
          <mxGeometry y="78" width="140" height="26" as="geometry" />
        </mxCell>
        <mxCell id="S3AjZwHqo7CkDDV8pgAv-28" value="trafic_tab()" style="text;strokeColor=#b85450;fillColor=#f8cecc;align=left;verticalAlign=top;spacingLeft=4;spacingRight=4;overflow=hidden;rotatable=0;points=[[0,0.5],[1,0.5]];portConstraint=eastwest;whiteSpace=wrap;html=1;" parent="S3AjZwHqo7CkDDV8pgAv-21" vertex="1">
          <mxGeometry y="104" width="140" height="26" as="geometry" />
        </mxCell>
        <mxCell id="S3AjZwHqo7CkDDV8pgAv-24" value="weather_tab()" style="text;strokeColor=#b85450;fillColor=#f8cecc;align=left;verticalAlign=top;spacingLeft=4;spacingRight=4;overflow=hidden;rotatable=0;points=[[0,0.5],[1,0.5]];portConstraint=eastwest;whiteSpace=wrap;html=1;" parent="S3AjZwHqo7CkDDV8pgAv-21" vertex="1">
          <mxGeometry y="130" width="140" height="26" as="geometry" />
        </mxCell>
        <mxCell id="S3AjZwHqo7CkDDV8pgAv-29" style="edgeStyle=orthogonalEdgeStyle;rounded=0;orthogonalLoop=1;jettySize=auto;html=1;exitX=0;exitY=0.5;exitDx=0;exitDy=0;entryX=0.5;entryY=0;entryDx=0;entryDy=0;" parent="1" source="S3AjZwHqo7CkDDV8pgAv-8" target="S3AjZwHqo7CkDDV8pgAv-21" edge="1">
          <mxGeometry relative="1" as="geometry" />
        </mxCell>
        <mxCell id="S3AjZwHqo7CkDDV8pgAv-36" style="edgeStyle=orthogonalEdgeStyle;rounded=0;orthogonalLoop=1;jettySize=auto;html=1;exitX=-0.012;exitY=0.107;exitDx=0;exitDy=0;entryX=0.678;entryY=0;entryDx=0;entryDy=0;entryPerimeter=0;exitPerimeter=0;" parent="1" source="S3AjZwHqo7CkDDV8pgAv-17" target="S3AjZwHqo7CkDDV8pgAv-13" edge="1">
          <mxGeometry relative="1" as="geometry">
            <mxPoint x="873" y="390" as="sourcePoint" />
            <mxPoint x="653" y="380" as="targetPoint" />
            <Array as="points">
              <mxPoint x="683" y="217" />
            </Array>
          </mxGeometry>
        </mxCell>
        <mxCell id="S3AjZwHqo7CkDDV8pgAv-37" style="edgeStyle=orthogonalEdgeStyle;rounded=0;orthogonalLoop=1;jettySize=auto;html=1;exitX=1;exitY=0.5;exitDx=0;exitDy=0;entryX=0.5;entryY=0;entryDx=0;entryDy=0;" parent="1" source="S3AjZwHqo7CkDDV8pgAv-8" target="S3AjZwHqo7CkDDV8pgAv-17" edge="1">
          <mxGeometry relative="1" as="geometry">
            <mxPoint x="583" y="161" as="sourcePoint" />
            <mxPoint x="493" y="210" as="targetPoint" />
          </mxGeometry>
        </mxCell>
        <mxCell id="S3AjZwHqo7CkDDV8pgAv-43" value="api_to_sql_database" style="swimlane;fontStyle=0;childLayout=stackLayout;horizontal=1;startSize=26;fillColor=#647687;horizontalStack=0;resizeParent=1;resizeParentMax=0;resizeLast=0;collapsible=1;marginBottom=0;whiteSpace=wrap;html=1;strokeColor=#314354;fontColor=#ffffff;" parent="1" vertex="1">
          <mxGeometry x="1206" y="180" width="200" height="104" as="geometry" />
        </mxCell>
        <mxCell id="S3AjZwHqo7CkDDV8pgAv-44" value="get_data()" style="text;strokeColor=none;fillColor=none;align=left;verticalAlign=top;spacingLeft=4;spacingRight=4;overflow=hidden;rotatable=0;points=[[0,0.5],[1,0.5]];portConstraint=eastwest;whiteSpace=wrap;html=1;" parent="S3AjZwHqo7CkDDV8pgAv-43" vertex="1">
          <mxGeometry y="26" width="200" height="26" as="geometry" />
        </mxCell>
        <mxCell id="S3AjZwHqo7CkDDV8pgAv-45" value="get_unique()" style="text;strokeColor=none;fillColor=none;align=left;verticalAlign=top;spacingLeft=4;spacingRight=4;overflow=hidden;rotatable=0;points=[[0,0.5],[1,0.5]];portConstraint=eastwest;whiteSpace=wrap;html=1;" parent="S3AjZwHqo7CkDDV8pgAv-43" vertex="1">
          <mxGeometry y="52" width="200" height="26" as="geometry" />
        </mxCell>
        <mxCell id="S3AjZwHqo7CkDDV8pgAv-46" value="get_generic()" style="text;strokeColor=none;fillColor=none;align=left;verticalAlign=top;spacingLeft=4;spacingRight=4;overflow=hidden;rotatable=0;points=[[0,0.5],[1,0.5]];portConstraint=eastwest;whiteSpace=wrap;html=1;" parent="S3AjZwHqo7CkDDV8pgAv-43" vertex="1">
          <mxGeometry y="78" width="200" height="26" as="geometry" />
        </mxCell>
        <mxCell id="S3AjZwHqo7CkDDV8pgAv-52" value="api_utils" style="swimlane;fontStyle=0;childLayout=stackLayout;horizontal=1;startSize=26;fillColor=#647687;horizontalStack=0;resizeParent=1;resizeParentMax=0;resizeLast=0;collapsible=1;marginBottom=0;whiteSpace=wrap;html=1;strokeColor=#314354;fontColor=#ffffff;" parent="1" vertex="1">
          <mxGeometry x="1206" y="316" width="200" height="156" as="geometry" />
        </mxCell>
        <mxCell id="S3AjZwHqo7CkDDV8pgAv-53" value="set_up_db_connection()" style="text;strokeColor=none;fillColor=none;align=left;verticalAlign=top;spacingLeft=4;spacingRight=4;overflow=hidden;rotatable=0;points=[[0,0.5],[1,0.5]];portConstraint=eastwest;whiteSpace=wrap;html=1;" parent="S3AjZwHqo7CkDDV8pgAv-52" vertex="1">
          <mxGeometry y="26" width="200" height="26" as="geometry" />
        </mxCell>
        <mxCell id="S3AjZwHqo7CkDDV8pgAv-71" value="column_query()" style="text;strokeColor=none;fillColor=none;align=left;verticalAlign=top;spacingLeft=4;spacingRight=4;overflow=hidden;rotatable=0;points=[[0,0.5],[1,0.5]];portConstraint=eastwest;whiteSpace=wrap;html=1;" parent="S3AjZwHqo7CkDDV8pgAv-52" vertex="1">
          <mxGeometry y="52" width="200" height="26" as="geometry" />
        </mxCell>
        <mxCell id="S3AjZwHqo7CkDDV8pgAv-54" value="all_filters_query()" style="text;strokeColor=none;fillColor=none;align=left;verticalAlign=top;spacingLeft=4;spacingRight=4;overflow=hidden;rotatable=0;points=[[0,0.5],[1,0.5]];portConstraint=eastwest;whiteSpace=wrap;html=1;" parent="S3AjZwHqo7CkDDV8pgAv-52" vertex="1">
          <mxGeometry y="78" width="200" height="26" as="geometry" />
        </mxCell>
        <mxCell id="S3AjZwHqo7CkDDV8pgAv-57" value="datetime_converter()" style="text;strokeColor=none;fillColor=none;align=left;verticalAlign=top;spacingLeft=4;spacingRight=4;overflow=hidden;rotatable=0;points=[[0,0.5],[1,0.5]];portConstraint=eastwest;whiteSpace=wrap;html=1;" parent="S3AjZwHqo7CkDDV8pgAv-52" vertex="1">
          <mxGeometry y="104" width="200" height="26" as="geometry" />
        </mxCell>
        <mxCell id="S3AjZwHqo7CkDDV8pgAv-58" value="__date_time_query()" style="text;strokeColor=none;fillColor=none;align=left;verticalAlign=top;spacingLeft=4;spacingRight=4;overflow=hidden;rotatable=0;points=[[0,0.5],[1,0.5]];portConstraint=eastwest;whiteSpace=wrap;html=1;" parent="S3AjZwHqo7CkDDV8pgAv-52" vertex="1">
          <mxGeometry y="130" width="200" height="26" as="geometry" />
        </mxCell>
        <mxCell id="S3AjZwHqo7CkDDV8pgAv-59" value="python_postgress_class" style="swimlane;fontStyle=0;childLayout=stackLayout;horizontal=1;startSize=26;fillColor=#dae8fc;horizontalStack=0;resizeParent=1;resizeParentMax=0;resizeLast=0;collapsible=1;marginBottom=0;whiteSpace=wrap;html=1;strokeColor=#6c8ebf;" parent="1" vertex="1">
          <mxGeometry x="898" y="510" width="200" height="208" as="geometry" />
        </mxCell>
        <mxCell id="S3AjZwHqo7CkDDV8pgAv-60" value="__init__" style="text;strokeColor=none;fillColor=none;align=left;verticalAlign=top;spacingLeft=4;spacingRight=4;overflow=hidden;rotatable=0;points=[[0,0.5],[1,0.5]];portConstraint=eastwest;whiteSpace=wrap;html=1;" parent="S3AjZwHqo7CkDDV8pgAv-59" vertex="1">
          <mxGeometry y="26" width="200" height="26" as="geometry" />
        </mxCell>
        <mxCell id="S3AjZwHqo7CkDDV8pgAv-61" value="generic_set_query()" style="text;strokeColor=none;fillColor=none;align=left;verticalAlign=top;spacingLeft=4;spacingRight=4;overflow=hidden;rotatable=0;points=[[0,0.5],[1,0.5]];portConstraint=eastwest;whiteSpace=wrap;html=1;" parent="S3AjZwHqo7CkDDV8pgAv-59" vertex="1">
          <mxGeometry y="52" width="200" height="26" as="geometry" />
        </mxCell>
        <mxCell id="S3AjZwHqo7CkDDV8pgAv-62" value="generic_get_query()" style="text;strokeColor=none;fillColor=none;align=left;verticalAlign=top;spacingLeft=4;spacingRight=4;overflow=hidden;rotatable=0;points=[[0,0.5],[1,0.5]];portConstraint=eastwest;whiteSpace=wrap;html=1;" parent="S3AjZwHqo7CkDDV8pgAv-59" vertex="1">
          <mxGeometry y="78" width="200" height="26" as="geometry" />
        </mxCell>
        <mxCell id="S3AjZwHqo7CkDDV8pgAv-63" value="create_table()" style="text;strokeColor=none;fillColor=none;align=left;verticalAlign=top;spacingLeft=4;spacingRight=4;overflow=hidden;rotatable=0;points=[[0,0.5],[1,0.5]];portConstraint=eastwest;whiteSpace=wrap;html=1;" parent="S3AjZwHqo7CkDDV8pgAv-59" vertex="1">
          <mxGeometry y="104" width="200" height="26" as="geometry" />
        </mxCell>
        <mxCell id="S3AjZwHqo7CkDDV8pgAv-64" value="create_table()" style="text;strokeColor=none;fillColor=none;align=left;verticalAlign=top;spacingLeft=4;spacingRight=4;overflow=hidden;rotatable=0;points=[[0,0.5],[1,0.5]];portConstraint=eastwest;whiteSpace=wrap;html=1;" parent="S3AjZwHqo7CkDDV8pgAv-59" vertex="1">
          <mxGeometry y="130" width="200" height="26" as="geometry" />
        </mxCell>
        <mxCell id="S3AjZwHqo7CkDDV8pgAv-65" value="connect_to_postgres()" style="text;strokeColor=none;fillColor=none;align=left;verticalAlign=top;spacingLeft=4;spacingRight=4;overflow=hidden;rotatable=0;points=[[0,0.5],[1,0.5]];portConstraint=eastwest;whiteSpace=wrap;html=1;" parent="S3AjZwHqo7CkDDV8pgAv-59" vertex="1">
          <mxGeometry y="156" width="200" height="26" as="geometry" />
        </mxCell>
        <mxCell id="S3AjZwHqo7CkDDV8pgAv-66" value="get_db_info()" style="text;strokeColor=none;fillColor=none;align=left;verticalAlign=top;spacingLeft=4;spacingRight=4;overflow=hidden;rotatable=0;points=[[0,0.5],[1,0.5]];portConstraint=eastwest;whiteSpace=wrap;html=1;" parent="S3AjZwHqo7CkDDV8pgAv-59" vertex="1">
          <mxGeometry y="182" width="200" height="26" as="geometry" />
        </mxCell>
        <mxCell id="S3AjZwHqo7CkDDV8pgAv-67" style="edgeStyle=orthogonalEdgeStyle;rounded=0;orthogonalLoop=1;jettySize=auto;html=1;exitX=1;exitY=0.5;exitDx=0;exitDy=0;entryX=0.002;entryY=0.119;entryDx=0;entryDy=0;entryPerimeter=0;" parent="1" source="S3AjZwHqo7CkDDV8pgAv-14" target="S3AjZwHqo7CkDDV8pgAv-43" edge="1">
          <mxGeometry relative="1" as="geometry">
            <mxPoint x="783" y="430" as="sourcePoint" />
            <mxPoint x="803" y="420" as="targetPoint" />
            <Array as="points">
              <mxPoint x="860" y="469" />
              <mxPoint x="860" y="390" />
              <mxPoint x="1140" y="390" />
              <mxPoint x="1140" y="192" />
            </Array>
          </mxGeometry>
        </mxCell>
        <mxCell id="S3AjZwHqo7CkDDV8pgAv-69" style="edgeStyle=orthogonalEdgeStyle;rounded=0;orthogonalLoop=1;jettySize=auto;html=1;exitX=0.503;exitY=0.976;exitDx=0;exitDy=0;exitPerimeter=0;entryX=0.5;entryY=0;entryDx=0;entryDy=0;" parent="1" source="S3AjZwHqo7CkDDV8pgAv-46" target="S3AjZwHqo7CkDDV8pgAv-52" edge="1">
          <mxGeometry relative="1" as="geometry">
            <mxPoint x="779" y="580" as="sourcePoint" />
            <mxPoint x="1321" y="310" as="targetPoint" />
            <Array as="points">
              <mxPoint x="1307" y="300" />
              <mxPoint x="1306" y="300" />
            </Array>
          </mxGeometry>
        </mxCell>
        <mxCell id="S3AjZwHqo7CkDDV8pgAv-70" style="edgeStyle=orthogonalEdgeStyle;rounded=0;orthogonalLoop=1;jettySize=auto;html=1;exitX=0.526;exitY=0.983;exitDx=0;exitDy=0;entryX=0.559;entryY=-0.001;entryDx=0;entryDy=0;exitPerimeter=0;entryPerimeter=0;" parent="1" source="S3AjZwHqo7CkDDV8pgAv-58" target="S3AjZwHqo7CkDDV8pgAv-59" edge="1">
          <mxGeometry relative="1" as="geometry">
            <Array as="points">
              <mxPoint x="1311" y="490" />
              <mxPoint x="1010" y="490" />
            </Array>
          </mxGeometry>
        </mxCell>
        <mxCell id="S3AjZwHqo7CkDDV8pgAv-79" value="Data" style="swimlane;fontStyle=0;childLayout=stackLayout;horizontal=1;startSize=26;fillColor=#fff2cc;horizontalStack=0;resizeParent=1;resizeParentMax=0;resizeLast=0;collapsible=1;marginBottom=0;whiteSpace=wrap;html=1;strokeColor=#d6b656;" parent="1" vertex="1">
          <mxGeometry x="200" y="690" width="200" height="104" as="geometry" />
        </mxCell>
        <mxCell id="S3AjZwHqo7CkDDV8pgAv-80" value="&lt;p style=&quot;language:en-US;margin-top:0pt;margin-bottom:0pt;margin-left:0in;&lt;br/&gt;text-align:center;direction:ltr;unicode-bidi:embed;mso-line-break-override:&lt;br/&gt;none;word-break:normal;punctuation-wrap:hanging&quot;&gt;&lt;span style=&quot;font-size:10.5pt;&lt;br/&gt;font-family:Calibri;mso-ascii-font-family:Calibri;mso-fareast-font-family:+mn-ea;&lt;br/&gt;mso-bidi-font-family:+mn-cs;mso-ascii-theme-font:minor-latin;mso-fareast-theme-font:&lt;br/&gt;minor-fareast;mso-bidi-theme-font:minor-bidi;color:#063C67;mso-color-index:&lt;br/&gt;1;mso-font-kerning:12.0pt;language:en-US;mso-style-textfill-type:solid;&lt;br/&gt;mso-style-textfill-fill-themecolor:text1;mso-style-textfill-fill-color:#063C67;&lt;br/&gt;mso-style-textfill-fill-alpha:100.0%&quot;&gt;downloads.rijkswaterstaatdata.nl&lt;/span&gt;&lt;/p&gt;" style="text;strokeColor=none;fillColor=none;align=left;verticalAlign=top;spacingLeft=4;spacingRight=4;overflow=hidden;rotatable=0;points=[[0,0.5],[1,0.5]];portConstraint=eastwest;whiteSpace=wrap;html=1;" parent="S3AjZwHqo7CkDDV8pgAv-79" vertex="1">
          <mxGeometry y="26" width="200" height="26" as="geometry" />
        </mxCell>
        <mxCell id="S3AjZwHqo7CkDDV8pgAv-81" value="&lt;p style=&quot;language:en-US;margin-top:0pt;margin-bottom:0pt;margin-left:0in;&lt;br/&gt;text-align:center;direction:ltr;unicode-bidi:embed;mso-line-break-override:&lt;br/&gt;none;word-break:normal;punctuation-wrap:hanging&quot;&gt;&lt;span style=&quot;font-size:10.5pt;&lt;br/&gt;font-family:Calibri;mso-ascii-font-family:Calibri;mso-fareast-font-family:+mn-ea;&lt;br/&gt;mso-bidi-font-family:+mn-cs;mso-ascii-theme-font:minor-latin;mso-fareast-theme-font:&lt;br/&gt;minor-fareast;mso-bidi-theme-font:minor-bidi;color:#063C67;mso-color-index:&lt;br/&gt;1;mso-font-kerning:12.0pt;language:en-US;mso-style-textfill-type:solid;&lt;br/&gt;mso-style-textfill-fill-themecolor:text1;mso-style-textfill-fill-color:#063C67;&lt;br/&gt;mso-style-textfill-fill-alpha:100.0%&quot;&gt;https://geocoding-api&lt;/span&gt;&lt;/p&gt;" style="text;strokeColor=none;fillColor=none;align=left;verticalAlign=top;spacingLeft=4;spacingRight=4;overflow=hidden;rotatable=0;points=[[0,0.5],[1,0.5]];portConstraint=eastwest;whiteSpace=wrap;html=1;" parent="S3AjZwHqo7CkDDV8pgAv-79" vertex="1">
          <mxGeometry y="52" width="200" height="26" as="geometry" />
        </mxCell>
        <mxCell id="S3AjZwHqo7CkDDV8pgAv-82" value="&lt;p style=&quot;margin-top: 0pt; margin-bottom: 0pt; margin-left: 0in; direction: ltr; unicode-bidi: embed; word-break: normal;&quot;&gt;&lt;span style=&quot;font-size:10.5pt;&lt;br/&gt;font-family:Calibri;mso-ascii-font-family:Calibri;mso-fareast-font-family:+mn-ea;&lt;br/&gt;mso-bidi-font-family:+mn-cs;mso-ascii-theme-font:minor-latin;mso-fareast-theme-font:&lt;br/&gt;minor-fareast;mso-bidi-theme-font:minor-bidi;color:#063C67;mso-color-index:&lt;br/&gt;1;mso-font-kerning:12.0pt;language:en-US;mso-style-textfill-type:solid;&lt;br/&gt;mso-style-textfill-fill-themecolor:text1;mso-style-textfill-fill-color:#063C67;&lt;br/&gt;mso-style-textfill-fill-alpha:100.0%&quot;&gt;https://open-meteo.com/&lt;/span&gt;&lt;/p&gt;" style="text;strokeColor=none;fillColor=none;align=left;verticalAlign=top;spacingLeft=4;spacingRight=4;overflow=hidden;rotatable=0;points=[[0,0.5],[1,0.5]];portConstraint=eastwest;whiteSpace=wrap;html=1;" parent="S3AjZwHqo7CkDDV8pgAv-79" vertex="1">
          <mxGeometry y="78" width="200" height="26" as="geometry" />
        </mxCell>
        <mxCell id="S3AjZwHqo7CkDDV8pgAv-78" value="" style="dashed=0;outlineConnect=0;html=1;align=center;labelPosition=center;verticalLabelPosition=bottom;verticalAlign=top;shape=mxgraph.weblogos.chrome" parent="1" vertex="1">
          <mxGeometry x="282" y="640" width="36" height="37" as="geometry" />
        </mxCell>
        <mxCell id="S3AjZwHqo7CkDDV8pgAv-92" style="edgeStyle=orthogonalEdgeStyle;rounded=0;orthogonalLoop=1;jettySize=auto;html=1;entryX=0;entryY=0.5;entryDx=0;entryDy=0;exitX=0.995;exitY=0.335;exitDx=0;exitDy=0;exitPerimeter=0;jumpStyle=arc;" parent="1" source="S3AjZwHqo7CkDDV8pgAv-93" target="S3AjZwHqo7CkDDV8pgAv-19" edge="1">
          <mxGeometry relative="1" as="geometry">
            <mxPoint x="370" y="370" as="sourcePoint" />
            <mxPoint x="943" y="170" as="targetPoint" />
            <Array as="points">
              <mxPoint x="740" y="379" />
              <mxPoint x="740" y="265" />
            </Array>
          </mxGeometry>
        </mxCell>
        <mxCell id="S3AjZwHqo7CkDDV8pgAv-91" style="edgeStyle=orthogonalEdgeStyle;rounded=0;orthogonalLoop=1;jettySize=auto;html=1;jumpStyle=arc;exitX=0;exitY=0.5;exitDx=0;exitDy=0;" parent="1" source="S3AjZwHqo7CkDDV8pgAv-107" edge="1">
          <mxGeometry relative="1" as="geometry">
            <mxPoint x="480" y="530" as="sourcePoint" />
            <mxPoint x="360" y="400" as="targetPoint" />
            <Array as="points">
              <mxPoint x="480" y="520" />
              <mxPoint x="480" y="400" />
            </Array>
          </mxGeometry>
        </mxCell>
        <mxCell id="S3AjZwHqo7CkDDV8pgAv-93" value="" style="image;aspect=fixed;html=1;points=[];align=center;fontSize=12;image=img/lib/azure2/databases/Azure_Database_PostgreSQL_Server.svg;" parent="1" vertex="1">
          <mxGeometry x="295" y="348.66" width="68" height="90.67" as="geometry" />
        </mxCell>
        <mxCell id="S3AjZwHqo7CkDDV8pgAv-97" style="edgeStyle=orthogonalEdgeStyle;rounded=0;orthogonalLoop=1;jettySize=auto;html=1;exitX=0.77;exitY=0.044;exitDx=0;exitDy=0;exitPerimeter=0;" parent="1" source="S3AjZwHqo7CkDDV8pgAv-93" edge="1">
          <mxGeometry relative="1" as="geometry">
            <mxPoint x="590" y="210" as="sourcePoint" />
            <mxPoint x="410" y="291" as="targetPoint" />
            <Array as="points">
              <mxPoint x="347" y="310" />
              <mxPoint x="390" y="310" />
              <mxPoint x="390" y="291" />
            </Array>
          </mxGeometry>
        </mxCell>
        <mxCell id="S3AjZwHqo7CkDDV8pgAv-109" style="edgeStyle=orthogonalEdgeStyle;rounded=0;orthogonalLoop=1;jettySize=auto;html=1;exitX=1;exitY=0.5;exitDx=0;exitDy=0;" parent="1" source="S3AjZwHqo7CkDDV8pgAv-107" edge="1">
          <mxGeometry relative="1" as="geometry">
            <mxPoint x="897" y="520" as="targetPoint" />
            <Array as="points">
              <mxPoint x="890" y="521" />
            </Array>
          </mxGeometry>
        </mxCell>
        <mxCell id="S3AjZwHqo7CkDDV8pgAv-110" style="edgeStyle=orthogonalEdgeStyle;rounded=0;orthogonalLoop=1;jettySize=auto;html=1;exitX=1;exitY=0.5;exitDx=0;exitDy=0;" parent="1" source="S3AjZwHqo7CkDDV8pgAv-108" edge="1">
          <mxGeometry relative="1" as="geometry">
            <mxPoint x="896" y="520" as="targetPoint" />
            <Array as="points">
              <mxPoint x="757" y="550" />
              <mxPoint x="850" y="550" />
              <mxPoint x="850" y="520" />
              <mxPoint x="890" y="520" />
            </Array>
          </mxGeometry>
        </mxCell>
        <mxCell id="S3AjZwHqo7CkDDV8pgAv-111" value="app_layout_helpers" style="swimlane;fontStyle=0;childLayout=stackLayout;horizontal=1;startSize=26;fillColor=#d5e8d4;horizontalStack=0;resizeParent=1;resizeParentMax=0;resizeLast=0;collapsible=1;marginBottom=0;whiteSpace=wrap;html=1;strokeColor=#82b366;" parent="1" vertex="1">
          <mxGeometry x="240" y="190" width="140" height="52" as="geometry" />
        </mxCell>
        <mxCell id="S3AjZwHqo7CkDDV8pgAv-125" value="callbacks_helpers" style="swimlane;fontStyle=0;childLayout=stackLayout;horizontal=1;startSize=26;fillColor=#d5e8d4;horizontalStack=0;resizeParent=1;resizeParentMax=0;resizeLast=0;collapsible=1;marginBottom=0;whiteSpace=wrap;html=1;strokeColor=#82b366;" parent="1" vertex="1">
          <mxGeometry x="940" y="190" width="140" height="52" as="geometry" />
        </mxCell>
        <mxCell id="S3AjZwHqo7CkDDV8pgAv-128" style="edgeStyle=orthogonalEdgeStyle;rounded=0;orthogonalLoop=1;jettySize=auto;html=1;entryX=0.5;entryY=1;entryDx=0;entryDy=0;exitX=0;exitY=0.5;exitDx=0;exitDy=0;" parent="1" source="S3AjZwHqo7CkDDV8pgAv-108" target="S3AjZwHqo7CkDDV8pgAv-130" edge="1">
          <mxGeometry relative="1" as="geometry">
            <mxPoint x="291" y="670" as="sourcePoint" />
            <Array as="points">
              <mxPoint x="420" y="547" />
              <mxPoint x="420" y="500" />
              <mxPoint x="140" y="500" />
            </Array>
          </mxGeometry>
        </mxCell>
        <mxCell id="S3AjZwHqo7CkDDV8pgAv-130" value="" style="shape=image;verticalLabelPosition=bottom;labelBackgroundColor=default;verticalAlign=top;aspect=fixed;imageAspect=0;image=data:image/png,iVBORw0KGgoAAAANSUhEUgAAAOkAAAC3CAYAAAD3s3lkAAAAAXNSR0IArs4c6QAAAARnQU1BAACxjwv8YQUAAAAJcEhZcwAAFxEAABcRAcom8z8AAMAGSURBVHhe7P0FeFTJuzWOBiJAcBgY3KLt7hY33G1wdxnc3SHuRoINMgwwA8MwMMjgEhcILjEIHggkodd9q2HmHvl993ycM9/3v/em3+epp7t3765de3etWmvVrqptYw1rWMMa1rCGNaxhDWtYwxrWsIY1rGENa1jDGtawhjWsYQ1rWOP/aHwoedS7ovTRtC8frWENa/x/W3wovO9eWfJY/eWjNaxhjf/TYTZXeJrN5rPm9y+++7LpP4XZXNbuw8fis2bzhz/fvn/y/ZfN/y7evXiw+/XTgpNmc3H9L5usYQ1rAKhLqQFLpaU5DU6f3tdgX0REg4iI5Q36m0wNWtjY/LtEP7GkQ7/9ocotfP4jex+yYX6HtKsXTT/vinaZ3N/UIGL55Ab79u2jvHIalOaUWvKm9A0B2URJQ+9bsWP/x3jxplRfVlboS9/bfdlkDWvUjGCgAMpb5Vz5pdWm5ZNbmUzcVi0cbRhQWh1IjLjwU2psSfTm1SWr5s8umTJ6WMmAnl1Luvr5lAjdXEuaOzYoad6gQUnjOnVKHGvbltjb2JTYUmpQp85LJycX2NeyLaF8nlC627iO7WOFu0tJD5O2ZNiAASUTxk4omT97Tknwxk0le1O2F6WdP3v37C+Hk2jfZv0VHVtFzBnRKuf0vlYoL6XyodVLs3lnidn8C31vDWv8/29QZe9Ayf348ePu3bp1c1+1cMqgsz8nlidHrSpfMH1UeVc/Y7mzi1O5Y+Om5bXs65c3aOGExq25aNiah4ZthGjYTooG7RX0qkB9F384CgbDkT8Q9YWD0EA4GA1Fg9BQPAj1RQNRi9sfdcVD4SihJOwPB/fuqNPFF3Xbm9C4rQDN2rqiWTsXNGvjjOZtnPBtB2c0/bYDmjRqXC7q0K68l4exfM64MeWha1eV79+ZVL5u2eyh08YN1KakxHPYORDrtvlyWtawxv9vB6vMR44c0XgbtZp9u3fc2p2SiKnjR0LOc0KjBnVg901b2Ld0Rt02ctTr5I86vBFwUM2Fo3EVag36CTYjT6H22D/hMPU6GszJR9NFD9By+RPUX/4SNks/otbyStiv+oR664CGm4AmW4BGlOzWAw4bgHobgfqUHNdWod6qd6i7/C1az7+DDrMz0HraNTQfdw4Nh/6Kun0PwKH3fth7bUVt96Go7dQHDm0McGzBQ6MmrdHY3qG6Q8N6lUP6dUPw5rVIjA695tSmoWblyqWaLzK58ZdTtoY1/p+Pt48fe5qfvG7O3psLCuqYnz7uavmCgips0POnd4JmzR0Z1LChTdCoIX1OjB85FK7OrrBxaASbRh1gR2zYTBSEph5TYTPkEIHwFBrMzkXTZWVosuYTGqwmgK0gQ7oWqEPgs6NXG9pmQ9tsllFaQmk5pVVftrHEPrPvln55XfNl22JKS8y07RNqrfwEOwJ0LQKwDUuUtyWx/Fliv6FUe2U1bOY/g8OMm2g88U80GrwHdt7rYSOcAkdi4trNhLCp0w7NW3ZBUEAAosK2YM7MCYk9fTyDstKuBX25FH/Hs3cP25S+uuf35aM1rPHPh/ntTeGHF9ndvny0KS98vKi4+E7k/eL8TuwzAXNt0Xvzd8nJscuO7E3GykUzYdAr0KBFC9RrJUb9DgFowB+LBr4hcBz2B+rOfYK6BJI6m78AgwGQAW7lf0h/AfBrE/22NuVfm/KsxUDLQE3ArUUAtV1dRWAl0P6r3/2V2LFZeVhiZWNlJDDXJiA3+/41Go2/ifr9DsFRvxS2JKFt6reFjf034AicMWvmGBj1olVz534/rKz0TZ8v16f9s/f5c9n7oqIiGX2e/aLksZB9vlf63L+k5O237L01rPHfjqqX2Z7Vr3InPSgu7vaosNCfbSt8f3co61A5f/qX71T+HrOnLV4KrVoLGxs72DQRw140AfW6RuOb6TfRYvF7NKXUYKkZDgSAWqzyf2GtfwmS/2GqTSCsu+YDHFZXwnZ5FWwWsfSBAFsB+5UVqL3i07/83f9WWmOG7QYzGmyuQtN1r9BkwR04jjuLugOPoL56Bmy+UZJaaAWNXopJE0ejM7fzwiNH0qYTME2W61ZYqKP3yS+LH3uwzwWlZQ/vFD39T+xrDWv8t+JeYaHfvbIyFVWyHpmX7s1v0bDpykAfrblVqyZUMVujoWgw6vdKgOPsfNRfUYk6/1amktS0WVVJn9+j9upyAtAb2K9+959B8A8kBkKHFW9gu/g1ai14i1oEUFvyrrariEUp2az4L5j0f5UYw26m82BpPeVB7GpLjO1I3rcRqYKmC6rRfMYDtBhxFA3Us2HTQAD7hs3Qr29/TJ80oezKHzHr6NppvlxOS+SWvPgup/BFhy8frWGN/1lQBVOaS98EL587q2Rgr35oUOdb2Lf1QkufVWg3/gSar3gBx2BiyhCqzMSWDVe8RCMCYl3yePVWVMFxZSUcV3xAg+Xv0WTFO3qt+Ndg+J8mxtZrqknWVsKOjmu/ygx7AtTfXpQx+b/63X+RahG4HYiJGRvbr6iA7YqPdAxK9GpL52VD7223Ao0JsG1IXneZehudekWiVhcfksMN0berGuMnjrl3ITcrjq6l4stltYY1/ucBPJOZq0t/Sliz8v6wXr3RsG5z2LT3gkP3WDRe8BiNiUnqUrJ02Cz7BPu11ai9nNhy6QvUIyDWpW0O9J3DcsCeXu3ZKyW7fwGEfyyRlK61kcq1iY5LILVZ9NEieW1WVH9mxH/1m/8i1aLkQCxtR+dju5jOkUnoJe8J9JTv+kpi8CrUXW0mL0zMveYlmmwuR4uNH9F0RSnqDz8Fmzb9YFPHFb6BAVi0cOzNG3/Gy75cYmtY478f1OKL8q+l3142ZSo6tCRwtuSh3ZBdaL2wxNL5U4v5yqVMYlIFXvgKdec+Rd3FJGOXMllI27dUE4tVotY6Agexm41FbjKwUFrG3v9nMPxvJ9Z7+6+2/9XxQ37Udul7NKJjNVv5AY5L3xK4Xv2Pjmvx038l1gG1nNJSyo88d50FpBYWkgReSCy+llTCFgLw+k90DahRIh/bctULtBh+CDbfeqBlOye0bd3q9u7de8+St+/y5XJbwxr/+0EVx4EAKjiwf+9DjdZEnpMHB+VcNJt1C44ETiYf7ZZUofEiYhDymvYk8+puqELtpcRYcylNK4ftnI/0mSrxMgInA+2XVIsxEUusgrPK/9frX0Bgr/+W7ZbT7/767i9gLjPDjvyurQWM/+982Pe1absD843zXqLu94XgbSmvCtxdbfbbDbhsfkVsSOWz5Ee/Y/l9+b3luP8xsXL8XRZW/td07DfUKJHkXVWNusTS9QmsDZkPXlVBjREBlvavxdJiKsu8j6hPDUW9ZeWwJ1Z3pPK2mfcYTQNjYdPaE1yRCJuWjym4n77H0lMO7LMFCh0tfwIF/Q/0GbZfPlqjJkdZWUGjHOQ4sPdUKZqYzYVZCbHLStu0bk2eqjeazMxB43lPSLpWWgBiqdwEODtWwUM/oe7yV2g6/zmaEYDbky91XvsY3M0vwA02w33LKzTfUo52G6vQZtN7CxvZLvmEOluoUq8labjkjeX2SK31b9Bg6Qc0JfDbEoAcCRj1GCstLoQNsbHdwioqBx2fZKXb5peYnfj87dC4JxUtyeMyRq89vxCNl76Dwzz6zeqXsJn9AiMPf8SNp+YteaWl85++r6oY8QPtS2WvtZZ8KgPbbALVknckzwlsBDhHOobtkg+wX0T7zKdzZB1E24gNN5O8XfwWNgvfkZQlWbuejrGQyjy/CnXoNw2WmL90TJXDZvVH1KH8Hee9JWXxDvXXV1nuz9ospcZqxVvYUwPSYN0n1B+dDpsug9CmTVtMnTi8IGp5VEtqGJ3p2rPhiZb49OnuyurqO8u/fLRGTY6iF4+PF7566MveU0Wpt39v3PtWnVrDtpUcXcYfQcPl71B3yWvUZh6MMSLznxbmIg9KUrLWhIdoM/cWNl6rfpleUV1c8O5dVXbFm5tZryuy8sqrsq5+qCj/6WZV8cIjz++5biqvrjWNebpy1CFAfrOefOuCt3Bc+RaNqfI6LHxCACsnf0eyeREdaxMdhzHjwjLUXfMWtdd8xOqsT6h482580tXyqG47iVWJyRy3vIT9miICKLE0fa61pBpjTgA3qz4Sh9nUem42J4w5TO+mEuOz3uaFrwlA9LqGpPfC93TcMmK8F5RXEb1S+QiENssY65ajHpWrMZW1NpO2a6lR2UaNAP2u1mIq2yLmc6m8JHEbMPnPGrH5ZtRhCuD716i7qBSNV9G5UHlslr8g4L+HPTVk9cm/Nhh5DnaaqWjVRYLxoybe+vD6iavZ/MQyUITFmzc35796c3Ppl4/WqMlR9Lo0vuhVyXii0VqLFs2Vt+7o+tqmrQktxhxE21XPyct9IIAyH8kqGquIn5MdfW64mCoeVWJR8ifszjEfp0o22Wwunmt+Y25RVGRWXKVkNuelAxl6Ymn7FScrntWjPBypYn9Drw2WV6IVyeeG7JYNY7lt79CIGPvbVR/RbCPQKJx+tIDAQiCxWfQWrVa+R8Z7wGy+NXzGrvubxVThbeYQk24kUCwusgCwLisfeWXnDcCQ6Oth7Bz3F7zb6hPxDu2Wf0AXgq3d98WwXfQSDqQC7IiBbRaVkdekRmgdgYz8ZVNSBR3jSRlQah1C+U8ugT2BzwK21eRtF31EvQXVaEHAbLyVGgVqTGzmfsC3lHdn2v+bbawMVCbmw8kP12LAX/aS7AGxLZWrNnl25usbLXsCB6fBaN/BDbHxm69Z/hCKFy8KOxSVPeDSNav9ZZM1ano8K3uUgcoXC4YMHPykzrdqNBx2AC1J5lm8m4U5/00iKVqbttuyikeyjvWmMhBPOvQMZa+fnf9gfh607MiblO8PVGHUj8DhtPsoyj7IYcc5U/bx2TdbP6Dt5vxnLnOf7Ouw7P5h3YbnJwPjyh44hRIw1hXCK/Th9cAt5oP+Yc9PmEKuX+AsemFusgTosKESs/Z9xOOXlSXAQ58JobnbvRJoO3li5XYCEwHbnvW8LmX3ZD/ChbZ7r8/ZaH5tdvn90rPzy34rxYwDpVfDrphfLj5dAdeVt9Bi5avPDQTzneQz20UC7is/PPbc8P7k1J/fnZxyqvRkvx+f/DH2x2IoIsjvzq8gUFei6fdlGJQC9I18c0+yquCXLuGlJb6732Nk4qO0FUffnxy6t+K8PKGaZPXHLx1OxPgkze2WEAsvrvjc4NF1cyBQc6ZfRT1nPdq4tHl443K+pdf32YsHQ5+/fDCHvbeGNSzx/PnDlcV3r1a26+wKG8l0NJxb+rniEpv9BUwL0xE4mYdjPbos2VOFrUVe0mbeK/juLcZzc/mzJ++fZvU6/Bo2swjAsz+gW3wm1v78I59YodbxW6+eaUMrsCmvPMdsftfTbH5kuWdYZq5eOPbHd9hy+RPtBpnZfFHKtrPfDEz8UBmQWo2wtI93Mp+ak24Xohf77sCJkiGXS989OlP8Hsk3Pu7rG/LyVaN5xLrE/jZLX8B7JxCSbV5pflHVk5h9xz2z+T7Jef4788vzVeZPfybmfCxvOruQpDGdG/lLfnA51h1/UfDLjWf/6fbIS3NR+OJzL48JNjw3O8yqRM+d75FpNl8zm8sXmc2lTodvXU96Y/70O5XXnu3Pyr3yaFGyYNkjOMyhRoMaAnsmy8ky2C0koC4gVmWSn65fm2Xv0WLwFnQRSLFxQ+hFywGtYY1/FeuWT85o7aaE44D9aEitvC35O3aTngHU0nNKrb8dyVO7v+43EkPUW/YG9nNe4Jtlb0Ege1RlNvdIPVk4ZuZxwI2YzGtXOTZkluDQgwIuO0bSRXOpcnEllp+tQPGHipdm8+MJqX/eEs3/8+Vxp7VPMX7XQ/x+nUnj9OvZJe+XqNcUz+2y+O6nOenv8cpcfZmBjOVzp7SSDbEbbja/zAJKCRNvFgyPfVzSeCVJVwbSGS/Rbx+Q+8kczvaPzzE7b8h5fcM//Gxcdt6ZyeRWv7n6oqKwE+uVnVsJ59UViLz+Iv21+f6sYmDkoL03Jjaakj/R+fvnE5cfqRjL8mAx87C52m46YEisov0rD7wqL1pmNhcF3TS/SQ6++DDCdebZsbvyyoezfY/er5xo3FJEoKRryEBK19CRZLg9SW7mY+2Xl6Phko8ku0k2Tz+Hup3V0Bm0t81VzwMsB7OGNf5jGGSdsxu2VaDl5GuoSwxamzxa7YVPLQxqt7yKWv13lmTPxsQykK4mX7XlE2zXV4FLgJwVV8JWRLA5duK1eu1+rBgW/nBF/KXHK74wGOdK4fOxppgX7+wnf0T7kPeYe8y8i+2/8/qb5b0PUX5Ty9At5S5CT53VvvxYenHpWZKyJAdrLXkOefhDRJ19i58vVO5gv/n18puwvZnAxMPAmJ/eY97P5EHXEXuvZ6OZqlBrSgXmXgLK8HTD2ytmXujht3md15E6mPoIK86Vk9Mtb3Wu+GlxCzqP2nM/IjKH+dynm83vzcNPvQR44a9RhzxjM2qIpu1/jsdleZvN5ntJPxdReeY/R61pxVh6ASh483ErK4//j1WJvDig7fw32E3Nhtn8bP/DN2VwXZUDGzqHuus/og4xtu2iz40bUyi1yYuzAR7sVtI3i6lsnH7w89fg2b3zx1ie1rDG32F+eXGeufyqxMHW5rJtM3fUX3QX9ahiNWUDAtg9PpK3dkurLGNyG66psgy3s9zEX/kJ9mx87upKcLY8R9bTD2/N1XnjvmT7dzysNv8cl2s+MmxHWXWdhWWwo4rK7hkO2m0m/L7peelV0aRBB6rh8H0pDpazCm6W9NpjPtuYdbIsrqLKTMw94xnka15g3u6iTfS9LuqPdxnt5lMD8j2x1GLWk0o+b0YFHAl0decBzdd8woiDL05VmG9Me1hanR1EftJm+js0IVBsvfYphKR2mz0Fz4trL3wOLoHrzFvzDbP5qmT+gcoZpu2U31xiO/KoNkvNkG55QmBn5bqzPPLKg/kOCwtQe9MbaBOe/1lsNqt+uWXuw91adZM1ZnVJgRzNY/uWxf9R9Oxd44X3YbPoHTFoJeqSVWAdSJYOJXbdaF/LrazFZny74R1q83tBLhbiSv7dx3SOO81v7w/6cgmtUdPD/OJyT/PLy50b1LW5Xq9xW3yz/BHsqKVvuPgt6pHUdWCdR8Q2diRT61HFsszLZIPWCaSOxA5MBrdYdOfue7N5RMWnZyt+yjbvHrLm2e4+Kx/s9lhbtLtf4ptiVQIx0JzXlgHvdgQgmxlVGHgQ+GAujyhF6chZx8ox74wZVDtXRf6Usbr56k/P7JaXoMFaAiG7ZULA67EbOFxcvvCN2Tw5uoAai8V3YLOVykaMV4v8nd088njMOy+ogpCAt/hUVajZfLxZ3KVXv3Smz+zWiCqYQNL4VVN23it+r35ee9FLSMNvouxT+SOguH/nxY+mfMt6ZhmIFr6A/aL36LH9U/W5B+Zh7Ddbj5WlNln8FG2jAP+wB8FsW9K1qqju5H9tFnxEm43vzSlXzEMIZHXCLle+akblrj2XJDV7pcbNbn0lNWwEVgJm7SVVqLuSTVyna738AWya8+GtMCLz3muyu+Zp5jd3dCx/a1jj73BqZZfduq4j2g7Z/XlY34J3aLy0wjKKh1V8Nu2L9VRa7jOyXsvlVPlWvCbQvUbHjblXWB7HCs29l18F2i9+h/YbgBaUj90CYjmWljMvS6CiSsrG+fqnALtPPFpfYTaPKnhLbHb77apnT8xz+qUWv2lILGa/rAwO6+hYbGzw1HfonfQSlebX9yorXhTMOlAMm9ElsF1I0nTpawwIKYUwhOQuHc9mTgWUwa9w7m112etP1b+OP/Ayp946Ov7MtxizrxpFH0rPvXr1yLn7ug+FtrOBgJ1leGv+eI38sdB/Q8Zs183UAJF8t1laAre1pTh0t+oTO7e15960GEUNi92Md/COr8KRG0/ZzJbuW65WPmm1lhoJul5ewZ9wsbTqh1fmR87zUp+8rEf+tRa7fpbbQqxhe4N6qz+iAZtSt4QarMUvLfNfm04+ARv7Nuhh9EHB+bN72fGsYY3/FJ2+bZ/VpJYN6rZSovXyIjTcTH5zwYvPPbtsqBuxKPNRtdig9SVU6QmIDiSBe+35aI65Un6O5ZHz4GW/fQXmqq4HPlQ2JbaxIdastarCUjHrryRfS8zLBtzXou18YtdZ8R8SmT8kNSkGrtsv3fPmsEs0/W75R6rQr+jYBFJ2i4RYckhKCe1GUvLTg22b9z4LXnWovCLqSnnF1oPF/Xcce6ZYeeN9Wb2NxRBGVWPjj0UXMysr1RXmKs9F56p2to+sRkBkGc7dqfr43vx8SOH1646z9laWfkMNh2k7sO/eJ4uf9l7we/NxSQ+Teu4srey7t7Qi9UpFxWuzOZDAWH/h+eoLTTdWm5usrq7enlld+aaoaNk7s3niuXKzuf2qsmp13AvEp1V/yH9d1cNsvtgs9UbJG3YbiDUclnHOy9i81udkH95bvGhtJtOXfoA9AbWFdixsbOyhlBnw/t6N5+bKJ8uWL7feI7XGf4jmTTpl2dZtiVr2LdHGtBhtVpTCMm+SLSnCwEKtfy0CTB2Swo7r2X2/j3DbVo3jBdUPqRJzKTU0v8+aba7M3LH8ysdNikQCMzGVHVVGx0WvUX/xM/K1r1Bn7VvYbCSGXmbGvJ+qX7wz35vAjr/1onm9PKz6nS2bnL2mGnarSb6yIXWMgZe9w5BDlcj7iH3kY1vQsb6lJDGbn1Iy1zv7/NPBYfurK1sSY0dcqSJP+PK1+X3+92ZzWtC7yk/FE355h1+uPaft5eMI53XZ7w8/r3zOj3mAFhvvY9V1c3l+hXkrba9jNuc3/DX/iVvGy48sb8mhhPMNV/2ad14U/BQtVlfAFPrmRLX5zRLzh+Ld9H27j+ZySYcp+b/uuVuNj2YzmxDvYDYXd3705v67PvF0DUlxsFFQNsvek+r4AFs2YIIt7cI6jUhatxwcjUb29VDLxgamgEF49vDmwZKXz2c/KH62xmwuqGP5c6xhDRbNGtXJsvvGGw3kM2HXoCMc/deiyYZqfLv1I+qy0TgLPw9vsyd5ZpnUPe81Gq26g7D04srTTx4/PPjSXLq/4HX58bT7r8fvfvC84XJiwqXVlrG4bI0hNmSvNqugrMIu/gBHYmTJgtyDZnNZ27y3Hzf2P1z5yY68W4N1BFDap9byt2iwoprYh3zpxk9ot/EZpuwrfpN6s6rwj+cfnlwseXH/YM6r+zN/rigWhBBDLSwij/cc045VI/1ZBa48q6zad+vFu41/voAhqhKb/6zExfxPxWfuV5UcKHr2bMmZyk+tlpJSWPwCbUg2j9xh/nTqRWXpT3kVY397VrXi5puP93+48e5+15Bbpc3WkGecT/J/eRXG7CgvP3/3w7Pjjz583HG/unDn8Vv3FTPuls8+UYkTBR+LjhZ8Kvnpzqey8D+Lza7zH6HWfJK1xKJ2a1ljx5IZTbeQFVj3FrYTTqN2WwUa0fVu2UEDU+BAZBYU7D1WYK7z+v2T8PIPT5Z9+XusYQ3ypPVsshp28EDjaWmoLR6HOk3d0SggGA3m3UPjNa9Qdx2Bhd1+IQastbQKtee/hT2BttmKD2i19JnFf7KOpsbLzWhJ4K63/A2xJZs5UvlZ7llkciWaExO3IbD6xX6sXnP25cyXH81jEtMrUZfysFlRgfqryLuxxmBVORqzEUQkq2ttYMB+g6aLSuFEvq75gsdoQ160E/nV5uT5as97j9pL3sJu2yfUXfsBzZc/Q7P1H9Bwkxm1aT9bkstsfG6X+ZVoMacSjZbdQ5t5H+E4k4GGJCedT3OS141XPkXDeU8/tdn0Eu23FaHlyhdoQOVlU+1sGcAWfUKjNWa0Xf0cTVcWocWWarIGb1F3zntqyJ7i20Uv0JaY/1tSIA70ng3Ct9tKjdtCtioFNVJ0DeqSr29HsrdtrzDYtxSgdhdPtBz6A1qqv4feaMSV9EuH2P/x4uPDzS+qHm2z/DnWsAYLqWOt7DYdOajD/OjCEjR26wbbhi6wk8xBw8nn0YKkmQNVWMvABmIDtupC40UEPGI/O3q1DMdjDEuVsM66l2iy7CXsFhCgyYeyWzWOxMad1jx46xV1+2rI5XLz1F3YwI574rE5aP0V8z1nYpZac+6jLnk2Ns2NzSBpygbxszmqlgnWlDd544asx5kaAotkZOBfSWAkOdyYjm0ZGL+Y9mXlYrc72P3cRVSe5eWwJV9ss6qMyvjBIrdtSX4ylrMsNLb+DZXzJm17DXt2DmzGDxvkz8Yss1kuKz7iG2oc7Clvu7UfUWvhG8qXGiDLQHxWDtpv7SvUY1P32G8W0/FZedfTuax9Alt2nKVUjjBi0GWFqKNZDBu71mjUvD0ajDuAxpvoeLxZ8DHp8OhulgWkzysKVpdV3N3M3lujhkdhWYXv5TJzo051bK7U/1aJ1gsfkXdiMzVeoqnfIjSv1wr12nihSa8dxJgPqUJRBWQ9llQha7N5pBsIiLQ/myfKbtMwVrIneVuXLTVC4KplmRlSjQ4b3yI0y0z+tWKM2Zwzix2b/Ftj8nUBj83mPeN/vI9a028TQFlPMP2GdVj930ysc4wNiLckAjhLrCeb3XIiP16HyuRILNlg+UtKpXBY9soixRnTM/9sv7aCzrkKjgTwOnQNajHwElBtV1ODw6awLS2B7dCfYdclEHXsm6CeaCCazL5gGSjSZB3lpRiDAB9vFOZnHL333tzxU0XxsU+v01dZ/iRr1Ox4UvZhidn8Yam4Y+tbDg0FaD3vrqXS1t1YiVYrC9Gg50HU7xSAevUd0VKgQtNBwahDQK69iRiU3fJYQyxAFZON46278j0cV1fAkeRhs/WVqE+f7ZgfpUrbZPFLjDpageDLJWU2vX/o32XqnZFzD7zccfgOsPo64L7lFrHNHWI28rIMHMTY/wlI/4cT884WWW5hbXplTMy+I0avRZLZZgl9z5iWzt1ya4gAZj+XvPCSd5b7nZ9/Swy8mlh2dTUcaN961KA5jD+AhqLuqO/giMat+GjSNRZNFr6wrC3MVm+ot6wYturx4Lu5lWb8dmhQgdnMraysKPr49vb6L3+TNWp6PLx1+UKPQA1JsE5oNPbs59UFqHLZrvuEOmuq0HhuHhr7LUPD1lLUdmgGB253OAxOQNP5eWiw9KkFiH+PoqHKWntFJW2rRi2SmrUJbLbsu7kE5nlvUIcqZP1lT9GMtjcnKVxvBvm56R9Qew6bsE37MQCw1/8HQGoB5d/A/JIYIxKL1iJlwDq92PnUpVSPAOpg6bl9CftFxIQL6PzY7wi8bBpag7m5aDRkFxobZqJRMy7s6nVBQ9kYtJt9FQ3ZrRkCsc3SN7Cl/et8fxt27r1Bf8VB1vP84mFJj7KyXNXr1w/+XvPYGjU4Tp/+bdD3s8Y+at+5OYG0Jer3jMe3a4gRCEC1qJW3Zff5qFKy0UXNZxSgiX8IHFuLYV/XFnVIujnql6DJ6GNotuwxmrEKx0YAEYPYUx61F1XDfiGBnBimvmURr0rLFDfLvdYtzMcxFqb3c6kxIGDaryf5uJa8Kbv18m/B838rfQGppZGic2aArL2UgElldtjwucFyXFKJxgsr0YBJe7YcC3nc2ltoOwGv+WryxxPTUNcrFvW79EDduvZoVLcOWvKno9mIU9RAvbWskm+36iVdI2Jb8rm25L9bTb+AWg3c0K5F81u/7N69pKq8KrTocWnfL3+RNWpylDx7NjQiNORlm9bfIKhvENxlGjh06gbXOdfBhsfZLmFrGZG/XEit/gICE4GvIYG22aSLaKhehPptPGDr6A6H+k5o2MUL3/guRvNJJ1F/SSEcSMrZUWLga0SvDZi0Y+N+lxMw15Nn20oVfDW9J8Cyjij2TBd7ks12i9gyJ3Ssvxjt/2b6AlI2Dc+WJK7dsirYke+0W0qynXUqEXMyv82UARvYwTrSGhE4G8/OR8PeyWgkGAbHRk6obd8C9h0D4eCzCfUm/IG6JH+ZtGXXj60oWHfVG9ReXQVb+tx+RTEayCZYFhdv6lgPPTx87l059efSF0UvLItqW6MGx4MHD4adOHHiuU6uBpfLx/rQTdPiU2KLG9T9BvVdBsF59T3UXfAKDWZShWKjY1ZVE5O8QaO15Ra2ZH6rzpz7qDPmPBr7rkLdDnrUcmgJh0YdUb+tFPa6ZbAZ8TvqzMhAo+UlaEqVuR6TeayiEhDYerxslXnWKcMessSWBq1HUtmBrTHEJOZ/BND/6cQAavGVDEhsWZZKOKyogMOyd5beYcuqDSTFbQmYdZfcQ4ORB9HYtAhN3PugdXM3NKzdGDbf8GBjnAy7CUfgsPKh5fEUFguw2Yy6myg/krjs3NjCZ43oOO4rX6FF102o4/gtpowaiMCgbmjcsBHmTJxU+KGsrPeXv8oaNTVOnToVMmLECHRo0Q579/706embl8efF98cMGfMdy/q1ekIB/Uy1F/z3FI5mTetu/QV6ix8Ccc1H+HAOozWvbXMiqnHJO4GkoOLH6LO6EOo6zEXDl180aB+BzRr0AYO37rDrr0n7BUz4NgvGS3GHse3U7PRbEE1GrJ7qASE2utIMm4kKWy5r0kymIHmC2D+Yre/078F1tek/5gPS38dgyXmg7+Ait3TtCPGc1jxlgD6Go6LStCq70408VgMO25P2Laic2rUDnaOrqhbX4V62umwHZqAutMuogH9pv4XX1pnTSWx5kfyr9VovvQ1GswvRa0lpCDYNVv4BI36JsOmPhf9/VR48zQTh4+fggtPCU7HDpg1cUzIl7/KGjUxysvLR6Wmpj7r0KED5syejYKCO5Mel5WpnpYUR54/cajHsCHfvW7SqBka6seg8ZJidCEmaMwmgbN7oWsqCJTECnNfwI6+q73+3eeB7VTxGHPUWfmWKuQTfEuyt1nfaNgbFqBWp56o1UhE0rgjGjVujcbfuMC2czfUEY6Eo8dKNO77AxqPuY6G00tRn5i7IXm9hmuqqZGgxmG1mfwtedU1dJw15OPYzBgmHSmxlelrs+OyRAzHHv1QeyltZ4n5SQInm6/JlgC1JPreMmKKgFiHmLzO0gqS8uWoN4/SLFIOU4+j3tj9qDcglKTqbNQS9kTtdjLYUkNTz7EtqQQqdwcv1FFSg9N7O+qOuQq7SY/IV1PDQuWpQxK2CQGzEes4Y/6bJLMtWzB8JXtPyoEaJlvm7cmPOnZbAZsmLdEtKBDXLpypePvm6esnT55UhoSGwbGOAwb27/fs5s1cy+wba9TAOHLkyNwJEybC1c0Nx389+vrt21fXH+Y/bEOVRPzObG5z6NAPxkljv3vWpHFT2LQKRLPxv8Bx80diVKr4iz/3btrOJX+58rNcZZ0ftmx0zTySxFQJGxFY2dzKOqsq8M3qN+S7HqLDrD/RcmgK6vlvgK1iNGzbO8G2ZUfYNWtNqQ1sKdl92x7123eBvYs3bHkDYEterbZxBWy7xsJ+wE+oM+w0HEadhu3Y3+Aw7iTqTTwNx0ln0Gjan2gy/QKazriEFtOu4Jupl9B08nk0HE/fjyHJPfJX2I84iob996BZj1g0oTI01k1HY1E/NHQxoEEHARq36ISmjb4lT/kt7Bt2gG0LEWo7+aKeZBCaGKeiSc9daD7sJJpPz0HDxU+pMSLvTAqDda7VokaiFl0btiaxA3luhyUf4LiiGg1INv81/pg1Dmw4YJtpGXBwG4oGLVzhM2AgTvx+/IHZbHZlT12rqvrQIyP9+muNRg0XF2fMmDaFriTqfvnbrFFTgipEw9WrV28Qi8UYMXIkyJcOefPGMmi9/uNH9+9RYmv12D1+/KDv6hWLHzo7dUHDziY0DtiE1gvzidk+WkYQsSGAbDZHA2KtVksq0HbJO3yzrAr2bP7pXzKVXhm7MnBbWI7es4EPdsQsTRc/R7P5D6jSX0LjEbvh0JXAqB4OO34Q6jR3QZ3GHVG3cXvUo9d6jZwIPC6o39gddem9baP2sG1IqUE71K7fFrUdW6NWvdaW19qN21BqB9smBLQm1Ag0IdA3daLkDNtvOqJ2iw6fEzUQtVs7oXZ7IWq3FcCO1w+OfmFo1DMRTYcfRZMp6Wgw5xEcLOsRvaWyV8OO3RumxBic+UrG2LXpGjjSd/UoWRbZpkbK8qzUJQTghRWwXfzRMrSw/ZpncOwRCptGXLRt3RqDBwx4cKXgyXW67k5P7t/XFBU9tqy5e+nS+YGrVi5H7Vq1sGLFsorq6urvLH+cNWpOvH79euS+ffs+8Xg8xMXF4enTp5Z7cVRZ6j159HAf9u2zff78Oe/tm9dXn797Nv74H4d/99JoHzs5U4VuJ4VD96Vosvgmmm4gL8kYcyvIgxE4FzxDrbmlxKpviWk/wH5JJWqzirq4GpbVE1jlZZWYAZeSA322o+SwzIy6Kz6hPoG7wUr2IOFK1GerGbBV6Gc/IJ+XDocJJ+Ewej/sR6XCcUA4GgWuR4PAdXD0XwMH75Ww9ViG2qYlqGVYCBvTHNh4LEBt3+WoR/s06rEVzfqEo0W/CDQYehKOI9PhOC4P9ac/Rv35r1B/OYFoLTHfejoH1qBQA8TmzTK5bHnGqaXspBg2kMxmw//YkEFqgOypsWmwutqyBGn9+WWot+gV7FgDxX5Hv7d0hBE46y18jiZDf4Vtp+6o62ALb28N4pNi0+7fvzPKXPlehzeF3zx6cD8lJ+fzAuW3buX1PvTTj2jerCkmTpyI3NzcMWy7NWpQ3L17d3RwcDDkcjlOnTpFpPl59b0vUevx4/t9nj0rmlhd+fHww3sFEQRev+zbmYuWb5h7xI3TvrhOPXvYdFLCpus81Jqag3obylE3mIDHAEjerN76D2i1+hXYk9PYNgZEtkSILXssxeIK+vwBdZa/I8/5iiQjez4L+UwCtsXvsjwIJPYkoRkj25JctAzOZwtZbySwb66yTJJ2IBBYfOWXZHky+JfE7tEy6ckSu03CfCi7FWTHQLOmioDFJl3TK+XfiFiwEYGw4cKPaLysgspEfnsFG8rIFgKnRN6SdSQxv2nPJhawhoaNGSYg2pFHr8OGAq55SWCm8rMxvgTeBnT85mvK8e2cbDj2TYVN5yFwrNUBRr0Bq1YtxJuKUpjN75c8e/Io5P3Tsk8fHj92uX//ft3ix4+92B9Aqsb9t1+PXhHwuQgMDEB8fPwoyz9jjZoTly5dGjVz5ky4u7vj/Pnz/w6kFy9erMda9eKiJ4eo4qjLy+8Hfah+//pV8YvNtF+rH68f2zp+7SQotVzwuUwyquEomYimA/ai4dyHBNhPn+UgAe3vXlWL9KNtjI3Ysivk0dhTt9ljF2xWfbQ89sECJvoNGzhfhz1Cfw3rHCLWWkPAZMz7Bbhs/Cx7Qht7IPHfT2gjoNnRMWwJPKxTxpY+2zIZSsnSgfQXsCjZr3hJAC+1DCaobRm+R+Cn/C09u+xhTguoTMs+0nckbddVwWFdJYGwEvXY09PYgHr2uEMCvQW4dGw2GondTmpI59yQwN9owUO0nvoHGhjmwqaxEJ078tHb1wPTevrcPHfmXEJRRVXJo2clue9fPnhX+TxP86Do/ZwHD562Liws/ObJowchZY8eta2urJi474c9iTqNCiqVEt9//70VpDUtLly4MGr69Ong8/k4d+4cqqqq/gbps2fPGhYXPxn0iCpL4ZMnsSVljyPuvc7sUX673P996fPQso9Pzz98UYCkXVujZ/X032bSC983/8YRNraNydd5oY52MRz6HUSDudlotJYqOFV+y60Ikn2M0dgQOMuYV6rkFoAxcFkARsxJjFZvaTXqL/1k6ZhiYGQAZLLTbjmxFslKR7aSAXv8AxsQsZwBnXwggcTSg0vJloD8b3t3LYMi/hpAQRKcrW7vSKmOJU9K1Ig4UB5sYDx7tfhI1pgs+fi584ex64oPaLSSvOWaN6i9kSQxyfu61GQ5UsNSj9i2Lsnyb8b8jsZ+K2HTsTts7NpCyhFhYO+uGNLHN+x2zvVjZnNlwTuzWXW/5GWv/Gfv5MX3bwy6//hORN6TvL8fK8HiWWGhe1Vlxc7fjv96SSGTgkMN6agxY6wgrWnBmHTu3LmQSCT4888//x1IiT2bFBcWzmPvXxYXd3paXDza8gXF8+f3Ays/lt3Chxcwv38dyTzsqbuXX67ctxZtg75Fpx4t0UjZEDaODWDTTIi64jGo0yMM9UYeQr0ZafhmYwXqs1s1bIQRAdVu1evPtycIKPVIejpSqk1gZcBhYHIgoFmWGWEsvIjNsGHgpVcmQdl6wGy0kmXVCJLAJK3tVldYmI/dirHIXTa0kTElY2PabrOR2JDNS2VMSJLUwtDLqwmMFai34A29ltO+bH/6jikAxq6UD9vfnvJk82WbELCbfV+CVhMvoXGPSNjKx8FG1Bc29TugTVsn9OrWDSsXzcHahTM2l9691o9dtytmc/PXZvO6opdlfSwX8ksUPLk/+c7jOy5fPv67WLdu9UA/Xx9wOByMsYK05gUD6Zw5c8A6jv6j3P2vorD4XiT7wYvSx/Elb0u+LTS/HXLu+R8feib7wHuvGAOPmdBvkwaBw1zBFzWCbb26VIHbwdGpF+pL58FWtQ4N+u7ANzMuEQM9tzw2sCFV/KYEmkZsnDADL3lPtpoDGzfLZpYw/8nkbR1KdSk50vZ6BFx2q4eNJ25IzNuA2NVx+UdiWzaMj/Znt4ko1WOJ7cvyosQ6qywdVgR+JotrMZZdVUGAfAs7ktj1aR9HAmg78tiNmTSecxv1ZmVYbvc0CNyMOvKJsO/oA7tmfNjXbYzWjRqhY5NWGNinL0aNHrwuI/Pqfbo8K9i1ekbKo7C4dIHlwn1lhIWEjPH28rSonUmTJllBWtPiL5CyCvA1IC0tejLi48cPDyvff/j7cXzmO6/DnpXlYsPv0+Gf4orZ97ti9i1fTL9kxJxfemLIEhPUHi3Bb90Q7o1aoH2jNnBo1hL2rThwaDsQ9h0GUcWfA8cB22E74lfYjLkA22n5+IZkZLOlTN4SO64mf8gYmA0pJEZjQxIbs46clZ/oO7NlIe+62+gzgZx5W9Y7yxK7TcSeI/p3Wllpkd1MqjIJ7riqCvWXvEb9BcWoT3662fSbaDn0FOr3TkZT73lUrn6w6aCBTXMZbOpyYVPbBk062UDZ2w59FrXFlBgVZkX3hH6ICEF9A3H85+OHqj9WD/lyaWoVFxUFFxcVP/zy+avCCtIaHl8D0ifPHnYvKntkefzei+LSWLbzi4dPL70qfP7Hu+LX53Cz8pX548exfxadquye4g3FLldIf+gI9f7OUB+WwrjPCNM6JaR9OsEnUIR16xZg14EURIZvwNJxfdDLg4eOHcjTNiCZ3LA16rTgw665CvWdusOhU1fUbhcEG5f+qG2YgYY916LJgE1oMjgBzYb/hIbDf0Td4QdhN/wwHEb/hkYTL6DZpCu0/Vc0HnUMTcb9SukIHIfvQ+3eKbAJjIeN7xLYeE1HLe0E1BYPgp1zV9RpY4BjCwXqfUPHbt0eNk2boElTeyjEbTFtZC9sWzIPO8KjsHVfIkZEjUXX7VoEHndF72tcfJephfFQJwgGOGP40BGYOHoi3/zu08a3xcUt2TW7f//u5Dt3Ciyr3H9NWEFaw+NrQPq4+M70R6V3fmbvXxS+6FBe9Pr0yyfP170pfGOoevbWGy/hcaPs7pmNpyM/STcYoEwyQJSghCxeDWGqDC6JAsiiPaBeEwDBYB0GjR6Jn3YcuUvHlOX9HMVfO6e70M/QThkfs23P77/sr0qJ3Fq1fMZU9Btogs7bDc6cZmjeqh4afFsf9Zo1RJ2G9eHQqBnsG38L+6bfkuxsBduGbWm7Mxo3EqFpEznqNeagbmNn1GnWAQ7NW9N+LWFL+9dt3A5NHR3Ror4dWresh/bODeAkbQJ30zcQdG8Fgce3ELi1wroFi7ArMnbF0nEDFLezbqe9elg6KevRjfuRGVsREB0AbrACTrEydIrhQr5DAt0ODoJWeIFn4sKju+7WvVv55ndPn6eX3nv4U0FBQZ07d+78pwdA/VdhBWkNj69j0vsTC5/dtyzW/KKwbNOLh2WLLF9Q3PmYfyj1cWzepJ8mQLpRCmmEDOpkLSSRUshCpOBu6wh+fGcIEiRQJPnBFNIHnbvz4NXVo2LF0gXJdFzLurJmszmAElu1fcoLc/nB7Oe30XtfL0hihBAHCyDdJIZmkxLatUpolsogm8OFaFYnSOZ0gnJBF+hmO0MzwglC75aQeLbH8NX90XO5D3TzheDP6gDOzDYQz+kMzVwudMtF0K4RQbNRBEUw5R/NgyCJB/c9HKi2KaANkKPHwD449tulh08rzBlXynLL552ce0cTzP/gkdAGorC2kJLMlScE0vn6wBDtCVOoAD5b9dDN0UHaT4Q5K2a8KcjOnVTy4MnRZ8+KPZ8+K0q2XLCvCCtIa3h8DUhLyx5Ne/aicD97X1ZYFvns0TP2CIVGVwsvnN5xIxnGWCXksQJI4kVwj3SHPIVAFC+EYEtnSJP44CRx0SXSGQL6XhotgyHGANUWJfRLNNhzLKns4vWziTkFRWzNXnlOWXp8Qn5wuSf93iWcA/doOfgECEmsHoo4I9RxJmgJFOpIFRTRAsiTBFDtFkC3WwxtrBSq1WIo5ojhuUAPj/Ua6Klsyl0yiHaJIdguBj9aAvckJdxTNeAlE9MnqqncCshiqMxRYugStNBHGCFbKEKfDQGYf2gqBu3uDkUqH7z9TugY0QVusUJIklQQxkghihFBRfmqd3Ch3amAOkwN9zGu4Pm4f1qxamluacErp1ev3smKSgr3WC7mV4QVpDU8vgakz58/GVBa9viHgscF7dhnAlPrG2Vpf8SmJ8B/oy/ct1Hlj2NgMMApzA1uUVwI46QQx8kgTdRBFquDJloBXRhV6FA+lHEi8BI56BTViZhIhK4hgdj4Y1j50bSrr9cciTLLg33RPp5+Hy+GnPJSxnGgSeRDlUANQaw7BIkukMZJoIzSQZwkAydFALcUPtwS5eDFktyO8oPnan+o1xnB2yQAP5IHabIYwiQRhClySHeIINnOIUnuClGcC4GUPDQdQxpLbBpH8jrVjfbnQ07nogjhQRwmRacIBboke0Ae7wl9ogG6WDp+mDNEIZ3Bo/0EsXJqCKTgxZHcjfCGcpIGvsN9sX1/UvZb8yMBXbPOlotJ8f75k/Z4eb/J1ee32782V2qLi4vrf/nq34UVpDU8vgakLG4/fji84Mn9cKpsmsKygl9XXdiKDhFKOEVw4UzSlh8nhDzZGbqUTjCkuENNTCOK9YE0SgMFAc2wWwlxooxA5QlutAncSBm48QKq+DwoE6XQrVZDMFoMl+9cIJ4vg0dYH/Ta6YG+B9ww/JeOmPmbFNMP+aH/Di+oUnkQpRDoYpQEDjfwY10gSyKZmuoJKWPFRDEBXGZpKCRb3NB7Mwer9nsh+FoQZqYr4H3MAEmqmljVHcIIJ8jpVUHllyUSE1I+GmocxDEE+DgtnZsaXYJF4GzjQxbOhw8B2zPBDepYLklxAZWBgB8tpsZDAl44ye0EPqS7PEk+GyENVyNgoyeO3/wJd8puXaRrrKfr51te/HjLm9Li+ZlP70W/NX+48Lbk7bdfLvO/CytIa3h8LUhZFL16uqSadgw+GwGvmEC029AWosTO8Ehsj567nDH+pAazLvrju591MMQJSD5KiCklEJFsVaeKodxBAErxoIqthSyBQLXLHR4/u0NEslOSrCHJKYLbLJKlQ5XoPlWJNX+okFCixbYSASZf6oA+B7gI3OUBRYwGnFAphJS/mJhPGO0KbrgAomiVBWjieD4kJIWFJH8N203QrODCb74LJiX7oE+CHEpiaQm9ShOI2YlhJTE8yo/KQfJVu8cP4lQfdNlKzBrBQQCxbs8dHAz+gYupv2sx9qQf+v1kgHG7DAJiaE4YNRgxYpK8ShhiSSUEu8N9C5WFKQjy5tJtcvSOHYQF+1fh4s3z+Fj+IhfPKsY/flIUVvi81PLEtAcPsrV3X9xtbLnI/yasIK3h8d8B6Stz+ZJ9L05AEGMCb3M7+Me2wdDfeFh3Q4aoAn9syeqOcYc08CT/KQ/tAmGkEwFPTGwqBD+KGJLkqjheSfKQWIvYy2tnJ0zLJll4SgCnvV3gtFMAU4IfghZ4whjYGYMnd8aC7SrMOC6F5w+twE1sS16QGHKLFJz1lFcEgYGOJY5yo1cpSVE9eVQlAacDuh/WwGO/GrxIMYzRXtAt06JDn9bQT9fBK9wTikg5xJEiiMlf8mP4xOwEbGJhUaIRbtQIGAm8E35RYGuaB2JueiOS0tY8Pwz91QNB+7TQJbNGQgAOsaswWgQ5qQG/JDnlTdJ/C20jJucnk9QmtcAJk4G3hs5ziQ/Uw9S7H918dJQYdXj+1dvayncVEwuf3S0tfv6Q9+Uy/x1WkNbw+BqQvr7/XGMuNQcczNs7bvSJyfgm/Fv02d0J605IsDXXiJj7nlh5WYXv9grIj3HJywkhIT/KJCkDjYTkoFtYZ/J/JBFjZVASYwX9QPsfU2B+jhLT77ij+0U+RKlSCMJdoNvoBtMcb6h0/jD5BcDv+yAYonwh3muEiGSzmvIzkNQ1bFdTXlxibJLMBCx1vAlS+o6z7RuMuizHuAwvaPeSp4yRwBjuC+k0LUQDiMHnaegYGki3EthD+ORjCWQpSgKaErIIHrqSX138pwnxud5IztUiOI3KeJKPoB3tII/oAlmku0XqMknNfLeYFIAomnln2kag5YTxSf5zYTokRbeTOpLnfDovHiQbJXAbzsW4OVNw8tjZ1LI7b2e8ffOqAviE0oqHTl8u999hBWkNj68C6eMy1cfn79aHnFjzmyqEB/3uNth6TYe96V6IzjZhyh8y+Cd3gmRbR2I1BaTJXuAk6tElQQY3Ao2IpKc0kQdFEnm9MAlUoRL03+uBxZk9MCdbgNnpQsy4LsLwUzxok50I0MREyb7Qj+oOkVYLSVcdfFb1hGZHAFziqbITSDQkZRlQJJEkd0M4kIcooQknlkzQUD4emHaTj6HnO2HMdRV8DhG7hfLgHRoIxSQVOH3IU05TwbjZC8poHUQkfRXJMijIV/bewcWWC0Kk5Juw85YHNlwQY/gBF2iTnMGNJQ8b6gwRyWAmccUk2SUJ1AjFSSCJ4kCcTL40WQEegVYc64R+5KOnpBsx5qwWnjuJ7WN58IogKd2Li/5DBuH4j0d2V78vH/66+ukMq9y1xn+Kr5W74afChyz4Yx6UIa2x5IwEu/OIZbK9Me+EAPLwTpCxWzAJUriQ9HONk0OwXQd+AgGCScp4IflPGclRMXgbBeAudYV8WWdMP+2NSRlcAqgJ32cKqUJ3QP+TEqh3e8A1hX4TTL52aBcoDC7wHqaDdr0ebsTUfGItSYIE7rHkGxOpAaBjyLcoIV7Bh3qtM+Zf74WJN10x4UonzMskxj4nhyzVlRhQCt06NWQ9JJD3VMK42Bee8QHkj5UkzbvAkMDDnFNq7L2lQnSGEsvoPPvt7AJJSHtwIoSQ7vCEersCikQ5HV9FkpbkMZ2rNJb8NvlRYTSTzEroKb+hR42YeU1PDZAcs6kM/Y7zyC+7wrBTD9UaLdoZvsXQIT1x/tTvP325xP8pQoODR1tBWoPja0BK/kkXlbMnq/V6d/Q5yMfONE/szDFhVboOA/Z3gTxaQRVUDl4CseYOCRQESCWxiiKSgEugFSUIoWS9sREEonADVGvVaDeyIUbu88KUHA+MzuRgRJYrxuTKMIbA0etnIRQh7FYLH9r5aviZPOFj9IRhupHYTkVej9175aFLnBukqWJoE9XwjvGFZDEf7Uc6YupvJowvEGFRngJLrikx45oRgSdUcCX/qo/ToO+Y3lB76MAdJoU62BNSksPcLS3R4wcRVl/3RGy2HKuvaYntiTGD24MbzKHzUEEep4WMdToxKc+ATYmBVEK+VhbDgS5CDN1mkvbfN8fIH1WYc1WJyTfcMC6Xg7FZGvQ5ZoSEfLcsSgrDLBkEiraYM20y0tPzztH1/+bL5f47Nm/cOMzH28sK0poaXwPSV9WvhiTc348Wq1thxlEudhCQYm55YtRROUk+PrgxWvCoEosSpZBtZzf6SRbGuUCaxIGCmIf5UBGxnYQqpzJaDfFWMZxXdIFHvBzjr3tj9l0jRqa74LtrXTC1QIWRF8lvJpKMJb9pivAi2esBrUIHXw8vdF/gbxmG55TsDDeSuQLykF47TMSIergubAfXOW0xcL8HJufo8X0eeck0Dqak8TDmhhraPTxLj2/gRj8oBlK5DDIEDPGGf7AJwpQOGEMsHk7yNPyOFgsI2Jq4LnAOdiFwiyGgsvKiyDfHCC1SV0TSWEwyV8xeydOKCKhaOkePYB1ajWqHgFA5FqWbMCvHBePSqQxZaoy5KIDpiDs4Ce4wheshGuwMoZqLtSu34uqFNEVpaWFsYWGhI7vm1DAar1+/eluhkFtBWlPja0CaVnSt38pLW+Ac2gELfucgOUuI8Hwthu/jwjWkM/gxBLxYDXlEGcTRrBILqNKKiGkkkLGOo1iSv+EkF+l7STSx1jZ3SiRZSbr2+lmCGTm+mJwtxshrHTAxR0yA0qHHMQmk8RwoI9XQzCHAmHQI0vij20hfKCkfF5KOvFAB+GFU8VP00NA2p+XtIFzrgqAdBoy+rMFMKuPkTFeMv9GZXpXo+ouMGhMCUzhJ78nEojotuvr6I3C5r2VSwNQzIkSThw3L12DRJR10UR3hsskJTlu5Fsa03N4hafuvkoiSguSuLkyH9tN5MAUTk17zwNx8Hiak8TE5XYFpmXz0PCsGlxoYfZIehnlKCEwc+Hl2+/TTwUM5r149k9P/4FBaWtqAQNrv7t3bkEjIT1tBWjPja0C698L2flOOz0bnyHaYf4aLlDyqzPlSLDurQM99PBhJzqojeRAHu0NMoFHFa6FP8YQywUTyUEOVWAJBFDEpyUopgZR14giC2UgeHlSxLhjwuwJTcwlQuUKMZvIwXYZx1w1Q7xJaBhHoV/rC2MsXXb26wthNA9VKkorUCLAOGkG0mLwu+UKW71YOxLS/lhiu7wkxZuZ5YEomD5PSXTEpU4aBp7WQJpCHDXODarEcykATvIyBMIz3gTFegpmnBYi7IUEUATo4wwuTflEiMJFAHSGANoaOEU7+2tIp9K+BKic2lRKDui6jBiBMjqEnpJiRJ8OELAnGp0kx+6Ycw6/roNxDCoP277rNB6re1IDxpJg1Y+bHgwdTmn/8+JFXUvIkjEAamJOTBblcagVpTY2vAemhtB39ZvzxPTrEtMP3f/Kw464M0blcxGfrsYYq88hDbhjwgwt8El0gD3eDjLyZIk5N8pY8GxvfGkdM86VyS9greVUR+VNRuAC8bS4w7uRgQroBMws0GH3djd4LMT1XA79f5JaxwKrNJhhHBsDLww8ynRSaySpoonQWDywkj8hnYGWNAMlqxtT8cA689vNIYnpjcpbYwqaTMsQYe80E/S4eydY2UG6VQzXAGwZlNyi6+cBrmxazTnKRnC3A9hwJtt/UIixDj4WnVRj/ixr992stgxX+P4FUGickdheBH6yBNFIGb/K04zJUmJitpPMSYFquGBMyjPA6KIBbcDuYQrTwnOgBhVqNoIBA8++/H88jcNZ/8eJu46qqDz2zszOhVMohFAqsIK2J8XVy93S/FddWo214e0wnubbzgR6haZ0Re4WP6DwjYu6pEX7XE3OueKLrXinkbLRRPKu0fPKAfPJzBFKWmHcjTycl0MroPQOUMJxAHOWMQQSG6fkGTMwUYCJ5yMkZQgz8UwMlgUoULIN2ujcURh0kCimMgw3wCfcFP0kCUQJJWDZYIlr0WVoTq7qHErC3czHyEnnTTDkBlDEpD9OyPRF0WAhufBsoYhTQjPOBTuFPwPeE5xIdZv4qRPJNAZJynBCX3gnRaV0Qms7Hhiwjpv3pge775ZCwBudfANSS4on5IwnIcRpieJL61GgNPKfCpGwtxjLJmyPE5Gtq9DshAye2DTGzEN7zvOEdRL5bq8GcOd8XfrnkNh8/vu9/+/YtC0hFIqEVpDUxvgakJe8LhkTkxKDJym8x8ogAiQUeiMjkIuq8C6LTJUi6LUDMXQ2+v6CD53Y+3MPILxI4+bGu4ES5Wma/iJPEEBB4hTF8yJOklvG6sjhivlgteOHO8PuJR5JQS0CSY+J1LiZd49KrDgHHhBBEukK92ASprwoKlQIePT3gs8GP8pQS4NlgAgnlQ+8JoGJ65TNWJVbr9ZuGwElMluZKoHfDzFwdhpylY6Y60/cK6Gd4wKTxglJmhHqiHJOPyBF9S0bn1pHOqy3iM9sg8SYP26jxGHiET+rAhfL/XzMpO6aQ3YpKklukuDCai4CfxJiariNGJ6DlCTHligLjyO9qD7pAmMiF5woCqK8aWrUKfn4+Ty9evGh5ilpl5Xvt1auXcrRatZVJa2p8DUg/mktFC06uOdlhEx+Ddgqw+bIasfkqJF8hcN4g0GZxEZKmwjiShcpIMbGJynJPUZgsg2uUC3jEqNLtEssMEV4cDzLartxOYGGsFK2yVGbdjs747rwE07LUmHxdiFmZYswhqdjvNMnipM7QbzRA199EIFXD6O8JwxI9pMkiSAkMmkQNAUgFQQST0iJqADQEFgW8D0owkfIYf70zJqU5YUauAuNvqKHeQzI5SgrTAh38PSlfmQ7CwVyMO6jFtpue2JYhRWK+CElZXZBI/ntNmhGmBFe4hQoIjFJKDKhfUgwbXP9ZJUgIoGzAhiieZLwFpCLokqhxuEFMTAphXDYHc64pMeuGCYZjrnDd7oSAbQHQ+iqgVakQGBSAc+fP3f1y2W0WzJ3bw9fPm/4j8tVWkNa8+BqQ4gU6JFzZnWTY3x/aGGcs/U2MuGwNwq/yEXqNh/gMBbZQ5Ruyn7zhNhGBVAtxig6CGDmcSd66JrOxrDxIIoVQRPHht08BXaqEWFAJ93DyiJHOUND3vY9qMDVbgSnZLphboMcsAuyoy0J47HCGcq0G4tE6mAYbofNTwjjTCJ8EPxgiTCRxRTDslMA9wh1OsXSMFAUU5Fc1KVzyoV6YRGw/Od0d0zNEmJ2lhc8eKXldGdRzZfDQ8+Gv9IKkjxb9dmixJdeE0GwpYrLFiLpGKVuGeX9KoY7hWqbjsYZGShJbRo0CG+srSJRAwMCZoLQMd1SQUpDGs6l6jF1Z4yHAiHNKTKf8hl9zwVRqAOblmBD0ixvcYjshIKordH1JeuuV6BoQiF1JqTnsmpvNr5od/+PobqPeBJFAjPFWkNa8+BqQVj96OpjtMOHKCrTe3BqTD3IRl6ZDSJYEoVlSxGYYsJkq38AfncHbxrOAU5LEhSxaTv7PAPcdVJGjySeGKOAZIcGw42p03UeSl81miXIDJ7wzpBEamLabyLsJMPl2W0zK1WI0GzNL+ff9gUC+RIH2E8XwWqQnuSuGcagBXRf0gt+KIGJFVww8TsckcLQjnyqmRkGbwIE81p3krS+xKXndDC7JTh7mU+PSl7wlj3yjZq4CKg9nBGj8oe7aA6YINZZdEiI63xXh6c4IvaxH1C2SzCe7UPnc4U5AdYrpAEWikhobA8l2IwQ76BwJuBoCpFecFppIDtQkYyUEZFGsB/lUFXwPu5HfVmDMNT5GEDPPylNhDDV0yhh3aIM9IB0ihEQvQHf/IKyetezq8+dP2r+tfnH0wdM7kEvUEAvkBNLxVpDWtPgakL4ueDTK/K7yt4mnFiRothvgkdgOm69oseuOJyJvKhCbqcHWTAm+O8LG0TLfqYQkkQ9xNEnDbXooIojZiFHkJG215AUH/qrAqN+oQodwLYPUZcRGonD6TbgAg89xMfM2F6MvC/DdBT5m5sgx+BdiqPVqdJkugXyKGIFDDFB6SSH3FsE4WgsvkriLLwaiO8loLslPBUlqKWPUJD56/iaz9KyOSWMzbii/TB16/UysHCWH/0IdjMOU0Ht5EzsHwjeSAH2cj/hbEkTnuCPsmgoxBRqMO+YCFZ0Ll9jRLboz5CSVRRupkYnVQZbCBnQIINoqQI+dBnTfLf8bpIJoHflzAUw/OGEKye4pWSS3CxSYRHJ+2kUtPHaRJF4rh2K4BKoAJXx9vDFh6LizRUX3g8peFWb/dGx/iIfJC0KeyCp3a2J8DUhfPH42zPyiKq+gNOvK2F+noc2mlphyVIzkTAPCb8oQR5UvOEuMMVTBJVQpRbFKqrgkb6OJTRYQWy3mQ888W4IGgjgZuv3Ex9Ib3giI6EyeVA5lshayWDUEoRx0P8zD7FwNZhCLjr4iIiYVY8QpkoOhxLoL5ZBOEcBvsAEmnQ46sRy6fir40zE3X+mGIUx6knyWx/MtvavSRCH8j3AxMVuIcZntMTmHS2DRo+sxBaRbefCeIYNimha6Af7w8+sK/4090DtViNgcDeLyuIhIkyH2thYjD7lCF6cHP15JXpcYOlgM9wVukG6hhiJRRvJWCO5GYu0fDRhJvlwT5wZxHDEsNUouwW7QpbhiPIFy4g0ZxuXLMOWGEAuyPOG1VwTeGjFMk/XQDdJB7aVB76DeZyor3+jef3j1+OiJw6cVcjom3wrSGhlfA9Kyopd92A5VZW9SZ55bnajfE4RuyRys/UOK0Fw5Esm3heWIMPU0MR75Tgnza8y7EUjdxhJgxnaEMZZ1AKnROVwEXXInhBYEYtRuV3BDBeRNVcR6BNJIdyijXdD/Jwnm3TCSj9NgYhoHo89LoCP/J92ogX6+CqpAKQI9AuFHMlUzVA+fWB62XPfHqFRi0iiuZYocN1ph6czx3ccneanDjDx3TMzkYFKmFgPOEYPGUuMxiQPODAlM44LgbfSBdLQJ2qVsFowBsXkCRJOcj72jwYiD7tCRdBWSzLUMsN8sg9O0znBf7Aqp5f4sD/xgAUYfUWAGNSj6GBeIYmTgsBTBhT5RgPFnfDAtQ4tR6ULMzBJhST6B9AA1aJulUE1QwHuKN+SBSsyZNffVraxbCWaz2Xv3jzvCPUwkh0Uyq9ytifE1IH3y5Enzj+aPUuyDw83KR0uD8xPN2lARpvwiQUS2HsnZUkTm8TDnkhIaYjDW0yqJ4UAcKYXTWCE4YzsQk7pCmCRHx20ikr/tEHUnAAtPEfOxWS3kU2VspYNoNzitdILb/FYYc1iMuXlGjL/uTIwqhNduBdThBMiVRggNfPgYusKoJ2BN0MGHgBia74s5v5BHZPcqU8XgxUohi1GQNJdi7GkDZmcoMTVDgCm5xNDkNQ3JSnAmORNIefAZ7wVPvSd4PjqoSHrOOUBeNEOE+Dxi0jtqjDrEp/PSQcBGH6VoodykgvNUZ7jOcyavSvKe5DWfJPC4X3hYcYkAR3JXSPLYLUoIWQL9hiT4sJ99sDDPl3w2Sd0MDhaSWvA/IoIoWAqXQc7wnOMDYQ8Z/AMC8f3U2VWnTv127o+zJ+4o5KRGBFYmrZHxNSB99Kpw8OM3JWG0T2Nq4dsdLT61v+cP/RG0k4OoNE/syBUj+iYXi6+TdGQ9nPEakrruEIWIIVpITLCUD3VcO8v0Mn6oDtpwZ2zN8cQadjskWQBeBEnjZPKnxL7C9SY0HtQSfaJcMZv84+QsN2JAMYJ+ITkYo4VpGTUAJjE8Vf7QG4yQzlDDl7xwaI4OG/8IsAy3c2EDKGL4MMR5kJeVw7jVHZNP6TAvR41Z+SShL6stM3Oc5tM+i+QwDRTCYPSAVh8EnwBPDAlVIuy6BEm35Ii+o8C4o+Q/I+XgxDmRh1ZAuVkH3mwBJCvZoAwJeATKzpHElse6IDxXiz57lBYZ7xLJgSaFJDXJY89wdo9UjSn55E2vu2B2mgj+R3kQkJflj+DDuNQLvH6Ul1QEpVCJuNhoXLr2Z7VYLIRIKLaCtCbG14D08YeioLJPb19Uf6wqMT8y+18svLx11PFpcN3WCit/1mJ7mhSx+XysTNMRi7COGyUxKReCYALntiDoInRQJBJIieUU0V7wiOJjDQF6U7YW/vtFEFIFF5N8VpAf9Ijth9aj3NGP9p11Q4PpOXxMIUbrfUYPBclH5TwJlN5qeKv94O1jgmquBr6HOiHkqhBhJ3yhJmZzCne1sLJPcgB48yXoOK4ZRh1UYdlNT3xP5VxAvlS0k1h8ixY913hB49sFKrUOBhWB1NsLfsukWHdSiKTbKsTcUmLKcfKdJNPdojvBneStPFgH6XJSDVvZWk0kscl/tw3nYtJxJyTdM+G7w/Q9gdQ5nAPtDiVkW8Vwm9MG3VI7YXaBEZPTnDHtGgeBR4iBCaQeSz2hnKUFr6cY3gG+6NOtDwb07psakxQ+wmQyQCyygrRGxteAlD03s/ht8eanH0osz385eedM6pDDA+C0sQNEw92xYp8MSTeoQhNYJ/3MgSTcCSLyb6IEDkRxbFytnIDLRgbJIY1XQx/nhqXnFEgkAEz+nQfhRpKw8R6Q7XImYHMhI8836oIC3+cQSNNkmJgtQe9L7F4rgWmxDnI/IzxMQVD7eBNITeh20AXJGXJE/G6i4zijczLlEyOAT0oAOAvc4DKrMUYcEpPcJJ+bJcYQKqd4pxSSMB4MU6ih8AmCh6IHFH4mqBdIIZwsxZA1HRGVa0TqNQ2W/+5GxyYJTXKbDWZg80nVJHvZSCf2mQ1a4JL/nnVChfhbGoz/1QWaCCpvmJpUhYw8qRpuM4WQT+BhwnkNxuV3wIwcksCH9VBFkPLYoYVXX294Gj0tD3Xu3bs3YmJiErdt2+YTGBhoeaiWFaQ1ML4GpEV3nkwsuVuY+qjsUduysrK26S+yEyf+Og7czcSWEwRYuE+C7RkqJOfKsOAMMWmEM9yIedgi2aIEMQSRbIaIjBiTrQlE3jLGBfNPyZCQr8Cs0wIotpGXjDNButMF/GB3yIJlGPanErNymI8UY3KeBIOuU75JLl9ASt7Uoyu0Ht6QTFGixy/OlJcIUecN0MS6wIXyFyQIoEkgFlrH1l3iYPJZLWZmyjElR4QR9KrYIYc8lAfFSAl8vQLhoe4OVU8j9Gul4E0TYEyYOwHOiJTrCqz7k1g+WQR+pAZSkrdspJQ0ngH083BAUTT54AgRZh5XIOGmBpNOuEETyUDKJoqzSekqCBbJ4L2UGrErSozNa4Np2QIM/5k8MPl2tsqDqbsHvA1eMBgM6N+//7M7d+6sO3jw4DKTyWT5j6wgrYHxNSB9ev/xrKd3C6Mf3Lsz79nj4gUPqh5Eb7i4Hq5LOWg/rjPm/SxDYrYSCVk8bEzToiuxlBtJXbakJZ+tQxRLLEKJRxWZDXRQRLlg+jERYnMUWPwnSdxoLYRsPmoKgZ7YTUIerv9JFablSjGN8pyeL8HYTCVMO3jQLtVA0U0HH88AeHqQvCUm7HPMFSHZnRCTqUcAyVh+CBf8JDZBWwp5uAQDjxgwO8sD49M4mJTLx0TypoZUaiy2UXkGcC35mHQBMI0wwi9cDvc5rpi5V4bUe0YkpomxJZ2AvpMpAglkcRICqgi8MLaYtohkvdAys8eNAD/rV1IUxKQz/uBDG00KIUxJ+wigjKNz3qjCwGS1paEYm/MtJudw8N1vWmijZKQe5FD7aanh8UbXrl3h5+f3I3l/z5ycHMv/IxBYx+7WyPgakL559NT0tvjZqrevXh0quX1/9lMU9z9699c3/ROGotN8F8wkmReZJUX09c6IytNj/HEPiAgc4jgdOOHuUCcLoYrjWyZo86MVkIW7YewhHqIyVVh/RYQe5NtEUVJIk4QQRwghChGi6y9KApQEU7M5mJkrplctAvaKoF2lgHKoFoYAI0xGD/hM88eYkxqEZndB7C0Deu1XExMTiMgnCti0sigB+v5KwKFyjU13xcRcLqbmquGZooB2iwTuPd1g1JNPNnqhx2xP9N+tgOsSJ8z9XYvd93SITyeve0tM+RJjxhAw4wQW4PHCXAmcbH1falTo1S3UHXPIuybfVGHeeTH0tE0QroQwhmeZ66qNVGPsCR3m5MkxPqsNJuS4Y/AfKhgIwPxVUig9VfA2eSEoKAiLFy8+RCD1zczMhFAotIK0psbXgJTFy0dlo9lOL+4/Xsg+Z7zM7rv6xOYidYwRQw+JsCWD2DTLFcnEJHPOekNBElcUpwE/igOvPVLoCYDCcDYaSWVZdPq7fTxEZmgoSTDsIElhtuQleT32PBZBKBceB9QYz8bxEpPOyBBheo4eQeQrlZvF5EN1UA9VQaaRwvO7AMw73g/77nsiOpdkcCoPynAxuLE8iNk0tgh3+P7IxSRi+gmUF0uT6b1pO7HXZgl4vfjQq4zwMuoxeq03JhxXw3mtM2acVmPnLRWi0/gIvyPFqCMqOh9nUgVcSAmAini20gQBkJI4mgtuJA+LTyqRelOJ5deUBD4eHVsBXjT52Ug2CUCNMZfU+D5XiSmZzgRSHvqflcGQqIBwsQwaLy30Gj26deuGyMhIC0hzc3OhVCqtnrSmxteC9NmdZ5M+vP1wqfzBU2lZceE0lJa3Sr6665z/vkCYErtg9TUFdtziI4X849KLHjAyL0pyUxLnjm4/qeCZSswaRdIwXgcpsdvgPQICqB7b86SYclwCUZgbxOxJZfQbHjGtepcW4zJ1mEJMNvmKgCq2Fv5HBbQPD+ow8p4LVBB7k5/18sT4LT1w8HoPRFwzwpDiRD6Q+UcB5AmfB0h4H3AnYKowJVuESWlCTMiUQbtdAvkmMWQDldAp9PAzKrEg0g+LLurhso2DUSfE5LOliCCpu+22lOS5kZRBF2JO8qfEpv77jXQen9+LwtmzZERYdU6HHcSUa6ncpng+nYcMHJL2fPKnyu0qDLgoxcwMLWaxlRpIHfQ6J4EpiRqteQRqHyPUCjX69u2LlJSUnwikQY8ePYJKpQKXS42MFaQ1L74GpFmv8uXVH6vzXtx9tZl9Lit54vPpflXMzYcFM/nJ3LuaRDcsvaBEcrYrEtLcsDHDD933aeESxuZfOqHfUfKQu9jgAgJFkpGAKMEgAml0pid2F8gw+w8xhMFOBGItfScHlyq9bIeeQOqJSdeoQv/Jx6R0DbyOc8BJdYFqjwGGCA2Mw7SQKIm1/ZyxNVqKyIu+8P+ZwJdKEjFUBEUs5RcrRs9jcszKZ9PFSDZflWBMJnnLZD6k60VQf2eCXqxDkF6GDclBWJdmgjNJ7n5H3JFwSYhQ8qQb80WYd8KbGpzOBFI3KMmL9j/ejRQBNSbEqKIQJ6iS5NhwyQs7c2XYmGOEB4GUHyGFe5QzeFGkEpJlCDzNw1RqSOZm6TA+T4Guf4pIdiuh+l4Nk7cHdGod+vfvh6O/Hj1JIG155MiRcNZxJBKJMH68dcRRjYuvAemj0ruT37x5kfb68QcX9rmo9Mmk6vfV780vzdJFR5Zc8ExVYvxJMWJuipGY2wVb0ngY8bOUPKiQ5J4IE04ZMOQgsWo06xVl43qV6PqDBLFpGmy/LsCqi+7wT3WFIkEHZQrJ2AQuxGFiDGerGqQJMO6aG6bl6tDnlMbiC+XESvotPvAYrIWOpKpE6o+BU6QIO+OBIYcIGCRJ2cRvaQwdK4qPbr9I6PdaTCZWnEKgG32DBx01IvxwD6iWkn8cwINHADHg3u6IutUTBgJ2wM5vEXyJg6ibEoTmq7H4hCdkJKGdwzjou88J48/5W9ZzUhCDdonkkHxWYOtlHVJJGWy+poFftBDcEClcY10hoPKo6Jx7nyTVQN59ZraafLEMff8QWHp+Zduk0I2SQ6DhY+DAYcjPfMAeQ8G7ePXiZU+jASKrJ62Z8TUgLSVQFhc/2P7lo01JSeEB9oNKc6XyVNqpNGW4CD32uiEkR4W47C5IKBBiyu8kYYnN3MIlmHXWgAm/yCAhJmWPLBRQxfTZI0HcDQWSrvERnCnEwIM8Ao0EruHuJJOdIAsTYchJOSak8zEuwwUzbuow5LQHZBFs7qYC8kVe8OihRZCHJxTS3vAc5YZIAsnk3zToRHKZTbqWxCogIE8acJgqOQFjIuU1ha11dFUA9U4lnJhsDhfCZ5YE6gAtRi3RYu2JAAw6YIBfSguEpYuQcF+EiHwFgZR1bjmhM/nlsUc7YfIFLzo/1tsrRodoHu0vx9aLCqTeEtPvDOjLnioXroBrPIE0zg06kt4DyLNOzeNjepYcM3KkGHiS9fyy56MSoy6nRsOfhz69ByLn6t2TdHm/2Xfwh21GPTVMAuvyKTUyvgakL1/eb1JUVNQxJyfHgaXCwsIOZvMHt/LyssNFb+6Xdt/bs7rnHiVCMwORmC3F9rvk7y5poIwUwT2Ug+//1GPab2qSu4zdCKTEKl47hIjLVOOH22oE50jQZw8H3K0SC/MK4l3ACeagzzERAUuM8ZnumJanwpAz5AMj2eMqCDCzDFCTj/SQK6DVGzBsjQtiyENOOKEm9iKpaVkxQQFhJBeBh8nXfgHpVJK6Ey6Kydty0CVUCn2UHAEzjNAb2AgmBUasVqHfjyYEpXZBbKYeyffEBFIelp4mCR3dGhw6/pTjrph01oNASvKdQNqRfGrgDjlCryqx4zaBmuRsvxQFxJFyuMQ70TmRHI6Vof/vckzN4WMagXQ6gbT/7+xZrWw5VDG8Q32hGq6Gh6cRa+aseF/66HHOqbMn74vlUgisIK2Z8bUdR8VPC6cXlz6eX/aoaHnZo+IxbNvb54VXXlWWjB99cerjbineWHumL5LSTYhI52FNphGeSVJwg10x/7wBC86x0UDEbtHsSWNyeJJvDL8uI1/KQ+x9PSb+5gF5sIZ8nJi+dwGfKm73wwRSNuIoi4upxGbfndNBFuUOeaICijne8DR5wlehQb+hvtj8m9YyoGHwPgHcYgXExv8GpEeI2XM0mJTBQEqgPyMnX+kOHpVDvlkE/TANfHT9EKjsDt/vFMSuUvjTd6t+ViOS2DTqlhArLypJZruQzxVgwWkuJv6h/wJSEYHUFT13SxGdrkbqbSG20nl1i6MykMJwjusE98gOkJP87sdAmiugMkgxPVtiASlbkZ+tpKgL84R2khE6vRI+Eg0OpqYiKy8TPJkMfOvY3ZoZXw3S0sJpJSWPNz1/VBzysvjpaLbt1dNHl99/LHndY+/AatEaCYaG6zB/txvis8TYkqu3sAs/uAuWXtRjzTVfqOOEJAG54MbKYUwRIPQ6+cgbLthGlXb4bjnEK2RQR2sJDAS0GB58fuBiUroKk9n43Vza57yWQOpGTKqAbJYHPI3e6Krzw8DRXtQ4eGH/E0+M/dEIVaoWQjboII5JVB6Cjog+gzSTAJIlwag/VJYnh8tIdrt97wZJgBRBxoEIUPSBsoccks1aGLZ4oufCDlj+sxvibqqx7rI35UuNS6KY3osx4XeSoeSbWa9uR5LB/fdLEX5VhsQ8LiJz9Bi06/McWdd4Z2LfLpYFvfuekFmYdGqGxLKcSr8TpAq+gFSx2gBuX/LC/t7QuQsxc/xYXLl+GWKNjkAqIZBaO45qXHwtSFk8Ky4KflpUtO7LR5vnL55cvl2cBWmoGuoteuhmu6LP8kbYWaDG5iwF+u3VQB7uilUkfYOzu0IXL4AwzN0yz1KXxCZVKxGXy8eac87otqE9XCc6wyvKE/pUKTqGONE+zpicrseUPAEBVYARFzUEUlcClxzqBSYYiUkNYh/yplJsJeBFX9ag+yYx1DEEoH8L0p9FnxffJpBOI5AOOkkNAYFUGUUgHcmD0qBCkKkryWYdVKMUMMb4QbKMJPCob7DwB2fE5aux+pK3ZQZMtxQJKQUlJhwnOUtMyiZ8d47uhO9+kiDkgpjYlIvYfF+M+tEPuu3e4LH1nWK50MZr0Ic9ZY01OOkMpBL0/Y1AGkcgJYkvnaQE1yRCgG8gVAIZZs6cjEvXLxKzmsDnWuVujYz/JkjjSouKQr58tCl6W5R/5tYfVNGIATeRB53oglnEgCm5MmyjNGi/HopQF6y7okPMrT4wsBUTQlzgFiWBJoGDkGsSxGS5IzFHi+nbDZCO58OwVkUgIykay6N92MJdHph+k2RvNltHV02e1AkyAotqiRYe/p7w0w6G2FOI+Xt52ParCZoJXeC22AWieAntp4KYQNr1Z/FnkGYJCRxS9DjJnvjGhS5cD+VQE7y0HvAxyuE7RovuId6QhQjAmUeyeL0ekWfZyogcLDuvpDIJ0CtFiqRcHSb8KrU8xpHN7OkU3RHDfhIiPk1nWZxtwTF3eFMe4kg224bATA2GMlqD3r9KSBGwFfXFFibt+xt7pqkKwightP3UUCm0UEs80L/vd/jjyllcTLsAlYSY3bp8Ss2M/xZICwuHPi1+0v/LR5tH5UXLk/9I3a3cInrvtMIFxvVcxF/thtR0PhLuGjD8sBqaMCesvSJD1G1veGwnVgnlwj1GClUiD1uuyJFMANxz2wczU5VQf08g3WIkv8gWvOZCHuOMMVf0mJZHTJLDxZirSigTnIlJZZDMl0Lto4aP5wAIlFIsSFAj4VJveM4VW0BqWTuJQCqJ5luYdFqeFlOyhZZeVf9jKgIcB8YQDxiGExNrDTDoyPOu9MWkI75wWtcBio18hJ4Mwq48PaJzOZbJ3EJqZCYcliE2V4Uxhwk8DKQJImp0umDMURFSbnki5oYES+l9l3HN4LKCvPMOanyI+eUxCvT9nTEolSVNgBm5SnQ9ylbEZ4M8xPDp5QkFTwFvYyBWrNrw6IPZ/PuF6xegFEkh4YusqwXWxPjvgPR/FYO39SnkhkvgdYiLpFtG7L/Bxe4Hvph2RgkfkrUrLnAQfNMVfj/wII6QgRtPcjVJgPUX1EgukGJ7th6jE9pDsaYTBKHkzaL1EEQJIIlxQ79TckzOJi+Zx8e460oYdnEgTBZAv1oLfTcjpGotFBItVoR0xWaSvKIFLnBf8/k5obI4Yt4YNg6YGPSmBtNyyevlSuB5gIBBeXtsNUE1jCS0jhoNdQDGLvPAolNacEIk6LZHirgMPuIz+YjOUmPtNQ/L7aP1VxTYTHJ1yA9KSCPEECezlSa4mPWHAvG3VUgh/5qS2Q9dBn4D3gJi6gQCqWWdYSkGnBZjVoYcs9M5ltX6DT8K4BrhAmm4FJ7dPSEn1uzbrw+ioiL2mc1mVV5uHmSs44j+IyuT1sD4p0BaXJxRP+5GeLE6jqTmDhfymCbsS+MS+HSYcYY83E4RVl3gIewmF/57eJCEfwapijzh2vMKAjXJxAwZlp9QoPd2YpxoHYGUvGQMn0DGwYA/lARSIYFUgLHXVNDvYCBlA+010AbpodJ7QKfxwMKtXthwivzkWvKiwWx9IwWksWyqmBA9fiW5m6ciyUssRp5Ut4e8cbQb/EJ8oRxEMpNYVK3ywehlOqy57AVRpBxBu6WIuiZEQpaImJM86WU2N5SP9Zfl2JImwsA9xOaRUgiShFATW887I0dCgZLYVIMlPwkgndIe8nU+4NE+PPZwYSrHoDNSzMwkv5nJxg9TI7OfD24EB7JgCQyBBuhUOvTs2RPLli2zjN1ls2AYSK1jd2to/FMgpcpUP+PNteKA1D5QJbsiLFOHnddcEZ8nx/w/5Ri0T4F1FwWIKuAj8AeqvF+YVJnExxoCaWyOOxIy2b1FT4w8rLHMGGFP0GYdMrJYLvqfVGISAWVKLh9jr6qgS+WAnyiCxzqPz0yq0kKjMmDBFk+EXjaga7QBcgKZkK39SxJTRSDqe1KKyTlyTMuWYCLJUXkKAZ09AiIkELI+lKdOTQDxwujlKmzLCSCPrUbXH+QWfxlPPjaB2HH1eTEMJNc3XVNi0w0heu1g09TIpybwYaSyLjsvQ1yeBEk3lZi5pzO8VglI6vvDJYxLbOlmAenQcwygBNQsOpc0kvd7qBxswfCNMuh8NPAyeqJ79+6YPHkyG7sbeO/ePStIa3L8kyC99+5m8cA9Y2BIFWEjASnhcicCqZh8nAyjDqqx5aIY8QVCdNsrgiyCLZhNjEmedNWfCkRmOiM5T4T4WyYM/ZEHPnlYeaoaMvJ6kijOvwGpgDwpgSmVC36CEF7rvWDq5gmJXAOlQoP5Wz0Qne2FXqleJHGJ4aLZShAyaKlMg6mxmJgtxrQcGUZfpEYgwZ1ALIDf5kDIu6nhodPBqPXC+HVKhBX4Q03+tucBFUIJpLEkdxPz5Vh71h3dfxBjW7oa628IEEiNjDhOCzdie+/tIpLBUpLFXMRkibHqDym6hrEFtL3gEs2BWwyHGgsphlM5LCAl+T70sgQKanBk1GgpV1M5vTTkr30sIJ01a5Zl7O7x48cjrJO+a3D8kyC9U5TzbNJPc+GxQ4VVF+WIu9IRiTcF2HBNhkmHtQi5LEPybQl67iMWI5ByCKTSRPKq5+SIIum3nQAdQ3K03w/tyQ+2g3KnjqQqyUkCab/fVZjIVmfIEWLMFZK4KTxiLwn0y/UkEUnqGn2g05owZ5seoWxN3RQ9JAkkMUlmiqKJ/faIMPyKCuMyhMSkCgw/IwaPgCVm3y33hipACx+dET4mX8wM0yA43wh1nBx9qNxhN0SW8sXniLH+tBPGHFcjnGTqmus8eJKnFSUa4Bztiq4kjUPSSB6nuSA8nYfIPF90IzUgiNTALZlP5SUPTdeGLQkzk43dJdnd708+pElu0EZooF4mh85bCy+TlwWka9asOceu7bp16wb6+flZ55PW1PgnQfr40d1HC3/bAF2iEisuKpCc7oKEfA6C0yWY9YsB0deV2HFPit772Lq8CgtIJQkcrPyTjfUlL5dJcpjk6LDDTsR+XSBJUpOUVJP0FRBI1Z9Bmi3CmMtaaEly8giEioXkTwNM8PAJhFZjwNxQA4KztPCIl1hu33AjxBBECeFB7D06TYOx6VwCqRJDfheBHy8gkMogna2G2l8Pf40J3XyCsDDBA+vShSSXBeh/1Ihw8o9haRxE0m83nmmPBdd9EXVTj1XXONBHukCU7IlOUS7otVeOaCpjDHs0Be0bmmOEf6IYLhESuO+kRiWJB32KAmMvKjGLMWm+GD1Pu0MU5wJDpAHaRXJ4+Bth0BrQo0cPxMbGnmXXdtOmTcN9fX0tE7+tIK2B8U+BlH5X69bje6LFv28pV8cpsOKyCjvzuUjIcyOfKcXsn9XYSvJvO3k1NipHSSDlMs9JIF19XoOEXA2BmEcglWH6OSk027ngkZeUxRqISYlxTqgxKYM8JXlD9oh9BlJBAknE+WoY/E0wevpBIlNiSYw3om55QEtes0uo02eQRvLhtU+MsRmfQcoW2x7wK4GU5LJldf0JSuj9PRGo8UDPgECs3O2FZVcIPKHuGPyrEdG5xJz0u4g0V2w41QZLrvgjNt8DK0gGK0iWi7Z7oguBtf8BamiIbeMzXYjN2dq7YnjF8+AcKYIrSVounasmSYLxl1TEpBLMIJB2ZYubxTrDFGGCdq4CngEeUCvV6NWrFw4cOHCGrqt9TEzMNG9vb8tUNStIa2D8UyBlkY70JpvTwt6qYpVYdE6N7dkuFoaMIAn7/cHWUA3piCmRPphw1J18HFXcCF8YosRYfUVClV6BmGuuSCQ5uvQ8W8zaHfwIIcTxGmJEObr/QhIxTYYp190x5roKmh0EkO1aqKfroVbJ4OfZE0qZDpv3+CMiXwNDfBdwIpSWxao5oS7wP8DG/xLQM8UEDh/4/yhB5+1O8I6RI7DvQHibekKv0pLMFCD+vBZzLhnA3dwZU4+JsT3fC8n5QiTedsP8H90RMFOMdQe6Yv5ZPzhv5UFAXlQRKsH0X5TYdVduWZkiOk+IxVd0UEc7WxYY45IvZkuW6ndJMDnXA7PIt87IUsLriACCRBd4BGshG6iF3kgSXyLGsGFDkZOTeYL+D48bN668s96CqcHxT4I0y5z17dqrm96yBbcWnlEhOcsZsVkKbMuQYNd9fwxcZED/5QKMPkTsEyeEc5gnPAhEKy+LEJsnR+x1NyRliLD8vBKeBFKeBaRqywD4bkfkmJkux5Qb7hh1jUCayocqSQvVRNar+xmkWo0OIT8FIDhHBS3JZX6MBnz2gKUwZwT+SFIx/TNIp1ievyImdnOGb7AeXn7doFGaIJOqMXCEED/eCcC4E3qIQlww/7Sc5KsGEdedEZPfBRFX/TByjTcGr+iAqb96QETHcIl2g2wbB4v+0CG1QIa4dCfaV4yFl/VQRjGQ0jlEyyGMEsC0l0CaZ7KAdFq6EqaDQggT3GDapIG8lw56AwFbpcCIEcPeP3tWvI1sRPeHD+9BLme9u1aQ1sj4J0F6uOTwt3NOzn+rIJDOPaXC9iw3xGbKEZIpwXaSoENWCjEqmIOpJ6QQxgnQKZSYhFh3zTUpYnI/gzSZQLTiohpeSZ+ZVBTHRgXJEHhIilkZCqrYXEsHkGa70DI2VzWG5K5GAx+PIHj6KhHxmw/Wp6ugCHchz6m2gJRPUrQbm6bGHkycLcaYa1qYdpEMTiAGW+wDvckElUoOmcKAGavVOPC4K7rvUEIdyyffqUdijg5xJLOjc50IpEYMWsXHoHWtMPaQHtJ4HVwjOdBGumLFeR0xrgyxGQzQUsy7oIWSMWm8ihoMti4vHz4/SjElz4BZ2XxMuKqEdi97KjgfxpXU2HQ1Qq+nRsPLxFZmyGTXlECqychIy9fpNBAIrLdgamT8kyC1WW7jMPzAqDdsNfdZv8uRnM21gDQiW4YtF7mYEs3Dht+MmH1aZ3kKNidODe94JdZelyIqW2oBaUqOlOSvDj7kSS0gJRCz57n4/Sgi9lFiWqYQQ4lpNYkiqMMIBN+Rj9Pq4WnwRvdBJJkveGDpRQUkIVwCodyyvpIoxg09j4owLUeJyTkiDD4rI5BLII3kQjc2gKSuDkajCipPL2ze741gArMqnC1mLcDSSxLEk2RPyiWGzKfyn+FhxNbOWH/SA8MP6sEJE1ODI0XXnVysvqgkkCoJ1FxEk7eedZryiXYlac8WIpNAHMuD/2EFMakas3L4GH1eBvkO+n2kFLq5aph8PKGnc/HwMGDNmpVpX66qzZw5M3v6+npbH8dfU+Mf7Diyv3b3z6l9Uvp8EJLfnPKrlOQuj1hFgYgsCaKJTaMveyI5xwMTyV/KyMfxk2XQhgmwPk2OSNonjqRsKoFh3XUjfFMExIDEMjEK8GMl8NnHw2ySsTNypRh8TgldnMQymF81UAZfDTEQVe4Rs9SIJ2k645QM4hACKAFZSF5QGsdB39/IM5LvnZIrRK9jXCjixTCGamHoH4BAkxp6HaWeesRd8cGMkxyIgtXwpDIupsYlJlOE6BtCAimb+yrEtrMGRGcHoe8uFfldtlyoHAMPcrA5TUGAVhCgeQRSBSkGOYHUjRoaOYFUTIzKQ/djbIlSOWbl8jHkNDUg8ZRCSJ5PUsPH4Asd+WI/Px9cuXKpvLS0NICYtN3Roz+nKpUkl60grZnxD4K0QdajGxVdEwPBIcac8IuIAClADFXcqGwGUiFi0xgrCTDhiJpAykfnqC6QbXLD1hwNwgkIccSkO/MU2JjmAf8dQgtIBQRSQbQIXnvcqGITAAlo/ckn6kjGqteooe0rh5/KCKWCPOsGA+JJZo75WQRphAG8RA5JSWKrRD4GnJJi5i022VoE/4MkQQk0Xmt9YQo0oSsbs0uetNtkPRLyNBh+WABusAYBPyiwmZgx9Y6KfCY7DyHiCeTJOQasvaSAHwGdjWYSBEsw7HBnRN5UIuqGDAnZBNJcJSYek0AV5Ubll4IXI4QskYc+v5PkzpNgVp4Q/Un2c4lFhVv0UI9Qw1/hDw+dCUFd/Z8WFz85UFpaco1A2vXu3QL6f0gZWO+T1sz4p0DK7pNeu/NnsT5cA7dYLsb/IsZ2qtTRBNJokrKJNxlAXRGb1RETDuuIHZ3gltAZHtFybCXwhWYQAIhJd91UYWOmFwLYSvGRxLbRbDCAAJ67nKliE0gLVOhNTKmLJsm6UgNDLwKpxAiJSIil8d6IK+DguwPsgVABcE9wsoBUkczHwNMSzC6QY1oeAf6HjhBFiSGbaYJSJ0BXDR96TV9M3NwN0beEGHBQifbrScIe0GDrbZK5BLqYG+R3qYyp90iaX3fHuhtSeEYJiaWJsbfJMepYR8TeUSLyupzkroAArcZEktjqv0BKvlNGjUbfUxpMYo/izxeg73EJXEOlEGwxQT5Eia6iQPh7+GHkqOG3srL+bPr06dOuVVVV3XNzs6BQWIcF1tj4J0F65dG10u7h/cHd5oahh52RfEeGRGLQ0KsiJOTqsOOmGHG5zpjwqwgu4Ty4xVHF3CnGxusiYiA2qodDTKoi/6qD3w4OXNlonigeBPEqGPbyiEXVlkWth54j/7iZC+0CFTzH+sEQ4AeFXIAlBLLkW/3RbZ8TMRe7tSG3sLE+mYsxF2WYXiDCmDwu9Hs6k8SUg9NLBm+ZEYESPYxBCqz61R9RtxUEODVc13fBkENKBN/SIeyGE+IzBIgnyc6GOUZkcbGKQGqgRkQaGwhtohFTz7ghtkBIYJaSZOcjJk+HfvsYiNmC2RLww2RQbRfiu8sqTM2RYFqGDKYfuRAGa+E50Rc9gvygIzbXarXYsSOlkP6H2uy6vnnzsvfNm7nQ63VWkNbU+CdBevP5vefLftkE5RYBRhx1RuJdKbZnuSP4ighh1zQEWAJilivG/uYGZ6q0zhGe6L1XQH5UhQSqtGGZ7kjJkiH0T5KaO93RJdYZMpLO4iQ9DPtEmEw+b1y6G4acpQq/hQP5dDHkUz2gGU9AMUrQt68CS/cOhPd2J0hS3OAazoYF8uC7k61zqyAvyMHAqy4EFhdIN+kg7KGEn4I8qcQX/SdLEHzdgJjbasz4QwdVcCdSAzJEFHghItMN23O4dC5SRNzgI4qAOue8GBrmmSOCoE2QYxE1NPG3uIgluZuSxUHMTSMCdpASYCvYE0iFJJ/1KSKMzlBiOvnvCZeV0OwTQLHVBO8eRvTSeENhMsDT1xNpadeL6X+wY9e1qupDj5ycLMstGPYfWUFaA+Mf9KS1n1U88zqQf6i8V6IXpp+SIDZXgMQMN4Sny7HtipxYhovEWyJMPyeDdLsOnCgD/BNcEZ1lws4CDULSCdhpfERfJZ+4R4BOUe5QkOeTx2vg+QNbbkRqma7W8wQfWvJy3KkCtBvXCcalHjD6aeFBktDnOzE8NrEncSsofyHJTCGCDogw7boCE65z0fuEG+Rh7pCvMEA1hj29zAOBOgPmbApEbKYBSXcIcOd94Bnpjmm/yRB+y0jM6YrELD41JOStM0SIyBZh3LHPT+7mhxHLxzthTQ6xaL6bRRYnZvAQkedBDY2YysA6jlhHFu2XysP4bGJSkv/Dz0ih3y2BYpMBavLVeoUUHl4+mDJt6tszF35XvH37nP/kyRN2n7RnRkYa/T88SlZPWiPjnwLpXxHxZ4R+7M7e5rm/SxGXyUNiOoEwR42wdAVirnMQTWw66me2pq4YvGgNBuxRYd/9Qdh1W4fgtC6IIaZLyiT5t0+CjuEcqGIJTDFq+BFoZ1AekzPF6PabAPIoCThzJHBa1An6TTLo/Yzooe0LlSeBdZkJqig55Nvl4MULLfdIp5MMnXRNjD4/y6DcIIJomgK670kqdzfBR6/AjLVGJBNId5GvXHHJH10TuFh0RoGIm2pEZrNF1VgnmMSyXGgYedM+u3lQR4shjRKh/0Euwm6xR1FQ+dNUSMwWYxs1PH6pUmJzF0jY8MdwBflqLqZRftPzlOhHDYA0nAvxCim0o5VQe5B81hmxfXtS8atXpc7FxYX7Cgsf9S4vf3P7ypVLkEol1sEMNTX+SZDSb2vtztgtmfPTSPOMIzwkZQuQkOaMmFwNYvM1SCAWjCPAjjrCBT+aC16UDANSNIi80J1YinUeuSH6ijNJS3/0PihFxwgCaZwJSmJT/x94mJWlIblLoDspAy+UD8kqHbxj6fulPGg9jPCX9oVHUFd4rwwgAKkgjie2jROhx1E+pqcJMY0A1O9nDyjXK+Eyxh2aZUZ4jfCESS1HtyFOiPrDgH23jVh83gu9d3Cx8aoCkXkSkujEkJkCRFwjT5qpJGUgQeAukrAhHKjJ+045pUXKPS8CqDui08XEyAKsv+4B7xQ53CJcIYljj16Uoet+AQFUiim5SvT5VQvJRj5cZzpBN1sFTS8ldDI11q9ZV/rkycMepaXFvz98+LBpZWXl+IKCm1AoqMGxetKaGf8kSEmatcx+nvts6YmpmPITF6n5UiTecCb2VBBI5Ughttl1zw8zT+ug3C6CMFoC/y18jNjUEZtOii2PTYy9ykFytjeBVIQuBGRlrB5SYizfvTzMzNFhNLFZ19/llkWz1ZuJBTd7QzlSBA+jN0xSfwgD5NCuM5CXVUASq4IgXoLBf0gxK4c9WkKFgP1GiDeq4TTNGeqNMniOM8BD6QGZqjMWxaqxJy8IM06pMOgAAS5ThagcNujfDVGZQoRdliCBtkWQ7A7Yq4TbFmfoiNGnHPEgL+qDnSRlo8hXh153wbLzlC8xuXsUFyJSDcoIKfofJbmeycH4TCl6/upJx1eh89jWUC2VQj1SBaNEje4BQeZLVy5mvHjxtNvdu3fYygyca9cu35XLJRCJrLNgamT8wyCtl/ny1vtFJ2Zg3u8a7LwpQ+oNF0SR1AxJ5yKBfFtspgdGH2KrwHeCMlmBUTtJWs5qhhnJnRGXZ0TCdWLfTCN6E8hd48k/ssEMVNE9D3AxKUuL8Vkq+P7CBhCIoNqqgXCUCFpvA3xVrHdUB94Q5jnFlD97nIWRgKrE+Ks6LLwrxsjLJHNjeHDbKCGgCiyrFsq/EyBA0x9ahQcGTRdgZ0Y/jKUG47tjLkjNUyGapG50nivCCaTbLrHHOmoQcUMEYyrfMk/VN9ETw+I9MDXKFfvzvRF/08nirRf8oYUpSWGR27wInuVx+8N+V2Ma6zjLoN/95AHFUiW449pBQ42FapoG3bTU0Kh1WLFy2d2SkkeCx48fJlZUVPglJyeu0xu01qlqNTX+sY6j07Arf/pxXPa7WxVTfx6M1deIXXLIw91wQ2yaCGE3iJnS6H2GEmOOyiCM4UIbp0Af8mqmyfWwYJ8L4vINSCbPF3NDj+4EStcEAlyszOJffX4UYWqWDhOIrfQ/ukMVrYRyhRK8ACE8lZ4wSo3oOVyLwM1qyOJ5ECWyByURCycqMC3DC4tuyzHwHOUZ5QReGMnLEDW0qziQd+Wip3YgPLUB6DGJGpNLAzDwRx6mn1VZQBqVzRa55iP8hhhhV4VIom3rL4rIT7tAFa/GoN090GejAT4zvsGBgu7YXkDyPs8dU+gcVXHseTckzSMk0MYKMPa8AnNIXYy/JoNuJzUkK8hbLyMVEOwJzQQDArWe6O4fiMBA/3sZGRktnz9/OvbDh4qM9PQbkMkoL4HVk9bI+KdAaj5mrvO+2By5IyulMjDaGeuuaBCSrcbq6xzyce7kM6XkO7sg9aYbRv+hAS9SS5VTgR4kGafsEiCZKn9kPh/bs2UEFCP8aFuXWJK7CUrIYnUI+EGGOdl6jCEWUux3gSJEB8NUD+hMJgQY9VCQr1x9uA8G7jOS33WCZHtn8EJMUO8VYVq6D2bcUKLncS4kO0XQxfhDPksDhZ8UvjpPeIu1kGvd0HejJ7476A/jBi4W/OSNpCzypPliYkY1SV05eWxXy73fGSdU6EJ+WhYsRO8tUuintcF3oTwk5nRDajaH/KkIQw/wyTdzSW5rII7xgmmnMyZlcjH3li+GnZBTQ9LGMjRSE+0LzRxK3emcPb2gUSkQGOBXkJOTIy4pKfrebK7yys7KgExqBWmNjX+MSXHaLvTG8vFBYX0+CBcTEGPIW+Z6Y1sWB5HkS1nPaGouDzsLhBh6VAy3UBEC4mTYcLEH4nN7E8PKEZknwPYsOUItIOXDKe4zSNnjC732cDDpmgij0gVQ73OFYosWxrFGeHl5w0dvgMFHjcX7uqHXLi34Ma4QJztDHG5AwCEJ+VFvjL9B/vOwC8ldCaSLCJQDhDD5eUGvMEAjF8N/NDUE27zgE2OCcr4YvVc4YQfr2c0TIjSDwHqVzRN1RyxJ+Cm/KsGJUkFJIOy2uROGbHOi7waQUjAhicn6O3IM2i+mRoIHTqwcwkgdvHa7YBrJ/am5nvD5iUeeuQsM4Wqo5mnA7SmC2ufzsikKuQzh4SHl9D/Yfr6uVb1yszOhVJD6YHJ3vBWkNS7+KZBGnO7fYPT+rh+UUf5wm2OEelRzpF7zQXS+G6KyuAi9yjpdWGeSEIOPsIHzYgTEuGDTJR3CrqkQl8l6UoVIJiYNvWj4wqQkR0kScyLdEUAedcJ1Pobd4EL9gyt0mzxgHKCHr4cPjBoDggbqMfsHL/gnkwQm3ylMdIM6Roehv4ktDw4edF0M+R5nyLZpIRqmgMEkhpfRFzqtAuPmBWHuweHQxxB4t6nhNtwJvRZ0QsotFSKoYQmjBiTmuhwJxJIh2VKMOEReM0IFY6QLtlz3wa47Adh+0wfbb9P5kqfeki5D371U7hA+3C33UmXw3++GmTelGEV+W0wNjipCSAwqhagbBzpqYNQaDVQqDRYumIdTJ47P+QukVVUfemVlplvmmLLbMOOtIK158U+B9Nvvbeo7r6tbzIsxos1kNbrNdMf+G76Izu1CSYTQa0qSu3wCKg99D7iDLTDde7sLIsijhl3lWJg0grxfcpYUwRcJfDv56ExsLLMwEQ/9j6swk/zo4CscKHa6wntLAPRdNfAmuapWs04fD0zarYae8uXEETAI4B4JWkw8x1YYpPJcEkKcxIVhjT/U3VknDbGw0YDug0WIOTkYG3L6ELu3hvOqLpBObI1F2zWW5UgjcjiISJcg/oYc8dl8rE+ToSd7Wjl54gF7hYjIpv1yuNh0uRPJYhEirgvBVrkP2qmBe6gY3FghBGEi9PyZj5m3ZBhMfluwWwzNFiX0oxQEThH82eMt9F6IjIzEqVO/z/pySS3x9u0r32tXL0MqEVp7d2tq/FMg/T7Vt3637dpi180yOM3lYfWP3ZByRYHYW26Iy5djyyUZsaSEJLAYffdzIYoSYOgPJH/vGsinShCTLkc4gTQpk0B64S+QukMWI4MiQo4Bhw3kSU0YdJFPUtYNnpsCoSEG8lTrIVOSnF3jh5G7xJAQoN2JfblRPPgS0KZflWFklgzepwVQRMvgQ6xp8DWhlykIEpULRi2iMmR5Ym2uBJqUdpCEdCFW1WNXWldEZUoIpC6IyhAhMY0amRwRll2Rw0hMLQ52xYKLXohmM3zSOiLloRzBWQJSDWLM/VMBPTUQ7uEyiJKEkEbxMfiEBDMIpD3OyCHYLoHXVi94DDbCQ6mHv8wLw/sNwYG9e8fQ9a/9+PGDSHZNCwvvu3+oKL924/pVksFS8K33SWtm/FMgLUShY8iF8GJtsBE9d7Ib+l4IPt8B0XdEiMtTYOsVAikBISVPiv77Se6SJx17UGVZtT4hnbwe+b7wHN6/ASkPnaLdIGVr5m41wCdcjMnnSL5eVoEXTwy7zASNnw7eBhMEMh/MiQrC4J3ucA9xhWusGtxwAQKJzWZlazGApK7hFz4MweRjR3pBa2Qs6gOxrzvW7QvAgQIFQvMFGHBIDr9E8sbZ/tiZq0QkgTQ8x8kyzS4lU0UglWDeBTkB2R2K8I5Yk+aF7flKAqmTZSBGeL4U8belmHRSAkm4lmS6BoodBP54PkadVWAaNUY+P7tDEiWE/yZ/SINUMKi84Sn1woaVq5Gde/nMu3dlbYuKHpkYWIuLiz3ZH8KYlHlVvnXEUc2M/ylIMzIy6peZzY3MZnPDK0V3i3pGd8WYkyQRb7oiNs8VW7LIx5GcTbxpRMpNGXk2PrqlciEMkWD+KX8kkcyNu+H2mUmzGUgl2HZe9xmkjEljZTCs84Lw+/YYelCC4ZdMJGe5cJ2tgCbABH9Pb/Cpki/c3g39dzjDKdgJznEa8AjUgTtVmHXLhN6XRdDs5cNzoxGq7mooyP+J1BrIB8oQc2Yg9hADbrrEIY/MQ59UIwHTgCSSuZEZUnpPcp1kemqmkmStFLMIbMJgdwTtcsXmbE8CqRqx5JODr/MQzKbm3eJg2GF38II14ERroN6jhCFZjPGX1ZiaJ4LPT+SVyY9q56vhYuDDx7sHFDwt9uzcUfns1f2qcvOD1vnn8xvev3dnR2lpaQOz+SPvwIG9y/z9fK29uzU1vgak9+/fr/ss/1nDLx8t8aCwOLrsxZv04rcfeXtv/3EvIFKPmTfE2JLvivhrHCRfkyH4Gg9hWR2RmCUi39YbgT8ooItpi81/EvNcd0HCHTHJRCli07gkfTVYSJLQEO8KPhsbm6CGd3AgXEY0x4hEJQb/rIU4RgDJXCN0Ci90dzfB08DD2ISuMP3AJ2B3hCBWCW2YL9znumLKBSl6nhRDGG6A71p/6AP8EejhBYVEgZ6LVIg9z8OOLC7GnulBzKfG5F/FSKSGYvsNLWKuqbDhmhu2ZpJkJ8kbc92A0YeVUBCTLz7KR0SWEGEE3JhME1JyNYhj82VvyxGYKoVLZAe4xX9LUtcPxnB/TL2gwVT2SIndXEjDJFAP1kCs4kHrSd7cvytWzVwy4I25jJuTk+Nw/fp1e7rWnb5cYputmzZ95+tDjRH9R1aQ1sD4GpCWPC6aUFpUtOfLR0sw4Ba9edPiBdA4Iv2HIr9IJeamS7A13x1xV/jYeYMNrhdg87W22FWgRkhON3ikuCIolfzb5a60D0njLyCNS+MQ22ox+5QM6lgXy7BBCVtMbJkcrpPaYtJBP/Q6pAQvmgvJQiPkKh0CRd7o1t+A/rGBUOwSQpDCgUc8AXipHoKJzphwRoWgYxJwt+qhmWuAwY9AajIRSPmYFu+DXbkCktyuGHDUF4oUI1al6ZBEjUlKmh7hF8TYdMMdYXlcxGcT66b5YcAOITSxfGJ/P0TncOk7HkJJyieREkjKk2PdRQ28k/XgJztDmtIRym0B4M4SYcRhIYafk5BH5UGxWQ1tdz08PQzE6lxsXLYSvyb9bHjy/smhR88f8b9c2r8jLCRkjLeXpxWkNTW+BqTFxU8GFBcXbvny0RIvi4s7mwsK6pzG/bpL/9hWHEjydBExaXAOMekNIclEHSKp0odnChBNjBpK8jBgTyfotpBP20Ke9KIvwnN5lg6X2HQuyWINpv0mhSLGFcIYKSRxCnRZIoBoBRdDj/hBs8sdbnFU0dd5QxyghlFlgu9AH/hu9oIogRg2QUh5KyEe7wbtNB6GnTDAtF8E/hY1ROOJwT3ZgHopTN48rPzFC3ufKBFFXtkj1hkBPygRctuEhCw+dmTryD+rEJFNQMx2Q2y2AvF5vdAviSRrnBIRF3pZvHbsHSE2/emE8IuuSLnthSVngqCJM4KT4AaP3RIY1nvj2z7N0C/ZHX1+l0G8XQrtIj0MBLoePt0gErshITL6nvmDmXP/7d3NDyseOn25tH+HFaQ1PP6nnvRlUdG5qmcvvdn7YfunFvZMlmBNmpj8pSviSDam5BoQky1GTA5Jy3R6vSdB0O6WmHh4GLrPFGP1ARU233ClfUSW54DG5Ggx5hcxxNHuEMTJLHMxJeE6yCPYk9RkcI7uAHGqEh4h3SEdoIdRbYTepIFxkQ5qksPiWAn4awmsC0TwXK9B9x8NkBJ7yYLJi442QKczQi1xx9Dxemz5U4fEx0qsSdcS6ElOHxIjtIAkOAEz4iIHMSSD4/P5lnmx4RkKUgO+6BHFQbcoLfov5yD8igcSbsuISZ3pfUdE5Ssx/qgO/HDZ54czRfMgXyD7f7X3HcBRXema9sy853m2d8bjyDgQhELnnHO3EpJIJmMMGBubaBsMmGDA5KycW2oFENmRAeeETQahjBJCsYMyAiGS0bf/ucYuz9uZeeWtV1u7S39Vt3S7+9zW0dX5zvd99557DvgvPYdX33eQorM5hMnqzjbAqg9HtCEa4WE2SBTC4bc6bxlu918PremveYA7sb+Cn6T3OH4LSVtbG4e2dbfIOxo6BK3NrVL2nrep4WSfu8tU311mH1EwoXtcgQSJJWQNKcdllqqQXWnhSJpG7yWfESKjRo7hBY9heLIatlcGIPFLO1Kr2MPUYiKphMhtxAsfSiBK4RNJiXQZ1KhdFi6bCrOFEGSJYclxwLEmEppxZsSYI2CWyKCfJYM12wR5rhaCZBUMOeEw5dhgyFVDkBoEI5HcNjOGU161JBiLN49AbpUDW6p0GLdfiujEEGw8aUFKjQCpZH+TT7FpOSlTX5Agq0SCHWcVWPatDlPyFZhVQNZ6yhNIPTUC6SUq+lyMvEoBthQFI6rgOYTEBVN9VZAkCCFczoNjgwpzjoyBcZ8SvDQxdK/oYNdTPpZYsXDR60hyJUXd6rqxsutm6422G3XB3Mn+FfwkvcfxW0ja3Nb4ZmPrJVdrQ2u8r8mX2OZps3g9noTuG+1Lv6//psuRG4kXDgiRXa7mZmRg01qmVZqRQpk04VwQkVaB1DIDnt81gEg6EK8nBWJXcRic9WQ5yepmsiu7JSaMOShGSBIfEsqjsnS29KGU9mUQ58ihzzHBuonU80U9rGEWjLZEw6hRQPIyH0puYWIZqZUK6gIzJC629KEMIlJlY7II1qkjEKojy6yQYHFcDPY0DMNsyqy8jSJMyiB7WxFF9pWPxKIQ5FbqkUMqmVcipbypIEtuwauH+Qjd8hgcS5/Ca/Fi7Ls4CqmF9PdSHmUPrb9LnVD4Ph4kiTwYXFro8o3kAsjypqoQSn8Lm9JTkS2DcT7V3RwGlViH2NTtqG+9OIad31pP2ck6X5WEO9m/gp+k9zh+C0kb3TULGt217132XFZ2NXdJmxrc3/jqLoe13PF8EfdJIgZvGYpZX8qxp1qD3CI+ZT12/9GAhDNkH4uHIL9GR4SNwjRSyneOGeA6oUBekRRxFQKOpE5S3O3FRozYL0IAKZskW8/dU5Qlh0CcJeJUSLlDBcVrYuhtUozUhJFlHAH7+CjoVlkgzVJjaAbZZG6UTwiUmXzwMsRQFIigSnwGypGhiDaOgt1gwIx3tUg7p0VkvghDNocjbBXl5zNWpF4YQvUm212iQSy7On1Ggt1lemReisSUD4diSh4fc0ndU46xScmGwFk6FLtKrETmCMw/IoY2Wwt7tgFGqjcvSwHhLjlkLjEEsVQflwRyFx/WlUZoLAbIZCqs2LIcn5z42/Pc+fVV1dS31ci5k/0r+El6j+O3kLSl5VJIbX2pvqm+dlhzw8WYixcbYurbajNPXf+hJSopDIKFAozerkD6OWrs5wdSliPlLLYi7uRAatBDOSVNPGPEuh802HpaicxCEXLITqawZzbPBiONct/6s3YM30O5MlUEIeVLaRYpqZOyXZqAU0jFegMMw2SwGE2wK8MQOSYM9k3h0KTbodxlgYrKqBLo2NghkGcHQ5vKh2atAcqXiEBWHUI1w6BXmTBrVSQpowTGTC0MaydBMX0IUn4wIKn8GWRWSpF8jnJoSSCppIY2KxLPG7H8m2DEFxpRUDUCWefVSDn3NOXXgWSJ1eQQhmHSQcrM23ncQlIyNpNgqgKqHC0kZMHZ1KRWlxHm9XI4JllgcZhhNpswafpELF6xcCw7v97OS+Nbeloe4072r5CQEEsktfnvk96r+C0kbXO7FfR5nrfxUqqn8aKSvXexu9wRf3Zbo50aZsRiGxQvDsaOY+Fkc5/jLrxknLPBdSGEsmkwMstUSDgtQtKpn+bjza7Uwlkpg4uyX/a5QKSVmrD0BzvCctlD3WR5KZcKssnq5oqhSeZBmW+Cdm0Yws0GOMyRUGptCJ9jgjmHcqdTBVmeERZSMX2cEOLkILLHAi4PCkcZodKHIdRshkEtgzmcj6354zDmsBHCbVIY5hsRs0iExFNWpFUFIrmIh5RCHrKqyKKXa5F6zoLEkz8ty88GNmSzFeAKzXCel8BZMhAZlSJsKQvDiH0qBMcHIsTFnpclUmbquPqwNWnEKQaYN1K9p2vh0FlhNhogFIRg/pzZyM5MG8+d4H8CP0nvcfwWkrY3Nj599erlj73eho2+Wt+o/lv9X/bX9j833jnhk5i9MTC8GQTrm0+RVaScWROAtJIgspR6ZFAmTS1mk5ApkXRWisTTMqSdV8FZTluFjBSWSHw+AJlVRsz+lM36PgTSDBEEqWKInVJIyS6q0tgTMQboltrhsBhhp0ynsVrhWGCG0aUiklIWzVVATTlUl0b2NkvAWc/Q+cMhCjVCrY1EhDUSL72mxRqXDDmFJoz72IKg1YMxZocI6w6R+hPx0sqZ+ovIeouRXsanjoWcAZu9vlBFf5caudUG7LxoJpIa6D3K0WzlOLL3y4+bYXVSHk0Xk/LroMtiVp0PeY4QArLc0g1qKKZSBxGhgZ3qbTEbYbOa8cXnn6C7u3scO7+tXm/GZZ8vgDvZv4KfpPc4fgtJ6+uroxsbalN7e1sHXG66HHil7eqJK7du1q38dGO3dJsSEe8OxPrPwpBb40D8+adJhUg9i3XILnEgr8rKTTuSUijjtrRiOSktbWVSUiciaRFlQSLpxANDIUl4lvKbCsocDdS5Omro1MgzyfImGaGbY+bG6zrMduiiyTauInXdqSTFFZGCCSChshqyyPocBcxJJlhGDYfORscpQzFm1CikvzcGh1styLgYjGH5pGwpcsSSUrrKNGRfNVQvy08DFwqpYzmvQVYFkZMIm3qe5VQ1stitJHIEaeeIuGz17zIeN+3ny4eUkMcNoXqzgRhGzkbz0gcjJGcwZJliqBerqVNRwq62QqVSYP68ObeLi871XbxYtbq/v/9PbndLps/TMpsNBbx7un+Bn6T3OH4LSZsaLr196VJtbnu7e0pfz9UL5Wcreqs8l5BU6IQySY15+6XIqYpCRrmSFCmYyCpBMqnmpk8dSD5lRzKbpb6IlKlETmSQcBub4jOzRIRdlQokVdowfPcQiJKpsedroSKCsnufSrK7IrK92q2URycb4TCRmpqsME40Q7fNCOVOGSRZfPCdQRDkEplzVTARSUxrtNDo1NDrxNCp5HjtjVEoODMKWQ08rCkWItJpwssfmpFdp6S6DSCbqyASRpJFV2DL5zys/hsR9zzVl/6WpMJAIjHVm40xZiuSn2O3lURIKJNgcynVm60Ctz2QSEq/N8MITYoUQVlDEJQ9GGZWl1k6OPShiFJGIyoqHLNenbmLyCmn8/04O7cdHc3Pcif5H8BP0nsc/4qktP+7tra2v3Z0dDzjc7tHd3V2Xq2qrrxVVVMOeo0T3x7vLW0s7d12civUaRK885UUsWeCSV2ESC0VE2FlyK2wYPxaHl5KGkTKqSRSKkiJmJKKiAAC7vZMVqkKuysjsOG0HeH5IZA6xUQ6NaTpcihThJC7hOCRMurWmmCKMcBupHxpMsP0iok+J5LmyqEgpWUzMghzRfRaB0OsHqb5ClgtlAEteujNQXhrmx57LoZjc7kY0w+rEZ4qxTvf25FRISTbOojqLUN6qR25JQZs+EiLiZvF2Pod2fGKYCSfZyRVUjkd/R2UTSmPptPfGF+hxpLvjTCnhEAcJ4LMqSEVpbpThg5ma6xmiRG63QzLRB2ibTFwqCIxZcpE/O3QR3cKz53p8Hqa2y9erJ7ecuHC/3LB6Gf4SXqP42eSsjldCwsLGUl/uYhB+3/wesiINTder6woQ0uzm8oUXy6rKK7qbPOdPf3dab331sXdS47MgzDxaSSWG5F9UYCMC0JsOyEgIgrxt9bxGL1Mj+HvPE12kVlcNsCB1KlUQOrFI5Ky1dZ0SD4Witfek0GbEgRZDlnFTNVPAxlS2b1FAQLzVTCsJPtqUxNJhyHUQISdb6LMaiJiKKBNF1EG5EGYI4c82wQNqah2ighhjkhYDCMROUaNLR/LsNOjxLtFBtjS5AjPGISt563USeipM2GKKUXcGRkOVIdicaYehpkybPnKiF31zJbzkXyW5VIN5Wg+MqiTSasQI6nWiBmHJFDH86BI0UPMJkijTkaUHoRAF6m/yw7zYgO0kVLYQsOh0VowbeqUtuamxqKKspLa8rLSO3UXa1BaUnTrxIkfuFsx/xl+kt7jYCR96623oFAo8MUXXxSTBeMGePt8Pkl9/cXomuoLNy93d6Lo/Nnb9XV1VY31zVns8z5330AqG/r1xY8KR2XYEfk+NdpKA1y1QiQX8+AsN8FZosKWb5RwzOdjenzI3XzHFm1iKiQi20jHlJBSEUnXfqRHxOYAyLYS2Vx6sq6kotlqWCibqnKCEZKtgPEtavDs1guR1OEwwLJYT4TUcwMe2HQkinQhBDkSqBhJ39IQMeQwaSIhlY/A5Des2FuhRVpdIF48JAR/Mw+T9w2lPKpBeqGeNgWc1HlsPRaCuK9FmLRmEMas1iPppB17m3TcQk3JZ8jGF5EbKA0iJQ1EAmXrLcWRGFUg4R4/k6ezaVUUVB+yvlnB4LlksLJJz6YoYbSroTJqED1+NLZu2vitx+Phs/NYXV25qL2t9UThubM4dfI4vv760wlud6OJnX/2OYOfpPc4jh8/PuP111/nloFPT0+P7enpiaHcObK66oLP427GBVLQxvpLf2tpaVp8vds7o7fLe5Add7WpI7P/9p3CuB+21MvigzDxEzkpkY4aMeXQQiH2NNixqyYCU5Mfw7Tk55Byxoi8ai3lVR41ch6prAIJp2RILZJjb50JWw9bIJ1JarQ2DOJUauS5QyElYsoyVKSkz0CzVQr11CiYzaOJpGxWAw2sG3TQZ8khY+utJEjIIkvAzw+CkVnOFwyIVAyDVREKRbQOC9Nl+LBCBGeNGWF71BgaR5nzKKki5dDUIhGymTWn+sWfVGLBniFYuHcQR8jsSkZKITkA9kialjofNdn0QDgLn8b6zwwYHmuHNTkMpnwl2fQhkKZKqD5U7xzKxjliqqMBqlAlRjlGQ6VU4KU5L+BKT/eVhoZLr3L/gLugDnAtZX5UXSgnx9IIsi++urpqDfssMTFupsNOJKVI4ifpPQimpAsWLODs7pdffoneq1fQ3NQARtCONh+amxti7xa9r8fXou/s8KQ0trnNVxt9rv6+/tzpe6YeVafy8PJXlNXK2Xw/SnArjxVLsavWhvgT1MgL2dVdB70voEYugqtSxtnc+FNCavBi5FZq8fZeJQSvBUK+3gpppgji3GCIM+UQJjFlHQrtJiVkIy0IN42Ew2iB/SUtrPEWKiPihv3JU2VQuhRQ51M+XSeC6XkthmuGw6IKhXL0YKQeNePgBSnWnTBDTypt26NEQpkVORUaJJwJQuK5QKqXAgUXQ7GrejhZYAeRV8wpfkpRCJKo43GWqbnbRknngnGQbO6mz4fhry/8hfKvhVvaX5IZwA3CUGRroCDbrcsii75UC32EDhH6cEQ6HJg9/6WW6729/5BoHk/Lap/X3ef1tKC2pgpE5JbLl9uV69a9O5I99M2uG/hJeg+CcuhPmVQgwN69e8GW2SsrLaIGctHlaWla1dpa/nBPd+fm5ubmmIsXi59sbfckNHa4I241tquu3eltXPzZYoRsHYBFxyjbVVC2q2YXVmTYfjyAGjYf6cVkE9mVUDZ4/ryASMxyHRH5vAi5NWqOsJu+C0D4xsfAeyMI9swYmPZoIMrmE/kUUGYS8fIUUCxXQmnVIlobBYdZj9A3jaSYVgQQQflZQi6XGnKNsGVYIHglCKYINSlpBBy2KMyJ06Lgghi7L8gx91AYQrYJMfYjKVIryMZSDk0+H8QNqs9ig+kr1Eg9p6V6K8mWC5BeIuL+HnZFN/uCEpnlCm6ysbxzwzDHacBTEx+DequBSCqBIDWAOhg2CEMAuVOFsIxwyKbJoQ/VwyTTYfq48chzpn5x99T/Q3g9zXVud9O+mupKsKza1Hip4sjfPt5pMVP+9tvdexOMpEuWLAGfz0deXh7aSD1bfW4wcrLPu7vrH+np7trr83nu3Lx+5VRPhzu9p9mnu+W5pv7G8038tA9fAS/uCaw760DiWSESzrJBCxJq9ELKm3yyi1LO3sadGcjZ4F01kXCV20m5hEQKMfJqFNhxRoEoNp/RBgVMLjtU+SLw04mkqRqoyM7qnSaIXpbDbDBgmMIGW6QWoWttlEe1GJQRAkGulKwxqaPLBvt6C0QxPBiNKtgUdkSPGY20H4aT1R5A9VJi3N4oBFAenX6IPQAgRyYpZSp7GKCUTwQUURkx4k9TrmYz71cEceqZW2mjn+yCl5TKUJ4u0mLl+zbKyAOgfEcETYIBmiwt5GS3zXt0EGWIoUmjTmSFFcEOAayhVoRb2POj4ZVdvpYtrV7v69zJ/0+g99f5PC2L2H59fd3ydvpfdLS34uh333CdqNi/9OG9CUZSduGIkfSDDz4gkrbtoMZR29XZ8Y3b7ebu4d13H+7v7Gyf1dd3+XBnZ0tSV6N3x53Wa+u3Ho3fGnNwHAQpTyC20A4XKU0yWVp27zOvht30l1CjJgWqYgPsA0iN5Ig/5kD6uShklekRd3oQnKVipF4Iw8j3rDCQCrKxt0LKdiHJpI7pZmjIwrI5dsXDpRhGWdShMsIwWQtzvBUipxjBGdR4c8kKu+SwJJpgfFXHDRow6gywWyMQM2041v5NjL2NQ7HppB7mHCuEqXws/ZoyaKWKqyO7Cp1WQrmzTMyNgMq+QGpfzgdbTS3lrBkpp8OQU2nhni1lQx2dZRYsOTIaylWDYEhScyt985OkRFI51VdKhFXAEueAYrIOWouR8r4FkcPCsGnDuq/6+/uf8vnc//AqLnWELwJ4+KeBDe4Ub0vLjEt1tfEHD+xDwJDBkEqkfpLei2AXjt544w0IqKemfApqRFafzyfu6mp/0ev1PnS3GIfGxtK/tLTVBXdd8gxCV9/A1/ctdTo+eJ5UbAAST5uo0cuQSuqZeFaAbLKSqUWUPZnFrRTDVUUEKLFgLtnYBTtlyK8O525rpJ4TYNmXlD3TBFBkGaHeKYc0NxDCFCU0znCYd2thWmKE1qHCcEMYLFYzFPPZkDsdJNxy/SJIs6hsnhKq1ZRLY2SwGhywmejYyAiETbNhfu4z2N+ow9KvLOBRflbsGoIdJ23IpwydXkrqWEY2lg3/o84l5byQMidbGS2Auxq99ogeC3bJkFFkQUYFU9xgssImvHgoBnI2M2H8YMjz1AhJJXLm6qEnRTdRR6NfpoUh2oxo7oKRDlNnTcNF98Xzd0/lP0VXV9effd6Wa15vy6S7r01s6CAjqX/BpnsU33///Yx58+bBQFYyIyNjE5H0ibsf/QLq3e8/cODA73v6Wg30+Zftbveo/h+vTnKdzm+X7rRBtfMZJB1n89LyOUImF4pIVU2kkjpq9IwEEm7ETl5lJF5K5GPEqidJoUzYeVFFqirFK3sCEEJZjpeuRGDaIPCdAyFNpwafEw1tngy6GQqEEjmjNaGwRNshXmZGSJocioxgqFOIpBlEjF0aCBcEQWQSIlI/AuGOUZCHmWCaqsLGz/TILNJh3iELnol7ErLdTyDuhzDkFplIRdnYYQ23sdFQqUVMWcVEWAF21jjweq4M0Ssew44f2OJNQ4mkgdxE36Z8NSl+CIakP4uhWSGQ7zRyK7hp0iQIZQMxXuFBpzfCIWW3iyKxNmljTef1K7M8re0bfb6WkaSaK++eXg4+jyeltbXF4HE3u+hzbqaLlpYWWV9fb9VPdpfvt7v3KpjdXbp0KXQ6HbO8Ubdu9C273ne1sKmpKZCRs6am5gGPp1FFWSmbPUbV19se9+Pt22249uNr03dO3KPco4KuIATbTiiwqzoIGZQ704oCuQsyrjIHks+HEGl5SK0QkcWNwJjlgXhhdSByiszIquNj3XlSyqwgDKVcqSLrqIuXQpIdiKCCIIjTVTCssUEdZkaoyYYwmwaKMUJot5AtzjZCn6ogWyyGMFcI+1qyuzFh0CkcCCOCGqO1eGmjGCsOy8luW7C9UI0X9lC+TZEiipR681kZ8mp/Gk2UWhJA5BMjo1hLDsCInXXUeZDtza16AZM3CRH++p+RdcZOGVaM2BI9Xv1YBYlLADZdpzxDAlG8APosA1QZGshy5IheGgFHqAXhYWFku42IiYlGYfGZbzs7O/XNzU1fkkN5srW19e/mMvJ4PILu7u5Hfr5/ytDcXD+m53Ln0bgd2+YZDeQeZHIsXLjQT9J7DYyky5cv5+6TLlq06I3+vr5BN3p6Qthn1JAG+Lzu71g2bW9vfJq9191eu6j3imd/f1P/fwyLN2Vp9qmhyudh6yk1sqmxp5yWEhn52EUqmXxaSxmPZVJSqHIJFr33DEa9/SS2fRCBggsGxFUOxVsn9FCmCxGYJYSRLKwhSQledjCC9vMgT1HDON8KqyMadoMdljAZjLMV0MQbyOKqyPJSHnVKiSSUC19VwmYxwaYaDZlWg0lvK5B9cgQpOil8lQoJ1aEYRR2KYEMIRu8UY/N5PtVNTVmTLC+baIyyM1PT1EIl5U4h5eUQzCNbPHbt41izX4+Uk0oklkqw+gx1GOzplizqVPKVUFAWlqSKoEyj7JxFVjyNHMBEI8xKAyIjw2CzW7B69cpusq0DiZyDqdP7X5zKP0O71+vo67uatX7Nmilmk56zu+R6/CS911BZWflabGwspFIpDh8+fOP27dsR7H02Xpd69UGelubP2LSdpKr/5vPVPXW5q35FZ8dFbhmEccmRu3TsaqZzKLadMcBVJEdBZQzlN/bcpRAJbNHdatovE3Fz727/Xoy4L2zIPReJbMqvW8pFGFEQDP4WPiTpIhjILkrJLg7J5kG4RwPjdgtME7WIDn0eJp0FmhgJIjfYoSBbHEIWk58ZAHu+HpolYRCFKoikSli1w2EbpUT8F1YcqInkZohIOM3D4mMGOPZZEBSnwJj9SsRSFl71oQJx30cio0RFJKUcTXVKPCNE/Gk+uQEpYr+j+n6twa6KSGReUGJLhRzP7wuCNlEBbaYRAvZg+i6y6Tv5EFL9LSkOaFdZIQtXQq/SwEKdxqRJE1BSUvzNtWtXxpCNzWbn7V+BDcVsa2j4K/38fVtbW1B//+2xJ4//0CfgB1Mk0RPhV/tJeq+hvb19RE5OTjMbzJCQkICLDQ1cHvK6W842NjYKuUIEb0vLJHrvvctdDfO6u+oz2HvTnGN3GveYEZQ8BBtPmrH+MB9JR8O5xZcSzwTCVW4mggYRQQOJKMz+arD/YgSSiAiJZH+XnVHAniOBNEELTYqMlFEEnpON01VAlmmDeZENtjAVYkwjoGYzzk9VIjTFBiVZY1FuCCQ5wbDFmonIYVCRXR9md8Ds0GDOFhv21UUgs+Q57L8gQEqJBs/vF1JutEHgsmPEPjkprBnj3h2E+S7K4sUmsryBcF7gE2FltOngPC/DnjIqd15OpA1BeoMWs78LgjTxWajSHTCkWomkEgTuDEHQXh4kTlL5tTbopztgDLNQh2GmCKG58847y081NTXMdLtbdnm9xX93Ie4fgVlh6hjP+TzNs7zu5g1siOCHH7yHJx5/DHPnzMapU6dm3S3qx72ExMTEt0JDyQ6OGoUTx46x5xsfpYZV3dDQIKAe/d99zc26tja3udXrXtbT07ygq7uJI+nb78/bad0fgYD4ALx71IrF+VIMX/4kUs6oiQSU6YgIbG6j1FIR8qtCKa9KkHwuAIklwYitNmLE7gBuEIAiwww95bmQpACEZIdAnmeEaoODbKMJ4UYdwjR2KMO1UC8zQOFU/7S+Cnu4mzKp/BUdTFYDwm1EVo0Bk98UY/uXdjhLDcivew65lUos/1YBa7YIfJcVwdkmjHlPR8QMJ4v8J0xPYKt3O7hbRKnFQ7nbL9kVZm4We9fZIUg6FYDsOgM2UlZ15A2AKIVH5DRDnaijXKxCAOXnkDwBNMnUibymgTnKiqioKKiUcsyc+TIOHtwjb231/jJq678Cuy/de+UyvB63j/4Pf6q6UL562dIloI+wcMGCanqPczp+3GMoLS1dRTYKQ4YMwWeffoKbN28qWltbluDcuX+jnl3ooxZztyhrRG91Xm5IYPupZ2ILIt4ficFxQ/H2Fybs+GQyJJMfxvpPhKRGQsp37MJMINIpj7pKzDhwUY+sykDElvKxqWIETBliPLdpMMRZamhcRgSnD4HQFQRdihHaeXZoQ82IIJtrNeigfckERaIZITli6POUcMQZYFiihSrGjDCThTKrHCpDANbtJ4LVWLHtuBD73QasLbQimmwxu8gkz7GBnyFHBBF23PYBcCx4ECve12BnrRVppaT2REr2IHoaOQFXmRS7SIXZVCnJNcMw47AGymQiZLIAEpcGcrK6mhwFN+mZPFkD3UojFKPksFstiAqLgIE6l/T01M9+vlru87n/6XO6/xlUNs/tbl578+ZVyelTJ6BUyLipVsaPfX7p3SJ+3GsgyxualZV1btCgQRg3dgwKz55OIAV92OttmdHudvNavd4lrFx14/WAazd7v75160pJf1H/MwX1WQnRh8ZjcAIPsw/KMC8hFCMWCZBw1ISEU4FkexXIrh6KpKIQpBwndT0vQE5NIBIrNXhhvw76NLLKKQIEucgu5lggLuBBkTcU+vVyGCbbYDSFwqELhdWuhmNpGCS5JrKWYhiy5QhbaYBshApGBymXOQpmtQKzl2soY5qRVicl9eYh5XQ4RnyggiZeAB1ZamWamvKsAJb4oZiaoMKaQ1aqo50bmphexkgayN2SYURNPBOALMrMaeVGzHpPijAiuTrZADkRVJzHhyxrKGQZITDnmGGNDYN8Bik85eLhNlJ9kQSbt2zCiRMnAtl5I0ey1Ot1pzc3N/6XVpXKvnJ397662ppEpqL/9offwWTQnfvk0CEuivhxj+Lo0aNbFy5ciD/96X/AmZlOHAXP63a/8esBDa2NrdP7eq7U9968/kPP9Ztni66Xnntx73SEbAlGRF4wXsuS4t1DoUgrsSCtjGwkWdr4czzEndNid4UDmUTcuPMhWH1eD33yIChTFNDnGCBO50GWL4FslwyGLBP08w0wWo2I1EYiVBMO83QdbNQByPYTkfcaodtmhvYFUleTnlR0BAxKKybMUiLzxHBs+MqAKekDKGNGY/YBBfiJA6FIkZAdpU4h3QYdEVVHtnrh0Ug4qyxwVfx0X9RZwa5E25BAVj25VI0ctkwj5dMNZ9gyjDIMTZQjKJW+I09FKvo0hmY9CyX9vWGxoRi2YBg0kWR17UbIpSKMHBGDS3W1uHXrmoZdAGpsrF/v9bQkkDq+STlfSa9n3z2l99XXX5zcf+d2KrtIRO8vaG5qyOvs7Fx0/fr1wPfeO8gNYmArfK9csWLr3UP8uFdx7do13RdffFEUGhYKgYCHbdu2Fdz9iIPH0yDwNDbkXCks5P9QVz6wo//W/PpbzefiPt8M7VYJZ1WXfadDSpkV8ZQ9M0iFdtWqkHJOhsSzOsR+KYTzhAFxxVEYuScE0pTnoHJKYcgkUmZqoN4XAm2uFYq3HdCEGxCmIJIaSU2jQ2HaQlY3QwZlHpEkORT8yWRzTWZEGSNhVYUidIwMWz43Y7d3GGKPRUE58xHMyLMiPJN+B9lTXY4csmzKvjkmIpaZFDUIMR8ORXwpdSQV7LlWPhFVThZdj63fKfDuYbK8Z6xIJ4s++QBl2RQ+nqYOJTBbC5lTQscHYKgzELZsOyLeDofaovhpOhe9EXyVCJ9+9Sm6uzoySEn/4+7pu6/V45nOfl66dGlQU1P9JG9L0yRvm3d8VVWZEfhxWVeXZ1ALvcdGHPX29k7ds2fPexaLBY888ggbwFDU09Oj477Ij3sbxcXFovj4uNLg4ECEhTmQl+faSUowoLu74xCpQFpjY9077uYG7jlIb0NDzM07vfXfNR1BWLIDwZlCjC0QYtOpCGSX25BDCrqvnIfdF/j0eigW5wdgXpoBc98nYmXKEJwYTPlQCnGGCiKnEvJdOmg2WyEbLke4SodonQHSYZT/lhtgytPD4JLDuE0J9TQZ9EYNLGLKoioHrCNVeCXdiK2nrVjzgxQvZ4rBn/E4dOt5MGeTNU4jYhJBg3KeA28v2em9OijS6DsS+Fj2hRVJ541w1gjhqn0OeZVB2Fkcjtd3SDF6Ew8vfRcKQ2oQZDtCqCMxQEOdiNClR3C2Cto4LSI2hkH5vBx6kwY2nRkahRIZOWloa/clUxZ9gNQz3u1u+qSmpuZP7Jx5PB4lRYe1bL+5+ZK2vr42g8rtv1RxaRB772ccOnQo88UXX8Rf/vIXNlyzdO7cub9cZffDD2og7/Fmz361/KmnHofdbsXu3TsP9PX1Lvd43FeuX79a7Gtzcw99dzS799/uuZJUd6Pk89c/XgB+ugHqzBBMP6zFxpMmZJxRYFcpG4WkRUGzCYt222GYI4FqpQgmlxUilwpD0/kQuESQOOVQbTKBN0kCW6gFw3UOGIxkf2cJoaIMqM7SwrRDD8nkQNitakxkz5RqrJAPU8K6yobwXC3C8wJhjH0a4gWBkC62QJ0WBQGRW5ZNZHcKIUwZDHm6CFqnGfIUA4QJMlJaGV79WIHN5WqkNYjguqhH5tlxmLBYgYCpT0O5ywj9Ti10LhlUGSLusTlplhGydDvCl4ZCPZayc5gOEbYw6MUaJG7dhra25nQiHhcRvN5mB5H0+W+//fYP7LXP53uqze02s32GqqqqIdQJjm+sv7jL29ysZe99/vnn+2bMmIGHHnoIDz74YLlSqeRxhf3w49eorq76YtOmDbcffvhByOVSxMXF7iG7pafGZ2xubl5RX1+/vM/jGdRZU5vY39/T9UH9R3BkjSNlJGuZG4wx+/l4/TMFVh2zYMUPEZj3pR3mVSIoFihhijdDkiKHOOen+XRlRGxDrAzWKXpoo7TQ2+2QUtbUTTHj+bgohFFZ+dsmBI+TwTLchNHmKIRLrJDa6fiVSgjSdRCSDebnCDF42xBoYq0Ic40HP1uPJ12Dwdsjg5FIbl2hhvIF+q5XTFBvdoBPyixICyHrGghLzhCMpjqP3y2HeUMwxK8FQPa2HOpsUuFdKvB3BpN6DiaiimHaroNxMSnnaCNsESZYjEYoeQpsXbnpjqeuccutH6/M7b9z8/vuzo4z3d1ebiFgNhiEO7G/gs/d9AKdz+8bGmoVPp97f9/VqxNTkuOzhw8fjj/+8Y8IDw+/TeTmnj0lBZ7W0tLyd2N9/bjHQY3nrxcuXAhesmRR9cCBz4JtGzasLy0pKYqlnv9x+vxRVs5XXZvWf+tqT/3N+tbk0zm3takmiJNFlAEl0OfxYcgVwZyjh2CLDAMXDiY7K4ctzwJJKpthngd7ph62HaSUr/Jg0SsRFkp216KFZhrl1o3TEbMqEvZXgqCMMUFms0KrNWC4ORrjh4+7vjBpcc+o/WMRmBJChBOAV8CDaJcAGqcMpiwFDAWk0nl/hTxDCf0KJYZPj0SYKQrBIhWCJ8mgTlRwJJVmUYeRqoQ4UQNVqhkhmyQQb2NzE1mgSZRBlMaHpEAC7R4NDFsV0L8ipJwsgNGgglouh4QvwcY1m1FTXrOfzssD7e3tT9+6dU11tbNT7PW2HL1x/Rqby+0bdr68Xq+m1etxsv3u+vpHqHwgbU/UVFV+ULBrpy9w6BDO4ioUiuqXX355EPs/sLJE0ieoc/ynU376cQ+DjTfNy8utHjYsAo8//hhmTJuKA9l5Ka29vQOIrH/o7u4ecp22m73d8uarje3rvtoMW0IERMlyDMkOwdPpg8GnjChPIKKkaSFLFUCQEgRNjhKqOAXMK01wvGaHKkLDEdBOCuqIMmLY/JGwvTUS8jFqWBxEOLUBMoUCdrLCS95c1Hbqy5PHOro6ph1xH7k8++A0OJwaDIkdTBZaDDURzrhJjmiyx6Z3qLN4WQ/1SCns4WbopFaYtdEYN3PylSWuOdWhTnOvNEkCYayI7C9TdTXkbMmKLClCiJz8JD4UKUTYFKrnOisM06kDCaPvN+qgV9HfoJRj6bLlP16+3Fvd3XN1DTtnPndzirep6WW27/V6vmpr87Wze83sNSNxU1MT18HR+fvdlStXHj+4f2/qsqVLbv7lkUfw5BOPg8hZnZWVxcjLEdQPP/5LUGMafOrU8Zo333wdAQEBEAQEYc3mDTcLPj6w/Mcbt1ZRYxLfaGtb2X+jr7i934uMUxkITYtEcLoYg7OGIjgrEIoMPlQ5Muh266DKUkO2VQ7dCiM0k/VQ6DXQG+xQ22yUN/UYNZwULFyEv2oGIkQvRbgtEqPDh+HVmS9iS8Lqj3yNjQH9N/pL+7y9Gf39t0dUdJ8u3XT03dJJrmk3Fatt4M9SQTZRC4GD7KxWwSmdmUgVGRWKmFGjsGL5Bm9KbE50fXU1f0/Dnpq3jr4B+aZgyJMCocrmQZFPRN+rhTzXCHkiEXutAbqXFdDFUKcSaqKsHAql0orJE8YhLz+7v8nbcoDOQTDrtBqpbt6WlgOtLT9dyaX37i8vL/93+vl7UsJfZv9j5+zs2TObk5MSbj7x+KPcFVylQo7U1OSa3t5eNm73cSIzu2h3/91D/PDjX4MaS4Db7T66bdu2oyEhIc2PPfYY1Go1xo8fv2np0qUWanRWVq7/qi+375b33Lmm77H8wNsYnTkGoQVR4GWpEBgv5u5vmpeGQTlKBZVODpVYBJNKghcnjsYrL8/AuLHPY9TI4RgzeiTGjXkekyaMh0Gv++G9g/tulpUWf0X1ePhKV5fp8uWuOK+n5XuucnfhaWx5Z29Bwa2Xpk7FxPHjSPWnYcK4sXhlxkuY8dK0W28tXHC0vKz4aHt760aqb0xTfX1mb//to/sqjxxe9fGavrkfzIVtO9ntd+TQrtYhbMEwRIwaAXNkKBQ6FUQSNoevHS9NmYIlCxbg1KkTJ6ge2zo7WyObmhq/ZXUgki5oaGiYyfbpfBl/pZoPEvnYlVzL8ePHFx08eBA26pQefPBBaDQaTJgwoaiqqupLdp5ZeQY/Qf343wY1MNuiRYvqIyMjcd/990OlUiEpKQlZWa45ff39Zta4rvZfdtZdrzn2aeWRa/Py5344PWlq06ilkQgwDsBg0TMYFhqBEaEjMefl+di8eWt/Xp4rr2BX/oerVq34cNarMz+cN29OwfZtW7KqKiu679y5uamnu3sNNfD/6O6+Prizsw19164eoby3pLW1VUYbt+I4Q4e39fXGS5cOfHDwwIeu7Mz3c1xZucXFhR/W19W+c7cIEenSSPquz30+n569vt3SO/zKtdbe2t6iQ3u/yca0N8dA55BAYZDAGGEnosZgxLhRmDr9RcRER53My3J+2Onz5bNjL1++/JempoaNNTU177LXvwa70NPX18fdWmFPFu3du/e1/Px8REdHc+Nw2VNHRNT6b7755kOqzwranmRl/fDjvwXUoBylpaXOmTNnto4dO5ZrdAqFEguWLMfkGa/MabzUMp7KvEEbt4J1V2OV6YsP9jftd2YjbfU2LJgw9+OPcj6+Xll8adeV2/1JRG6OMD+DjpPTNrejrW3HjevXdvs8LW+xB6Kp4T/n9bqX3S12X2urZ1xLU0M+lV3R1tYc1NrqjqB9Tr0Y+vqucAr/Mzwej7q+vurvbmlcqWlddrnRva33eu9LfX0d6Z+8/55z3aJVp5cvWN4pM6qctkiHc+nKpc7C84VO6oAG3D2MA32fwONp+odXXakeWqozm4nx9XXr1sFsNnPniXVqERERrQkJCU4qY2dl6XsWs4tKbN8PP/5bQY1sZFlZ2SZS1mtTyWY+TvkqYGggZs+ei7WrVjdu27x5HpvpgcoF06ag7a3+npud9FNFGzcZl+96Y8CVG9297qamX8astrqbIulzJ1nHIey119u8jD2Azn1IaG9389zuem7Aem1tpY2VbW1tkXk8zbN+frzO7W5Kd7c0XWf7P4MIvu56X6+byM51ChUNNa94+tpWNV/1bW3qcvdyhQj0fSFEyH+6ZmhXV92fGxvrF959+QvoGBkduzwrK3P5+vXrvWyCN4oHeOCBB8Ccx7Rp065t3bp107Vr10bdPcQPP/7PgDXoysrKRS9OGrt25fKFkMkEnGpotGq8+fabmPH6q0Xz1i9dU9Jas5Qa8SzaHvqxv2caO7a18ezQ7o76Ky0tjdzFFrKx44lEw9n+P0Ob1zv+xvU+kJJy3/Gf0ebzbPK0NCc1NzeMo+96jCxyDnUWuT6fZxv97pVEei0RemFtU12mt699WVOvZ3Fje+Oy6x1tO9vr639R6n+F9vZ2dp/zUdp2tLW17sjOdu5YsOD1IjYVDRvO97vf/Q5PPvkk2MghIuraffv2Lfrxxx//5WLBfvjxfwQ3+zonrV69aGpMTFTcslVLMVgwBH988iEEyfgYPWksHn36iY+ino9yfX/8q/7OTveBOzd60vtveVR3D7+vizJmR4eXG33zM6gT+D0p406fx51D+/f3EPGIHBPI3pqaGupmNjTUTblb9D42YZrP557iduPBjo62lFZvS0Fbm+/VW7euz/3197KRQGxu4a66xhUddU0ZKMe/3+hoW9Dd3LyWfseBzrvDHz3UeXR3t//y9El//50N169dyfvii08SV69e+enKlSswefIkaDRqIub9XOf0wgsvsOlo4il/Ti0sLORm/fPDj//rQCR6oLO3M3rC1AnR7yxdejBxUzzCjRF46tGnMHDQYMiVCrDRNTHRIzBs2Ih9mRmpR7795qsjN/t6D/Tfvh1+92t+QU9P10jaOIW9ceMKj75/L5Hw5Ta3W8GmIOUK/QpkKZ9tb/P62ny+t1hZn9v9d2uvMHR0X918pb3z7WueDm6l7Z9xu/9OTuf1ngI6znH7Wm93eXFRgzMz48jE8eOOTHlhIsaMGc1lzMGDB3KkHDx4EObPn4f9+/dh+/Ztrk8++SSa/f0/fZsffvw/AGqwT/T39euT1ybreU/z9ClJKdUr31lJ6qPDww//CX8d8DSkUgl0Oi2io4ZBq9V2Wa3WU/Pnzz8RGxt74uOPPz7x9ddff1pTU/NpXV1d/uXLl5nNjLp69eo/HXhOavjHGzdusPuXv2dlb/b2/nIV+Gf4Onp0jc3Nuy81XPrk+++/P37w4MET27dv/37xkiWl015+qU3A57daiYxGg4G75fTcc8/i/vvvw5AhASxfIjk5Cbm5OWdHjx6tJ8Vkwyb19Pv+fPfr/fDj/11QQx5YX1/PW758OW/QoEG8yeQXExMTe1977bVepVLZS1nux2effZabsJtec/cSf/7J5mL685//XDtw4MBim812YcKECbVTpkypJNJUzpw5s3LevHmVixYtqqRsWLFw4cJzc+bMKZs6dfpp+rxw0qRJlcOGDaskK1pL33fpgQceKGe/w2g0so6BW/6RLYoUGBiIRx99lDqQh+8EBAT0Egl7V65c2ZuXl9f76quvxowZM4b32Wef8ejvYIrOzaLohx//34Ma/IDTp08PmDt37gAi7gCyjOnfffedLzs727dhwwYfqaovKirKFxwc3EYEuvrHP/7x6kMPPXT1mWeegVgs5sjLCMb22T1ImUwGuVzObew1+5wRkv0cMGAAe8rk6oMPPnj1scceayPC+iZOnOh7++23fcnJyb4vv/zSR6qa+cQTTwwYP378gNzc3AHs6jKr493q+uGHH0SIP9D28M9beXn5wykpKQ8TaR4m8rDFpLiNCLWwqqqq5tixYzXffvttzVdffVXz6aef1hw+fLjmyJEjNUePHq0hq8y9z/YvXbpUw2bt//l4Iu7D1DE8fODAgYeJiL/8Ptq4x8v88MOP/wYQoe7/Ldvdw/zwww8//PDDDz/88MMPP/zwww8//PDDDz/88MMPP/zwww8//PDDDz/88ON/F/fd9z8Byndn+SRJoI8AAAAASUVORK5CYII=;" parent="1" vertex="1">
          <mxGeometry x="56.489999999999995" y="200" width="166.51" height="130.77" as="geometry" />
        </mxCell>
        <mxCell id="S3AjZwHqo7CkDDV8pgAv-132" style="edgeStyle=orthogonalEdgeStyle;rounded=0;orthogonalLoop=1;jettySize=auto;html=1;entryX=0;entryY=0.5;entryDx=0;entryDy=0;exitX=0.5;exitY=0;exitDx=0;exitDy=0;dashed=1;dashPattern=8 8;" parent="1" source="S3AjZwHqo7CkDDV8pgAv-130" target="S3AjZwHqo7CkDDV8pgAv-6" edge="1">
          <mxGeometry relative="1" as="geometry">
            <mxPoint x="537" y="583" as="sourcePoint" />
            <mxPoint x="150" y="341" as="targetPoint" />
            <Array as="points">
              <mxPoint x="140" y="99" />
            </Array>
          </mxGeometry>
        </mxCell>
        <mxCell id="S3AjZwHqo7CkDDV8pgAv-133" value="" style="shape=image;verticalLabelPosition=bottom;labelBackgroundColor=default;verticalAlign=top;aspect=fixed;imageAspect=0;image=data:image/png,iVBORw0KGgoAAAANSUhEUgAAAMAAAAB3CAYAAABVE0/KAAAAAXNSR0IArs4c6QAAAARnQU1BAACxjwv8YQUAAAAJcEhZcwAAFxEAABcRAcom8z8AACw2SURBVHhe7X0HWBTX97YmmsT0qNGY6i+JKRrFgoqiiN3YUKNiwd4bAoqKikoxFuwVGwIWqlJsqCCKgOAiIkVAUJoFBBEEBEXn/t8zO7tSlmaJ+H33fZ7z7OydmTtl3/fcc+7cO1uDg4ODg4ODg4ODo5pCEIQPGWOfkqWlpX3q7BtZzHwj08R1CpN24+B4txGbfF9L3y6k/0G/2NDdPjGpC2z9UqdvP5s6ct3p1GFrT6cOt8LnGq/UCRvPpBrsOpdq5hSc6hiUmGp5JNTUxe9mfwinl1QVB8e7AXjw967Gp60bueHM/hEbvISB6y8w9UUeTG3+EdYC1t7Eg7VfXMRM3JjGoqOsjbEra2bkzJrDOpseY2O2XWTzDwQxmwuJh/MLC7WpXukQHBzVE4wlfLTc4fLhcbtDmLbFWdbM0Im1nu/M2i10ZRpkiyAAfBazBS6svbGTaBoLnJnGfEfWzugwU9O3Z7/NtGOdzL3Y5J2+j6/E3vWCCL6SDsXBUb2AcKXO1B0+Lp0tzjA1ePGWRk6s47ITrJPZKdbR9ARrS0Qvh/yigfzt5x2W7BDTgLU1PMCa6R9kQ6zOMo/guIuUT0iH5OCoPvAIjt8waHMAaznPmbWCAMbs8Ge2PlGX3ALjzgxcdTK4A0KdqpC/qHWA/TlzP9NZc5K5+Uf1lQ7JwVF9MHPn+QM9V50TPX/f1WeZ19VkZ4QstWhddnZBk9n7AvIovm9PYZBK8hcnvdKMDrL2Bnas3dz9rKOJK7N0CvIXD8jBUZ0wcfM5mx7/+rCm+g5skUsEQ6gyUVpFifFXy51C3NstPgbCQwSlyF/a68uNyG+rtM4mzqy3yUEfqVoOjuqDyVvkAvjLwJGN3x3EIhLuG0irKD9QX+N+jTWdg7i+FPlVER8mef6iAui0yJn1XGjnLVXLwVF9oBCAurELa7PwCJtu7Xvf1Clk8IRtvp1WHQkJ1l7mydTngfAv4fmLCqDXInsuAI7qB4UAqLenHaylsSvrZnGK9VnpxVphWX2ewwvvX0XPzwXAUe1BOUC3ld6sDWJ8hQjUsdwGXr8tCK80IwfW1pC6Nw+ydkYlBaDa8ytMc6Ej68VDII7qiBnWFw4P2nqZaZt7wfOflpvZyRJ2gnVb7gk7xrrDNIwdIAKQXun5VRNfYbwF4Ki2kMWnT4+4k3XCN/LOiQtKu12mBcbcO7H7dPiDVgiNRBGoIHxJ01xwmLcAHG8PjD1pKQiCZVpOfinLzi9c8fTZM9OnglApQz2mJ0MSElshDGo3VzXhi1q7OXuY5vwDrIex7Rk6F+GBu5HwYI2lkLJSMgtL4eEOSyHjrL54shwcrwOMscYXom/Pt/KMCP/b8nj6+L3BTG9XEBtTwvSsL7HROwNhAZUyPetA1sPMnanr26gkvNLm2oD8u1m72btEAXQztvei8xLubclkeRMYezCGsXQ92GjGMsczlqzHhKTp4cLjo8MhsnriRXBwvAxAoLZusuSUIRvOsbaLPVk7E3fW3MCRtTAsw+Yehh16YfoHWYs59pLZFbfZtqzVbBumoYr0RazdbDn5Swng9qp4lvQ3Y9E9GbveQ25R3fG9G2O3UHZvIhMeX5DhGhqJF8PBURXA83+50ysio9NyL6Y2z7n4OB5VtqDkE14HqWdHVV9/JWL+ufvh+fcqyV9KAHfWxLOEviB8L1hvuV3HchTITxbZCa3CNMaS7MeLF8TBURWYOwbP01xxkrUxVjGKs6SVGt6gIL8qqwz59xUjvkoB3IYAblELoIL8ogDQGkRqMuHO4kdCYW5/8aI4OCqDlLSMoQscw1hzo0qQvyqev8LeHjuJ/NalyF+uAEqRH+FQBAQQ1hk5wigmpNntEi+Mg6MiIPSpf+BclE93y9OszfwKQp8yya/CKtPVWYbnVxgJoMs82xcCSIAASpKfiE8WjlwgHJ+xnZiQMDkI1/WzeIEcHOXhSc6TFhtPXWe/zXFgGotUkF5hr9vz65ft+cnaztrFOhkfZOPXuJ2m8xQFcLMPSE/JryrySwIIbY9WYD4TMv14GMRRMTa5Xmoyer0Xa22sgvQK+489v2izrJm60QFmcybSl85TuGEQx+IR/ijIT2GPkvgK6yoPg24OYMLVIV3FC+TgKA8BMXcPdTM/pXoKY7nkfzOen0xjzm72x6RtTMfyKPO8cKe1IGRNE1Jn5rPr2i/IX8zzS3YN669qIUxCMpxq74sw6APpMjk4VMMrLDGy7dJjIHpVyK/CRPKrHtWpNJH8qknfnmwOhT7W7K/J21iXJc7M9nSYOAxCSD+4SXzoFQkPr5L8KFeQ/2oXrFdnwu29DyCAj8SL5OAoC/vORsraLvGsAvlLe34Nifzq+vtZG8lazrFhreZIy7P3s9az97LWM3bCrEtZK5Q3m7KNNRm/manN3MPGbvFmB89HH6fzE/Lzuwt3F95hMSC4KvJfA/lF4isMAghvw4SUXbe5ADgqxDq3EJl6SQFU0vO3BfHbYV1z/QNMY/5hNtDCnQ1f5QnzYDoWbmzISg9xeSCWh1oeYcPKsKEWR9g/q9yZsX0g2+ohS4lJfriSzo2eTAtZtg/ZLcT+5OVLJb0U84PwxQQA4wLgqCwsHC/J1BdLAqA8oJKev43BAdbGyIH1W+H62No7NnH7iSurOht7th68NEitn3ms2uBVt9QGm9/CMj5puQyTr09RW3VMUAPhyX4BcT8WHhzpI6Rvz2YJ/UB6eP/yYn6FhSIBDuUC4KgCLByDXgigKPGLkb+4qRseZFqLj7B1ntcyzl9L6ixVBY+d1UsQ7HSFrNm6wv1RsDHF7UE5RuujuusKNw3WCunbnrCY4YzFgOQRqjx/WeTnAuCoIjZ6hMpDoFKeXzGNsbjnpxdXaSx0YRvcr2TDW7ejOoSCcDvh/sJTLHU+Y7lzGMscx9iD0TA96ROWMUpu6SNhIxi7L1ma7gu79w9jSdTN2YmxaBCehjeo8vxhZZFfEsC11lwAHJXDfp/rsrb0zs75Rclfdm9PG8NDbNAqz+TohHRtCKCOkHvsDMufBzKDvPEg7w3E63F9S9sNWGyfFxaD7cSRnTD6pJGdRR9yKRLekgIol/ywKxCPKABrLgCOiuETkRLdfilaAIUAyvD8ZO0M7ZmWqQezdPA/RfsKmV5eLHsSCA2SxiFWj+tftsWSAIpYNERQ5sC2Mvr5KyJ/iCZMLgB22yaLBCpeJAdHWTgXnrxRa5kna0cCED2/igdcZNTjY2DHtJe4PJXdytAXhAwNIdW4gN0CeeMGlCZ8UStJ/phKkL+qnl8kv2SR+H5nH72prrZ0mRwcqjFzb8BP/6w+idBGQX4VAjA6ID7Iovh/qJljNu0nPPK2Z4+mIrQBmVWRXmElyV/U85OpIn9R4pOVmfCWJD+8v6wtQrGBTIiZrSleIAdHeRCePGnxr3s4+32mHdNQSX758AYNQ1v212xbNn7jsUc1GHtPuGO+U5yeKMb4KohPdgNhUXnkr0zoU9LzlxRAUc9PAghqhmTbmAm5iXwwHEfFQJz8+TqPa67dzE+LffvFyS/3/EUFMG6DJICU2RDAKBC9jNi/IvIXJT6ZSs9f4ilvUeKXIj9M1gHH1WTCvc30WvWG0iVycJQP79CknsM2+GTRgy1V5FctgLllC6Ao8VWR/7V7fjJ4/5DWTEgY8UTIDhsrXRoHR+Ww2f3yGa0VJ8WHXKqmMVZaAMXITzO4XsbzVyHhFQ1lwW1w/M5MuOsUK10SB0flERp/v4nuas8YdXrFof5+OekrFMDI4gIoFvZUgvwVen5pnI9IfOlT9PRFyC/riM/WOLY2E9J23kXo0166JA6OqmGT89kfx2w6E9bV7DhTm72fNZ+xh6nN2iday9n72K/T9rHRVh4vBJAx4oUASpG/CPFF8iPsiaSRmojTr2mA6O1B7nbFLVRdTmbRWoHcaoxdhtFncAtY8xcW9BfqQR03IZgbQ5mQ7R4P8jeXLoWD4+VwJ/Pxj+aH/I/qrvXM193iy/qvOsEGrD4pWt/Vp9kS+4tMLgD9HUoBVEh+8vbw7nHjGMuwZOy+WXFLW1HCUJa6lLG78xi7Z8xY+qIStpCxB8uYcH1SspBr4yE8jZnBGPtSugQOjldHfiHTPnvt7ritRwPH7fAIFs36mGyc28XoURBATSHJcA9L1wX5FcSXrOhDLgX5ya4jRLm7Lx1eehZsZhVsGmycKgPp/5BOl4Pjv4WQaLif3R8u9/hK8pfw/gryiy1AVyYkLn4ipB2KFNIORghpdhFCahl211Zuj1wjhDv2O6VDcnBUHwhJRjbFBFAu+SnZJUMOQDO7yKKxHIWklkZ+KiwSSW0EGRLba8gVErSYcKWHn3RIDo7qgxcCKBHylCQ/GfX0lOztuVZ0JheEEAbih4H4oRACGfXwxCJsCu3NX4/OUf2gFIA4rLmq5Fd0dUIEoSA6vL8QNfSpEKX7VHzHJz3Rpe5OLgCO6gohab4NSxsG0oPkL0V+6tcnL98TucGqIOH+zibCfZsmQrL1FXZrEGOX23IBcFRfCElzbVjqUBC/V+XJT5PYlWEPvP+VlkxInV8gCEI3qVoam/S1cGOYP4vU4ALgqL5gyYtt5S2ACgGoJD+s5Bscrndgws1xASX78IWoAR4shlqHrkwI6ckF8K4BP+gH586dmxUWFrb6woULS319ff+fm5onZHrbiPMBouDVKyR/ideXKMf0tGMsbggTMs860D0jE7Iuu7BEPfnYHnrRbfjIAOmQHO8KCgsLu1lZWeXZ2NhE9O7d+3yLFi0aSKveSSAs+dDIyKjjxo0bf5eKUJb3vRBvcJnd7svEyetV8fwKAdD4Hll7xuJ1mZC8Ol5I3hDP4kejDOQPQXkS8oO7+3ZLh6wQOM/P3dzcbHbu3KkmFXG8DcCT1TQ3Nz/9888/s6+//jrV39//M2nVOwcfH58JOjo6p5o1a8aGDh3qKRWLEK7M+laIG3OJpfRHcouQRSR/CQGUSX7JxAFtaAkiyEB6mToS4NaM3eoG76/nKAg3PpQOVy42b948648//rjw66+/sr///nuvVMzxtgARNJ42bVrBRx999OzIkSOxHh4e0X5+ftEPHjzoJ23y2pCQkPDl8ePHw06ePBlubGzcfebMme2nTJki2rx589rPnTu3/YQJE5RG5Xp6eu3d3d3/vXz5cjT2i8b+XiRcqi83N/cbb2/vI6grGqRiH3zwAatduzbr06ePq3jAIhAi99QV7q4PYnlGjCX2AOFBYHqRVam3tilIL/Xz09sblKM6O+I7yB/SnLGb2CdzFhPuWdnhfGpJh1GJiIiIHw4fPuzVr1+/6O+++46hSDzX1q1b86fHbxN5eXntLS0t1zVu3LgQX1n79u3ZN998wzp37szi4uLGyLd6fUCOUX/AgAHPv/rqK/bjjz+y33//nf3222+sSZMmTE1NjbVp04Y1b96c/fXXX4w8Odkvv/zC6tevzxo0aMAgUtaxY0d6jYgogKdPn84ZPnw4e++990RSkdWtW5dBSC60viSw3zeCcN1EuDnDmt1eith9MGJ7eP9oEDsGhmRWfMmV0vD9uoaYBIvbREMwUQOYcMPgiRAzzkLICZ+HOt+Xqi8TcCaW06dPF88fX0X77LPPmLa29g5xA463A4QKRuQ5sSgakW/UqFHXW7Zsyfr27ZuCGDUSHvYq0FLc4RVBZEHI9WevXr2sP//88+dUpDCURcyfP/+Kvr7+FZDlyrhx466g7Iq6unocCVKx3YwZM24oBJCdnV3P1NS088SJE5NJJLQeoRyDqFUKoCgQhzcT7h/sL+RckAmptjIhea1MSDSTCXFzZULMTJkQC4ubLy9LWS8TMp1k7IHPeeHuprasoGqD23CshhcuXOhtZmYmq1WrVg6KGK6fde/enQvgbeLYsWMTyeuS1wfhGUIhFhoaemDFihV2n3zyCcOPJXoqkDE5KyurjbTbK4OSVXjpDCyKpG3UqFEBiK9ybiy2rRsZGWmK1kncfsmSJUoBKEBk/vPPP2OwyBo2bMi2bt1aoQDeFtq2bRtQs2ZNUQC9e/fmAngbAIE+unXrlhqSMEuQjxHZNTU1GWJU1q1bt5vLli075eXldQme9BltTkJAKJIxZ84cRxcXl1Yg3P/kNb0csD/1gmRQvfjKfvrpp4KxY8d+J1+rGhDrEfLuOLe4kgIgDBw48AiFGLTNli1bqq0AIOBAiv/JseD+cwH81yCPumHDhlP//POPSGyKmSnEQHPMdHR0WM+ePc8gFAlITk5ujh8oGfkBI0PszYyMjBiSUSaTyZJPnTplCiK+1OQO7PcFktkMRUyMfKBAV1f3B/la1cB51zM0NAzAcTNUCWDx4sXHSMgUClVnAaxbty6QrpsL4C0BRPoWBGcIGRjF+uSN6tWrJxKRjJLOPn36sL1792ajFchxd3c3Rtz+EB6YJSUluT58+PB/8NbmlLyixYg9dOjQEtT5q1h5JUECQH1VEgCBBIdjtZa+FgOuSSmATZs2VVsBrFmzhgvgbcLAwGAuPL6ARUaxKMXMiEsp/hcWLVp05cyZM7f8/f2jzp8/fyk/P38q7ZOXlzc3JiZmOQj4MzzwLIRGaZQzENmQNLOTJ0/epO0qi5cVQHkgAXz66aeimNeuXcsFwFEc8JwfmpiYzEO8LXYvzps3T0x+J02alBwcHNw9IiIiEeQPgpfvDIL2wPaa8PxNGjRo0NzW1vbU9u3bgyZMmJBBibKFhYVuSkpKe8Szurt27YpZunSp+DdBlUVVBBAbG/tzQEDAH9in3GEaRQUAklV7AdC5ItzkAvivAEI3mzVrFhsxYgQ7ceIES0xM3D5+/HhXJLa3sW7O/v37l+3YsSMYrYMByPigf//+Yt88kmLqnz+I7axPnz5tBe96acCAAVUKeUqiKgIwMzOLMDU1ZVlZWepSkUooBEDPGLDPOyEA3g36HwKka0kCmD59uk3Xrl2fDRkyRPPRo0eTES+zPXv2ZFhbW3ugXHySWqdOHYblR/DuN8+ePRuFfcW3F+Pz0zFjxuwYPHiwhljpS6KkAP73v//l4/MTcWURQJh10FrdnDFjBgmgrVSsElUVAM7hYyTzvezs7AKGDx8eCDIGICQJsLKyCqAWUdqsTCAX+geOJGDgwIGBX375ZSDCyUDq4sT9CUD+FHDz5k3xTzlKoqgA4FyUAsC5WLm6ugYi5wqAo1EaQs4AtMwBFy5cuIjW8LU8j/n/EvjBv0FIEwRPW0BhkKampjBo0CBBMXyAfhQKjah3CKKIAfmaSvspelxq79u3LxkCovzhR3nRy6GkABC2FB48eNDMz8/PEMcwRHhmiPMwXLhw4Rl6AoxPhvOpdAuAFqNcAQQGBo6bPHmyN/Vs0dNoymcoHKSc6OOPP6bY/GFQUJBy7H9JHD9+XAe5TwEdq1WrVmzYsGGsR48eDEJQ5lUeHh7B0ubFoBAAHadDhw5KAZCYIB4xhKNnBLSetqNlMnpec+XKlSBpc46XQVRUlJ6GhsYTRf87kV9qihnCH3bo0KFLhYWF/UFQ+leVRvfu3VP290dHRw9dvnw509fXZ56enq80iKukAMgo1KKwC6QQk+sPP/xQuW7FihWVFgCREMm8SgFQiwICLu3du7c4fALbFhobG6+H19XaunXr2tatWxdgM/FZAoS+Xb5XceTn53dDS0otFpE+GS3GgFu3bmnBW2theVevXr3Ec8Z9ChR3KIGyBIBz+xMeXgvnLiOHROvpyTzyq5tond0bN26sxVuAVwSI9x7IHkI9EO+//7449mf06NFiL9C4ceNomAE2YYPQ3IaBoE8gAH1pVxrP0tfR0XGtv79/eFhYWLRU/FIoKQAQ9xk83H4QYgtCCjeK+SnZ/vbbb8X1GzdurLQAvvjiC4ZllQIg8k6ZMkWsk65/6tSpUfI1coBowXRORMBJkyadxzFL5SUHDhzQa9eunVgHhKorL32BkJCQverq6vRsJQ37d5SKlShLAIRLly5ZofV5SqNzTUxMfBISEqbjXlU41oijCli3bp079ZdjUWxiKQQgr4kw4D6I5hITE6Pp4uKSZ29vX+js7PypfK8aNRCDO+MHbQ0RWPn4+NyQil8KJQUA75YP76nMAXCcrmQIhY5SSFBZAZCwKVyAh1YpgKdPn3awsLBIgvdPnD17duLt27cHSKtEIN6+RMTEItu5cycds498zQuMHz9eFzmLuE2XLl1CcnJyWsjXyIFre+/o0aN2uH9Xsf+fUrESCgFQngWhKAWAEHAHdTrQc5jDhw+7oZ6PpVUcrxO//fbbH4h3BcoDqLmm+BVJYDh+rEa46T2cnJxyIRKGxOtJfHy8coJMYmLiGBBoxubNm7djm1d6s3FJAZTVC5Sbm9urUaNGuZaWlkTGcl8mW1QAILdKAeC4NWGU0NeWPosBYUygQgAUEuKYPeVrXgAJ8mhFmENh2tChQ59t2bLFHqFjX/kWcqB+lZ5bIQCyli1brqeyxYsX723atKk4Kha5hxP25X+a96bg6ur6M8gm0IQMircp/BkwYMBNhD2+ZmZmkeRtz549Gx0XF2eNH+JLWC00xeIPguWaaKad9+zZ81pDoPK6QREDB4Jg+0DGz6UilVAIgAyhTblJcFHQ9aHu7xAKfo98IJTyIsoPcB9ysK6TtJkS2LYhHIY7CQ1fRaOcATnMM+RIXrhX5cbpJADy/nQMtCaJM2fO9KGwDavEISm4vyPkW3K8EeAH/B1hgDi+h3o+6Mcg7wPPfsXc3Jz9+++/J/Py8tZFRkYuTElJ6QsS1E5PTz8VEBDgBO83Hq0CJYivNP+1KgLA+VbqHxSLCgBxfoUCQL0tNm3aNGnkyJEec+bMEXvAFIk3kZue0uI835NvXRyBgYF1Jk+efAJJs1IEZLQfWoen27ZtO0T3jbYtCRKAopWhTwo/Kcyj72T9+/e/V9a+HK8B+OE/AYF37d+/X0x6UcT09PQYwpop8JypycnJ3tim7759+44gLi2EEPpAEHP09fUFxP+yGzdu5I0aNUpG9chrrDqqIoDKQiEASoTHjBlTVgj0Ac67EUIOG7R+96jrksSPXCMdiffeBQsWhFALQB4ZRN4k7aYSdP27d+8ePHbs2BjKCciRoFi077//nrpi7XE8ZQ6lQFEB4HzzlixZchktnBXqEHugatas+Rz3d5W4Mcebga2t7Wz8ePQATBwRSj/6ypUrCw4cOMDc3d0L0Bo4Y/0T6s1YsWIFDYmugYTPlYY9ODg4bEGS9zwpKclQrOwl8CYFQAk+CKRSAP7+/uoGBga5tB2RHI7AHYnwMIWYkdz7EZHJKyM32iLuVAFwLR/hnqHRmeJDCSwVkaEFYQ8ePFggblQECgFQLxRCp90kSirH+Z9XdE7QIEXc441UzvEGgJv+M5raCOrpUHivQYMGMWdn58xp06Zl0ywxDQ0Ntn379nQ/P787IEhdFxeXFnv37u1QUFDwO0IhmnW1UKquyiABVHU4dEWoSAA45vsgqTs9qKKvhoaGlOR+K18rB0gXROdED7h0dHTWSsVKYPvPfH19PSDegVKREkRkDw8Ph+bNm4tzKCikQiu6TL72BWg4NN1vCrewzTapuEZOTk535GJpWBTPr2fPngyt73JxJcfrBxLeABoaQU9+KSEjj4REzhc/0CUiP1qDR/jBGyg8VFGg5TiK/amr7qXmA5DHRTiVTsfEV1EAI0aMeKV/SzQxMfGgGJzI1a9fv8NSsRI419rwyum0SGZlZUUCKDamycvLy5/2Jw+9cOHC09inWAjz6NGjr5EzUPJKb4kr1UNEQIt5Cx+iF4dQLOSlLwDHIR6Drh1iK+blPT09p9PEJCyK1qRJk1jkXjwpfhM4dOjQMHhNZmxsrJxUTk9IEeY8oG4+6nq8efOmGUgg9kfjU9k1p6Wl1QThAjt//nwTqahKQF31QbAHtEgGIjyB+FqAVPXIxI2qCHjP0+S9ycP37duXBvj1LVoXCQDxunIaJj15RvzdkbY5e/ZsPYR8Y5E7ZCrWkxNAaxiE+o5u3bqVuibfz8zM/AKeOYsIjPuWLZPJ+inOmQwtYz2sT6D9kWPcodYSy0rQNl27dr1MD9rwlQ0ePPgmyrSoXFrfyN7e3pu6qGk9GQkOLct62oas6O/A8QrAzayzY8cOGYUCiqERNEkGnvnA8+fPzyMxi4yNjSUvmYQf0gafevI9a9QAEUxBCoZEepJUVCmgjg83bdo0AknnRZqKiSKlIX4uWLp06WOEDY/PnDlzAD/0F7RPRbh48WIPxPXWRSf3U05DxLGxsaG6tqOuj4nAON+jRY+LMCQHJHwMb/2YkuFJkyYx6h5WrCfHQLG8q6vrJdof9tXo0aOVk/np7RVTp07NWr16dRZyqGw4hsdU3qJFC2ZnZ1csiXZzc5sMp/KY8gt8FY3GDCEPYdbW1o/hkMTWgq572bJl56lrVbHdDz/8QB0Vj9euXft41apVs2g7jtcACGAEiFxINxhfxS5EGh6BfCAa3iyCHgYRKRYvXkxPJ0OcnJzEebuJiYnLQFR6WhpJ3yuL69ev1wMxsxFjF8ATPkTcn4lkM3P48OEPO3bsmAsh5mGzPIQRhSBCpd68AFKdBlko7s5q0KBBJhL3TIQRmRDEI5TlITTKhfDE80adH2/bts0V3vkxDTcgMdSvXz8PwsvD9Tli/TAIdPe3336b+f3332di3/hr166NxP7iMwgSMPKklcuXL8+EaKi1yCUSUz2UVNerV4/qeujt7U3JbbEu1AULFlzGB11fFrbPRCubOWTIkEyEazldunTJQ0h2D/WLLybDvl8hXzlDQsJvQoLLghjz1NTU8iDAmbQNx2uA5JGDaIAbJWU0CI0SQKwSvRuNwqRnBZQo01gheNoI7PMX7Dt4orjGjRsnTJ48udIT5PHD0sjSrxCr05se6qIepQUGBtaFF66L9XUhurrYtrJjYIg04n4gVV2IVKwLeYpYNnToUKpLSUZaRmjX9s6dOy4g93paT8eXVougMqlc5cM32p7qR8jYKCYmZt/t27ddwsPDLej4JetSoE+fPlSX8pySk5OV156VlVX3+PHjX0n3RwTKP0tKSnJGmDkYX+tCkHWRo9C18BDodQJhwhAa+kATZagHhd5cRuEAvFyun5+f3owZM4KphaAuUTTzAfhhxN6akJAQk71799L0Q3pLQ32xMg6Odw0g9IcIOa6uX79eTAypB4SEgASQ/ilxBDz9NYqFERs/g7efg7Le0n6fIDdwjIiIoKG/08XK3jHgGtSKtg5FgXU/5eXlfS99rRDY/nPUNYjui1TE8a4AecC3o0aNiqUHYxQbo0gMgRAvH7t69aqmtrZ2JvWu0BNOaikQL4uDuOLj45uAJLlI4O6uWbNmJJW9Kzh9+vQ4iDxclQBA4q/NzMzCxo4dO1QqKheooxY9PDx58iR1GrxUzxjHW8a///5rtmHDBhpKLAqA+qnr1KlTYGRkFId1T2nmE43Rp1lUPXv2vCLfS/6C2v379y+iRBlx7HipuNrD0NCQEuNSL9FVoHv37mvQ6okCAKl/EwvLARzIeHt7exJAuS/4ehkMGjSoHu79a6+XowTmzp27ByGP6OkVD8eoP5yeD9AkEHpoNmDAAHpWQJM9Bii857lz564dO3aM+sbz0SqMEit7i8C5tYKQD7q4uOzQ0dHZfOrUqb3Lli3bhYS/u52d3V4rKytnW1vbwXXr1nUDcXcMHz7czNfXtxaupya27XfgwIFtLVu29Pv777/HItfZgBYvxcDAYDHMtHXr1uPPnj07cerUqQYHDx4cgrrsaLQqrn0YjpdPcwyQF+3EvdwODNDS0lqAPMoa4eVuJN/WQ4YM2Y1WdFebNm12jx49ehccyi4kxKN37tw5BU7E3t3d3QnnaI2Eek+nTp126unp9VywYMEhXV3dkFu3bs2VLpHjTQA/RDt486f4Ae58/fXXNOZfHDJw48YNGpvCJkyYIA6cI08HMj11cHDwv3//fiMfH59m4eHh0y0tLSPpwRrwVlsCHP+L1atX24P0CSNHjoyht2CAtGmurq6PKddxdHQMgNDH1q5d2xpi/278+PF50dHR5tivPoWBgwcP7oMQ0KhLly70tgzm5uZGr4JxgBh8x40bF0L7h4aGukFcgQj/nuBeOCM/Go4Q6Dm2oZxo+Q8//NAZLSe7du0awzGhkS0koqOTJk26deTIEXfcyxg4jVMQ6vk7d+7QKx/pZWQ5EKbDxIkT/7WxsaGZbatx7FSss4LwTKnnSLpEjjcFkOQf/KBh8ILhv/zySzbF/jROiIhN8wdACvG5APVR08MahEbhQUFB4qAvCGEivV+UukxBuNFihW8J5M2pJwue9SQ8aB6S9THr1q2bS0+4PT09HRDjd/7iiy88Qcb92CYmMTFREy1HHQj8yPTp052GDRt23tzcPBi5TQ7i++e4tnWo80eEhHtB6KfY9tfZs2cHQiAZCP3M4c0nU6/Yjh07DqJ18INzcMF2bsg1YlEWgpbltpOT0yoQP/L8+fP2EMkVb2/vfQsXLjyJz3gINRQtyG0/P7/FaDX0IUQB9RlDbDQwTx91hkIAm7CfdcOGDd/pf/Kp9pgyZcoImhACj2VHr0BEkdLoMT5NoqduUXpjA34YNnDgQJpBtg0EeR+txxR6eEYT3FFuCKL8QnX+1yABoHUajrBBF95aH9/FIR0ymWxFZGTkCYQuDSCCDjExMWH37t0r9goTEM8Int0YYZEewpyfQNwVEEA3qiMqKqozWrsJtB3Cp6/CwsK8UWaMOjeBvKdR/CGNAUKreYruB+qJwvd7aB3opcI6EOIJnJMbWobjEMe0ixcvmmZkZDhdunSpJ+o6DiHOCQgI2IH1p0F45wsXLjjj/P/GdudSUlLMIB4a7Necjs/xBoFYvw814SDJCdzw24qZUvRMgMhNIqBJ6+T1aNjBtm3b6GVb4iTwvLw8HXhPV8TB1GuUCC9mpSBgWcD69+h1JSCaqVT0VgCSdkYcvwa5TLEpji8LOJIbzs7O9A+Tr/ysBDlEj7S0NHfU9VKDEDmqiN27d+ugGY+iiTGUBNNoSxpzQ0Kg7zR2iJ4cU9cpDd8Fec9Lu4qAZ22AkGEYvYYRce1thB/GIBh50mJPM6mVgKcMobrReiRJxW8FOLf30TpkwtNWelqlKtA14roa4N40QDjZFMsq/0MM24nvWIL4XXGfbcRCjuoDNO99EfM/pDEv+CoOi1BM3KBnBSQAGgdDD9HQWuQiXNiEH7sRTB3WEa2CJX7c9Uimczp37vxk5syZlEwHb9++fXNSUpIZtumABPEGtSxUN3IQejdLsb55+q4wqahCYNuPEhISrBDyiIPh4uLidB89erQNSepOxNT0V6faT5482XT58uW/pV1IiA0REm3Zt29fFkIP6p2ZnJ2dvQMx+nc01zc9PX0/6hiE/EYHiet2hCzivGnaF5+14KEnos7N+fn52rgPW86dO3cd5aLnx31ohJbFGiHQUpSJQx6Qe2gibIpHiDMW4ZpvamqqJ8Kj4Tk5OdsR8qyEaSO/2g4B0UO2mgiLViEs06Z9Of5D4Ob/iJDGgpLbJUuWiD0W1DVKq8goUVYs05sNkHzexo+braOjk9e1a9f0RYsWBbi7u/taWFhMwLrFTZs29UZYJb6GHS1HNn3SBBIkq4KtrW0EEs+4rVu3nqpVq1YnHOscWqI45BhxiJnj0JpMQBhQ4btJIaRtIOpz1PeMWhfUl4z8hOY856OeI6jT4erVqzRqk4HkYj8/EtoziO8LTE1Nc0DUa7jmrE2bNhXifIzRKgQiNo+EgL0OHz7sTSEfhCtDy2ZN+0I8vyIZdkXdlLSaIokNxz3IQLkiB6LxPjkQ/1Ppew3cj/kQCvUULcB1nsB6OxzLicJK1P0Y6xPs7e2foeXcYWxsPA95AvW+PUfe9Upv5uN4ScBLTQJh/EAemu0kikFXV1ec1K2YUE6mGFBHLcWsWbMuIYyKNjExodeVUL5wDXmBOZLCx/ROItp39erV4nt44OnEP+Gg3iXKOagOGj5MrQ/N36U/85BeEVjshVKqAMIE4DzPBAcHH4AAL4H41khGz4Jcy+GpabYbzR1eGR0dHfz48WMt2getVDpCny0gYSg880EIwBf77MW5nkO4d4q2QStXiPtA3cO2qHvc2LFj/akcHr4phLNu6NChxyFw8t4pELQZkmEx9Dlx4oQZxLNRTU3tEiXPVIaQZyEcA41kfQ+COQ+hOuG7O+6xK8JJB5D9NFoH+7Vr157DfbJdtWpVmr+/P73Bu9x3JHG8QcCjfUYPiyAAepErJb7iMwIiFM0RoOcGNIIUm4pGk0coRKJ8gcppoJ22trYoEsolqPWgiSw0BonEUHJfWk/7Um8TWp0sfX19dw8PjwpnjyF0MMf5RLu4uMQi/DGHCB0dHBxCbWxstiEko/80CILwLiC8ccrIyBBfYAVv67FixYpEiNAHxzgJQhbiWu8j3BkFbxyIViUDHtsCpHSE+HNQdwIEtJX2RfjSgZ6PQOSn1q1b547QK5y+I+zZQOsRDgXCyydDjEdwr8ZSGcTxD+5dHgiuBwfgjWOl43wycZwHCMHuQyDZEHsKvjMQPwLnG4JWIhTX9kp/UcXxmkAtgqOjowk81WYKJ6hloPBo6dKl4gu3KMyhsUP02hH67Nixo9hlSkZenkhPLQcJgSblKIzCKwMDg9s//fSTCRJvkylTpphAeCYIxUq9p6c8YJ9meXl5orcsKCjQQXw+qrCwsFdubq44kQfrhtCnAti+IeLvHtLXGs+ePZuM/cRtsK451omTVkDmYyB/Fuor+VY48Z2qtIzPBrBlyBvEecdUDhNfuKvIAQg4n96RkZEfoBUajeWBdE50TNhAHH8Y8gn6r4alsD9h3yJcK/W6RY5qADT5zTQ1NZt5enrOhzBkIIkMHlcGbyhzdnaWIbS4S/8vBk/G4OXo3T3PtbS0ZP3795chrpdBPDLEzzKECocRWjSjvEOqutoBXtsKrZ83vLzKv2vi4CgFyYOZ3r171xSezRTL/0ir3llApJXuleLg4ODg4ODg4ODg4ODg4ODg4ODg4ODg4ODg4ODg4ODg4ODg4ODg4ODg4ODg4ODg4ODg4ODg4ODg4ODg4ODg4HjrqFHj/wD3ymw7aCbargAAAABJRU5ErkJggg==;" parent="1" vertex="1">
          <mxGeometry x="1202" y="61" width="192" height="119" as="geometry" />
        </mxCell>
        <mxCell id="S3AjZwHqo7CkDDV8pgAv-94" style="edgeStyle=orthogonalEdgeStyle;rounded=0;orthogonalLoop=1;jettySize=auto;html=1;exitX=1;exitY=0.5;exitDx=0;exitDy=0;entryX=0;entryY=0.5;entryDx=0;entryDy=0;" parent="1" source="S3AjZwHqo7CkDDV8pgAv-81" target="S3AjZwHqo7CkDDV8pgAv-15" edge="1">
          <mxGeometry relative="1" as="geometry">
            <mxPoint x="483" y="494.6363636363635" as="sourcePoint" />
          </mxGeometry>
        </mxCell>
        <mxCell id="S3AjZwHqo7CkDDV8pgAv-137" value="Optional" style="text;html=1;align=center;verticalAlign=middle;whiteSpace=wrap;rounded=0;" parent="1" vertex="1">
          <mxGeometry x="303" y="70" width="60" height="30" as="geometry" />
        </mxCell>
        <mxCell id="S3AjZwHqo7CkDDV8pgAv-96" style="edgeStyle=orthogonalEdgeStyle;rounded=0;orthogonalLoop=1;jettySize=auto;html=1;entryX=0;entryY=0.5;entryDx=0;entryDy=0;exitX=0.534;exitY=0.029;exitDx=0;exitDy=0;exitPerimeter=0;" parent="1" source="S3AjZwHqo7CkDDV8pgAv-93" target="S3AjZwHqo7CkDDV8pgAv-23" edge="1">
          <mxGeometry relative="1" as="geometry">
            <mxPoint x="783" y="275" as="sourcePoint" />
            <mxPoint x="583" y="200" as="targetPoint" />
            <Array as="points">
              <mxPoint x="331" y="290" />
              <mxPoint x="370" y="290" />
              <mxPoint x="370" y="265" />
            </Array>
          </mxGeometry>
        </mxCell>
      </root>
    </mxGraphModel>
  </diagram>
</mxfile>
